<?xml version="1.0" encoding="utf-8"?>
<!-- Generator: Adobe Illustrator 27.5.0, SVG Export Plug-In . SVG Version: 6.00 Build 0)  -->
<svg version="1.1" xmlns="http://www.w3.org/2000/svg" xmlns:xlink="http://www.w3.org/1999/xlink" x="0px" y="0px"
	 viewBox="0 0 750 500" style="enable-background:new 0 0 750 500;" xml:space="preserve">
<g id="BACKGROUND">
	<g>
		<path style="fill:#DEE6F9;" d="M200.689,465.333c0,0-62.137-14.738-84.233-42.071c-22.096-27.333,46.3,21.256,91.152,22.683
			C252.46,447.371,228.186,470.935,200.689,465.333z"/>
		<path style="fill:#DEE6F9;" d="M584.92,372.99c0,0,58.577-39.758,71.764-88.629c13.188-48.871,24.535,40.095-49.683,97.224
			S584.92,372.99,584.92,372.99z"/>
		<path style="fill:#DEE6F9;" d="M114.253,333.432c10.361-48.656,33.72-54.821,73.004-78.738
			c50.929-31.007,25.856-47.313-18.006-85.456c-29.624-25.762,7.043-134.772,134.502-100.734
			c91.46,24.424,49.152,84.866,160.085,42.295c150.074-57.591,224.739,38.18,142.116,203.17
			C534.203,457.254,81.784,485.916,114.253,333.432z"/>
		<path style="fill:#FFFFFF;" d="M637.221,277.136c0,0-8.071-9.037-19.896-6.147c0,0-10.98-17.008-31.252-5.275
			c0,0-6.466-15.063-22.242-15.063c-16.365,0-23.1,12.331-23.1,12.331s-13.642-5.482-23.585,6.321c0,0-15.406-3.552-24.587,7.832
			H637.221z"/>
		<path style="fill:#FFFFFF;" d="M376.843,294.449c0,0-6.319-7.075-15.577-4.813c0,0-8.597-13.316-24.468-4.13
			c0,0-5.062-11.793-17.414-11.793c-12.813,0-18.086,9.655-18.086,9.655s-10.681-4.292-18.466,4.949c0,0-12.062-2.781-19.25,6.132
			H376.843z"/>
		<path style="fill:#DEE6F9;" d="M500.558,86.19c0,0-6.592-7.381-16.249-5.02c0,0-8.968-13.89-25.524-4.308
			c0,0-5.28-12.302-18.165-12.302c-13.365,0-18.866,10.071-18.866,10.071s-11.142-4.477-19.262,5.162c0,0-12.583-2.901-20.08,6.396
			H500.558z"/>
		<path style="fill:#FFFFFF;" d="M88.963,399.123c0,0,7.774-8.705,19.164-5.921c0,0,10.577-16.382,30.103-5.081
			c0,0,6.228-14.509,21.424-14.509c15.763,0,22.25,11.878,22.25,11.878s13.141-5.281,22.718,6.089c0,0,14.84-3.422,23.683,7.544
			H88.963z"/>
		<path style="fill:#DEE6F9;" d="M639.967,268.027c4.073-5.172,5.16-19.719,0.634-22.776c-4.526-3.056-6.028,8.971-6.065,12.275
			C634.47,263.32,635.893,273.199,639.967,268.027z"/>
		<path style="fill:#DEE6F9;" d="M102.878,411.702c0,0-16.775-11.599-15.621-19.224c1.153-7.625,12.023,3.224,15.081,6.825
			C106.231,403.888,109.067,414.553,102.878,411.702z"/>
		<path style="fill:#FFFFFF;" d="M691.458,225.53c0,0-8.587-9.615-21.168-6.54c0,0-11.682-18.095-33.249-5.612
			c0,0-6.879-16.025-23.664-16.025c-17.411,0-24.576,13.12-24.576,13.12s-14.514-5.833-25.093,6.725c0,0-16.391-3.779-26.158,8.332
			H691.458z"/>
		<path style="fill:#FFFFFF;" d="M290.759,168.871c0,0-8.587-9.614-21.168-6.54c0,0-11.682-18.095-33.249-5.612
			c0,0-6.879-16.025-23.664-16.025c-17.411,0-24.576,13.12-24.576,13.12s-14.514-5.833-25.093,6.725c0,0-16.391-3.779-26.158,8.332
			H290.759z"/>
	</g>
</g>
<g id="OBJECT">
	<g>
		<g id="XMLID_242_">
			
				<rect id="XMLID_246_" x="510.495" y="92.556" transform="matrix(-0.2633 0.9647 -0.9647 -0.2633 842.9182 -412.838)" style="fill:#FFFFFF;" width="137.185" height="45.728"/>
			
				<rect id="XMLID_245_" x="570.853" y="62.046" transform="matrix(-0.2633 0.9647 -0.9647 -0.2633 819.8184 -467.1247)" style="fill:#FFF200;" width="34.824" height="34.824"/>
			
				<rect id="XMLID_244_" x="551.217" y="133.987" transform="matrix(-0.2633 0.9647 -0.9647 -0.2633 864.4137 -357.2976)" style="fill:#00323D;" width="34.824" height="34.824"/>
			
				<rect id="XMLID_243_" x="561.058" y="97.931" transform="matrix(-0.2633 0.9647 -0.9647 -0.2633 842.0649 -412.3399)" style="fill:#FF5D31;" width="34.824" height="34.824"/>
		</g>
		<g id="XMLID_237_">
			
				<rect id="XMLID_241_" x="549.635" y="122.568" transform="matrix(-0.9148 0.4039 -0.4039 -0.9148 1242.5278 28.789)" style="fill:#FFFFFF;" width="137.185" height="45.728"/>
			
				<rect id="XMLID_240_" x="634.516" y="112.469" transform="matrix(-0.9148 0.4039 -0.4039 -0.9148 1300.7772 -14.5993)" style="fill:#0FBCBC;" width="34.824" height="34.824"/>
			
				<rect id="XMLID_239_" x="566.296" y="142.587" transform="matrix(-0.9148 0.4039 -0.4039 -0.9148 1182.3124 70.6231)" style="fill:#00323D;" width="34.824" height="34.824"/>
			
				<rect id="XMLID_238_" x="600.487" y="127.492" transform="matrix(-0.9148 0.4039 -0.4039 -0.9148 1241.6844 27.9106)" style="fill:#00323D;" width="34.824" height="34.824"/>
		</g>
		<g>
			<g>
				<path style="fill:#D1D3D4;" d="M538.401,210.643c0.9-2.379-0.062-4.895-2.138-5.592l3.33-8.806
					c2.075,0.697,4.509-0.679,5.409-3.058c0.9-2.379-0.062-4.895-2.138-5.592l8.196-21.674l-57.627-19.35l-8.196,21.674
					c-2.075-0.697-4.509,0.679-5.409,3.058c-0.9,2.379,0.062,4.895,2.138,5.592l-3.33,8.806c-2.075-0.697-4.509,0.679-5.409,3.058
					c-0.9,2.379,0.062,4.895,2.137,5.592l-3.33,8.806c-2.075-0.697-4.509,0.679-5.409,3.058c-0.9,2.379,0.062,4.895,2.138,5.592
					l-4.925,13.024l57.627,19.35l4.925-13.024c2.075,0.697,4.509-0.679,5.409-3.058c0.9-2.379-0.062-4.895-2.138-5.592l3.33-8.806
					C535.067,214.398,537.501,213.021,538.401,210.643z"/>
				<path style="opacity:0.21;fill:#231F20;" d="M468.784,226.492l4.3-11.371c-2.783-4.479,3.717-9.83,3.717-9.83l17.008,5.711
					c0,0-13.217-7.983-11.524-14.504c1.693-6.521,6.642-7.342,6.642-7.342c3.589-4.379,24.746-2.058,24.746-2.058l-23.668-7.947
					c0,0-3.418-4.25,0.424-8.277c3.842-4.027,21.257-3.054,21.257-3.054l34.302,11.518l5.074-13.417l-57.627-19.35l-8.196,21.674
					c-2.075-0.697-4.509,0.679-5.409,3.058c-0.9,2.379,0.062,4.895,2.138,5.592l-3.33,8.806c-2.075-0.697-4.509,0.679-5.409,3.058
					c-0.9,2.379,0.062,4.895,2.137,5.592l-3.33,8.806c-2.075-0.697-4.509,0.679-5.409,3.058c-0.9,2.379,0.062,4.895,2.138,5.592
					l-4.925,13.024L468.784,226.492z"/>
				<polygon style="fill:#D1D3D4;" points="551.544,175.886 485.342,153.657 490.249,140.682 556.451,162.911 				"/>
				<polygon style="fill:#D1D3D4;" points="484.607,151.001 479.462,149.273 482.752,140.574 487.897,142.301 				"/>
				<polygon style="fill:#D1D3D4;" points="487.71,150.464 482.564,148.736 484.795,142.838 489.94,144.566 				"/>
				<polygon style="fill:#D1D3D4;" points="553.897,174.266 559.042,175.994 562.331,167.295 557.186,165.567 				"/>
				<polygon style="fill:#D1D3D4;" points="551.854,172.002 556.999,173.73 559.229,167.832 554.084,166.104 				"/>
			</g>
			<path style="fill:#FF40B4;" d="M549.098,160.442c0,0-7.628,9.88-13.045,20.729c-5.418,10.849-4.288,19.634-7.768,19.245
				c-3.48-0.389,5.886-10.078,2.164-11.154c-3.722-1.076-12.758,33.539-17.933,36.708s6.185-11.462,4.958-15.501
				c-1.227-4.039-4.158,7.728-7.283,3.885c-3.124-3.843,8.526-15.976,4.74-19.467c-3.786-3.49-4.93,10.133-10.337,7.837
				c-5.407-2.296,10.419-29.92,6.366-30.82c-4.053-0.899-2.728,13.162-6.642,11.951c-3.914-1.211,4.561-9.66,4.104-16.13
				c-0.457-6.47-4.292-8.504-6.723-3.126c-2.43,5.378-5.375,0.447-3.092-2.636c2.283-3.083-0.597-5.6-3.77-2.887
				c-3.173,2.713-4.033-3.554,1.098-9.157s-2.653-8.217-2.653-8.217s-0.062-1.146,2.914-0.798
				C499.175,141.252,550.347,154.781,549.098,160.442z"/>
			<g>
				<path style="fill:#D1D3D4;" d="M607.819,233.046c1.037-2.743-0.072-5.645-2.465-6.449l3.841-10.156
					c2.393,0.804,5.2-0.783,6.237-3.527s-0.072-5.645-2.465-6.449l9.452-24.996l-66.457-22.315l-9.452,24.996
					c-2.393-0.804-5.2,0.783-6.237,3.527c-1.037,2.743,0.072,5.645,2.465,6.449l-3.84,10.156c-2.393-0.804-5.2,0.783-6.237,3.527
					c-1.037,2.743,0.072,5.645,2.465,6.449l-3.84,10.156c-2.393-0.804-5.2,0.783-6.237,3.527s0.072,5.645,2.465,6.449l-5.68,15.02
					l66.457,22.315l5.68-15.02c2.393,0.804,5.2-0.784,6.238-3.527c1.037-2.743-0.072-5.645-2.465-6.449l3.84-10.156
					C603.975,237.376,606.782,235.789,607.819,233.046z"/>
				<path style="opacity:0.21;fill:#231F20;" d="M527.535,251.324l4.959-13.113c-3.21-5.166,4.287-11.336,4.287-11.336l19.614,6.586
					c0,0-15.243-9.206-13.29-16.727c1.952-7.521,7.66-8.467,7.66-8.467c4.139-5.051,28.538-2.374,28.538-2.374l-27.295-9.165
					c0,0-3.942-4.901,0.489-9.545c4.431-4.644,24.514-3.522,24.514-3.522l39.558,13.283l5.851-15.473l-66.457-22.315l-9.452,24.996
					c-2.393-0.804-5.2,0.783-6.237,3.527c-1.037,2.743,0.072,5.645,2.465,6.449l-3.84,10.156c-2.393-0.804-5.2,0.783-6.237,3.527
					c-1.037,2.743,0.072,5.645,2.465,6.449l-3.84,10.156c-2.393-0.804-5.2,0.783-6.237,3.527s0.072,5.645,2.465,6.449l-5.68,15.02
					L527.535,251.324z"/>
				<polygon style="fill:#D1D3D4;" points="622.977,192.963 546.63,167.328 552.289,152.364 628.635,178 				"/>
				<polygon style="fill:#D1D3D4;" points="545.782,164.264 539.849,162.272 543.643,152.24 549.576,154.232 				"/>
				<polygon style="fill:#D1D3D4;" points="549.36,163.645 543.426,161.653 545.998,154.851 551.932,156.844 				"/>
				<polygon style="fill:#D1D3D4;" points="625.689,191.095 631.623,193.088 635.417,183.056 629.483,181.063 				"/>
				<polygon style="fill:#D1D3D4;" points="623.333,188.484 629.267,190.476 631.839,183.675 625.905,181.682 				"/>
			</g>
			<path style="fill:#87E873;" d="M620.156,175.152c0,0-8.796,11.394-15.044,23.905c-6.248,12.511-4.945,22.642-8.958,22.194
				c-4.013-0.448,6.788-11.623,2.496-12.863c-4.292-1.241-14.713,38.678-20.681,42.333c-5.968,3.654,7.133-13.219,5.718-17.877
				c-1.415-4.658-4.795,8.912-8.398,4.48c-3.603-4.432,9.833-18.424,5.466-22.45c-4.367-4.025-5.685,11.685-11.921,9.038
				c-6.235-2.648,12.015-34.505,7.341-35.542c-4.674-1.037-3.146,15.179-7.66,13.783s5.26-11.14,4.734-18.602
				c-0.527-7.462-4.95-9.807-7.753-3.605c-2.803,6.202-6.198,0.516-3.566-3.04c2.632-3.556-0.689-6.458-4.348-3.329
				c-3.659,3.129-4.651-4.099,1.267-10.56c5.918-6.462-3.059-9.476-3.059-9.476s-0.072-1.322,3.361-0.92
				C562.582,153.022,621.596,168.624,620.156,175.152z"/>
		</g>
		<g id="XMLID_231_">
			<path id="XMLID_236_" style="fill:#00556D;" d="M569.888,51.255l18.286,5.173l83.171,83.996c0,0-2.68,11.146-16.108,14.381
				L573.74,71.351L569.888,51.255z"/>
			<g id="XMLID_233_">
				<path id="XMLID_235_" style="fill:#33D9FF;" d="M577.25,68.274l-7.175-16.044l3.665,19.121l81.498,83.455
					c1.641-0.395,3.119-0.91,4.454-1.507L577.25,68.274z"/>
				<path id="XMLID_234_" style="fill:#33D9FF;" d="M585.571,61.97l82.043,85.341c2.925-3.551,3.732-6.887,3.732-6.887
					l-83.171-83.996l-16.053-4.542L585.571,61.97z"/>
			</g>
			<path id="XMLID_232_" style="fill:#1C0905;" d="M570.581,55.152l2.837-2.917c0,0-5.57-3.279-5.608-2.876
				C567.773,49.763,570.581,55.152,570.581,55.152z"/>
		</g>
		<g>
			
				<rect x="662.577" y="354.54" transform="matrix(1 0.0028 -0.0028 1 1.0284 -1.8634)" style="fill:#FFCEBF;" width="7.504" height="23.954"/>
			<path style="fill:#4360AA;" d="M662.557,378.055l-12.977,7.143l21.018-0.927l-0.534-6.288c0,0-2.02-1.535-4.569,0.318
				c0,0-0.963-2.964-2.882-2.794C660.695,375.679,662.557,378.055,662.557,378.055z"/>
			<path style="fill:#447BCC;" d="M662.999,208.991c9.413,29.143,12.04,38.201,3.438,80.886l-16.796,1.699l-9.589-72.761
				L662.999,208.991z"/>
			<polygon style="fill:#447BCC;" points="666.437,289.877 677.758,367.266 655.858,366.896 649.642,291.577 			"/>
			<path style="opacity:0.18;" d="M671.64,248.155c-0.282-12.992-3.414-22.983-8.641-39.164l-22.946,9.825l7.547,57.263
				C653.842,268.501,663.886,256.972,671.64,248.155z"/>
			
				<rect x="619.619" y="354.54" transform="matrix(1 0.0028 -0.0028 1 1.0282 -1.7432)" style="fill:#FFCEBF;" width="7.504" height="23.954"/>
			<path style="fill:#4360AA;" d="M619.599,378.055l-12.977,7.143l21.018-0.927l-0.534-6.288c0,0-2.02-1.535-4.569,0.318
				c0,0-0.963-2.964-2.882-2.794C617.737,375.679,619.599,378.055,619.599,378.055z"/>
			<path style="fill:#4496D5;" d="M652.514,213.475c4.63,30.273-2.523,38.84-20.161,77.114l-16.439,0.987l7.227-72.019
				L652.514,213.475z"/>
			<polygon style="fill:#4496D5;" points="632.353,290.589 633.725,368.999 612.232,369.864 615.914,291.577 			"/>
			<path style="fill:#FFCEBF;" d="M642.713,142.75l-0.924,7.011c0,0,0.644,2.844,2.589,2.567c2.269-0.324,4.369-2.761,4.369-2.761
				l1.352-13.965l-1.169-1.376L642.713,142.75z"/>
			<path style="fill:#FFCEBF;" d="M636.509,125.606c-4.601,8.718,0.192,21.067,8.991,19.748c0,0,6.694-1,7.189-8.694
				c0.495-7.695-3.574-11.327-4.379-11.582C647.504,124.823,636.509,125.606,636.509,125.606z"/>
			<path style="fill:#D15656;" d="M637.591,125.591l0.222,9.53c0,0,0.862-3.448,2.241-3.103c1.379,0.345,0.23,5.066,1.207,6.378
				c5.516,7.412,5.861,8.101,11.032,2.93c5.171-5.171,2.069-14.134,2.069-14.134l-6.378-3.447L637.591,125.591z"/>
			<path style="fill:#FFCEBF;" d="M638.384,133.472c0.411-3.005,2.237-3.006,3.061-1.053c0.824,1.952,0.849,6.477-1.406,5.556
				C637.784,137.053,638.384,133.472,638.384,133.472z"/>
			<path style="fill:#D15656;" d="M648.495,127.335c0,0-10.149,0.866-13.026-2.276c-0.415-0.453-1.254-2.362,2.343-4.417
				c2.413-1.379,6.895-2.413,8.274,0c0,0,8.963,0,10.783,8.001c1.33,5.848-4.478,12.605-4.478,12.605l0.471-4.592l-0.225-4.343
				l-1.089,1.569L648.495,127.335z"/>
			<path style="fill:#4F2F5B;" d="M620.185,167.064l1.456,32.764c0,0-6.379,30.411-4.084,35.455
				c0.029,0.064,15.803,6.527,38.352,4.599l2.98-12.107l4.289,10.475c7.121,0,14.538-3.56,14.538-3.56l-7.121-34.862l-3.69-29.824
				c-1.036-8.374-6.055-15.731-13.473-19.751l-1.784-0.967c0,0-4.333-1.273-5.817-1.208c-1.396,0.061-5.351,1.609-5.351,1.609
				L620.185,167.064z"/>
			<path style="opacity:0.18;" d="M633.725,173.284c0,0-3.517-5.641-7.267-11.591l-6.273,5.371l1.456,32.764
				c0,0-0.207,0.99-0.531,2.625C627.48,191.149,633.725,173.284,633.725,173.284z"/>
			<path style="fill:#4F2F5B;" d="M642.113,149.241c0,0-1.628,0.464-8.394-1.301c-8.259-2.155-32.952-7.944-32.952-7.944
				l-12.357,13.828l54.148,27.163l3.605-11.887c1.216-4.01,0.966-8.321-0.704-12.164L642.113,149.241z"/>
			<g>
				<path style="fill:#FFCEBF;" d="M586.301,104.221c0,0-0.242-2.773,0.84-3.703c1.082-0.929,1.17-1.559,0.425-1.431
					c-0.745,0.127-1.732,0.921-1.732,0.921s-0.935-4.303-1.548-4.522s-0.349,1.01-0.349,1.01s-0.415-1.557-0.91-1.576
					c-0.495-0.019-0.142,1.387-0.142,1.387s-0.365-0.807-0.647-0.737c-0.262,0.066-0.25,0.926,0.003,1.611
					c0,0-0.15-0.692-0.612-0.609c-0.26,0.047-0.13,0.788-0.028,1.535c0.267,1.965,0.029,4.302,1.815,5.804l0.649,3.517
					L586.301,104.221z"/>
				<path style="fill:#FCF3F2;" d="M586.738,104.826l-0.106-1.588c0,0-2.989,0.421-4.566,2.223l1.249,5.337L586.738,104.826z"/>
				<path style="fill:#4F2F5B;" d="M586.844,104.325l-4.905,1.439l1.945,38.112c0.131,2.561,0.938,5.041,2.339,7.189l0,0
					c2.725,5.105,9.582,6.177,13.734,2.147l5.808-5.637L586.844,104.325z"/>
			</g>
		</g>
	</g>
	<g>
		<g>
			<path id="XMLID_230_" style="fill:#243589;" d="M255.871,149.589c0,0-9.9-20.521-1.605-28.363s3.534,13.458,10.548,8.05
				c7.014-5.407-7.496-48.292,7.609-50.201c15.105-1.909,23.687,40.283,17.727,51.324c-5.96,11.041-20.15,6.457-17.3,10.837
				c2.851,4.38,19.901-1.66,13.919,6.109c-5.982,7.769-24.526,1.805-26.2,4.411C258.894,154.363,255.871,149.589,255.871,149.589z"
				/>
			<path style="opacity:0.41;" d="M272.422,79.076c-2.585,0.327-4.302,1.855-5.409,4.189c8.312,11.754,11.896,37.086,7.475,45.278
				c-5.96,11.041-20.15,6.456-17.3,10.837c2.851,4.38,19.901-1.66,13.919,6.109c-3.082,4.003-9.496,4.358-15.222,4.12
				c0.139,0.217,3.049,4.691,4.684,2.147c1.674-2.606,20.218,3.358,26.2-4.411c5.982-7.769-11.068-1.729-13.919-6.109
				c-2.851-4.38,11.34,0.204,17.3-10.837S287.526,77.167,272.422,79.076z"/>
			<path id="XMLID_229_" style="fill:#662D91;" d="M175.77,125.038c0,0,11.486-35.956,2.83-39.675
				c-8.656-3.72-5.937,14.313-11.051,9.045c-5.113-5.267,6.53-18.322-2.714-25.535c-9.244-7.213-17.272,6.606-24.132,1.633
				c-6.86-4.973,7.911-22.675-2.619-19.951c-10.53,2.724-24.079,33.955-7.654,43.657s23.567-1.854,25.453,9.979
				c1.887,11.833,13.588,23.599,17.425,23.798C177.145,128.188,175.77,125.038,175.77,125.038z"/>
			<g style="opacity:0.37;">
				<path d="M162.922,96.709c-1.886-11.833-9.027-0.276-25.453-9.979c-11.653-6.883-8.218-24.601-1.479-35.289
					c-10.079,5.828-20.913,33.701-5.561,42.77c16.426,9.702,23.566-1.854,25.453,9.979c1.887,11.833,13.588,23.599,17.425,23.798
					c3.837,0.199,2.462-2.95,2.462-2.95s0.735-2.303,1.692-5.797C172.452,115.875,164.454,106.315,162.922,96.709z"/>
			</g>
			<path id="XMLID_228_" style="fill:#ED1C24;" d="M219.215,118.252c0,0,15.336-17.48,19.233-33.245
				c3.897-15.765-5.868-16.657-15.24-17.721c-9.371-1.064,17.219-38.928-0.858-42.753c-18.077-3.824-41.718,36.502-29.6,51.367
				c12.118,14.865,24.842,3.214,22.964,17.16c-1.878,13.946-4.494,27.277-0.263,27.304
				C219.681,120.393,219.215,118.252,219.215,118.252z"/>
			<path d="M223.208,67.287c-9.371-1.064,17.219-38.928-0.858-42.753c-4.351-0.921-9.025,0.722-13.445,3.947
				c1.374-0.169,2.735-0.133,4.066,0.149c18.077,3.824-8.513,41.689,0.858,42.753c9.371,1.064,19.136,1.956,15.24,17.721
				c-2.696,10.91-10.869,22.636-15.648,28.827c0.313,1.542,0.945,2.427,2.029,2.435c4.231,0.027,3.765-2.113,3.765-2.113
				s15.336-17.48,19.233-33.245C242.344,69.242,232.579,68.351,223.208,67.287z"/>
			<g id="XMLID_220_">
				<path id="XMLID_227_" style="fill:#243589;" d="M237.283,245.367c0,0,11.306-23.995,11.489-29.382s12.188-19.532,13.437-25.843
					c1.249-6.311,5.647-14.731,4.215-18.966c-1.432-4.235-5.262-10.374-5.262-10.374l2.148-9.58l-10.879-4.507l-4.318,8.226
					l-9.73,3.708c0,0-7.379,6.275-10.895,19.158c-1.941,7.112,0.966,13.601-7.265,22.482c-8.231,8.881-11.133,29.073-16.789,31.738
					c-5.656,2.664-8.914,7.232-8.914,7.232l43.677,17.638L237.283,245.367z"/>
				<path id="XMLID_226_" style="fill:#ED1C24;" d="M228.413,156.341"/>
				<g id="XMLID_221_">
					<polygon id="XMLID_225_" style="fill:#FFFFFF;" points="249.657,151.997 261.99,157.106 263.309,151.223 252.43,146.716 					
						"/>
					<path id="XMLID_224_" style="fill:#FFFFFF;" d="M261.324,160.074l-13.065-5.413l-0.147,0.281l-9.73,3.708
						c0,0-0.596,0.508-1.53,1.529c8.155,3.378,22.291,9.234,29.817,12.352c-0.038-0.483-0.107-0.943-0.246-1.354
						c-1.432-4.235-5.262-10.374-5.262-10.374L261.324,160.074z"/>
					<path id="XMLID_223_" style="fill:#FFFFFF;" d="M203.433,232.027c-5.656,2.664-8.914,7.232-8.914,7.232l43.677,17.638
						l-0.857-10.825L203.433,232.027z"/>
				</g>
			</g>
			<g id="XMLID_204_">
				<path id="XMLID_219_" style="fill:#662D91;" d="M214.072,199.085c0,0-6.163-22.004-9.081-25.616
					c-2.918-3.612-3.073-19.595-5.817-24.41c-2.745-4.815-4.626-12.779-7.947-14.731c-3.32-1.951-9.276-3.791-9.276-3.791
					l-4.002-7.451l-9.627,3.198l1.825,7.793l-4.247,7.901c0,0-1.269,8.248,3.704,18.621c2.745,5.727,8.298,8.315,7.943,18.741
					c-0.355,10.425,9.139,25.215,6.957,30.139c-2.182,4.924-1.729,9.737-1.729,9.737l38.395-13.135L214.072,199.085z"/>
				<path id="XMLID_218_" style="fill:#ED1C24;" d="M158.103,146.094"/>
				<g id="XMLID_209_">
					<polygon id="XMLID_212_" style="fill:#FFFFFF;" points="169.493,131.288 180.406,127.663 177.948,123.087 168.321,126.284 
											"/>
					<path id="XMLID_211_" style="fill:#FFFFFF;" d="M181.646,129.971l-11.562,3.84l0.062,0.266l-4.247,7.901
						c0,0-0.102,0.667-0.135,1.858c7.217-2.397,19.726-6.552,26.386-8.764c-0.297-0.294-0.602-0.554-0.923-0.743
						c-3.32-1.951-9.276-3.791-9.276-3.791L181.646,129.971z"/>
					<path id="XMLID_210_" style="fill:#FFFFFF;" d="M184.502,209.479c-2.182,4.924-1.729,9.737-1.729,9.737l38.395-13.135
						l-6.661-6.568L184.502,209.479z"/>
				</g>
			</g>
			<g id="XMLID_192_">
				<path id="XMLID_203_" style="fill:#ED1C24;" d="M224.099,214.871c0,0,4.122-26.202,2.787-31.424
					c-1.335-5.222,6.221-22.167,5.65-28.575c-0.571-6.408,1.289-15.724-1.273-19.387c-2.562-3.663-7.96-8.482-7.96-8.482
					l-0.625-9.798l-11.706-1.275l-1.838,9.107l-8.299,6.288c0,0-5.323,8.093-5.085,21.444c0.132,7.37,4.742,12.785-0.668,23.617
					c-5.41,10.833-2.533,31.029-7.214,35.173c-4.682,4.144-6.528,9.442-6.528,9.442l46.871,4.681L224.099,214.871z"/>
				<path id="XMLID_202_" style="fill:#ED1C24;" d="M190.618,131.906"/>
				<g id="XMLID_194_">
					<polygon id="XMLID_201_" style="fill:#FFFFFF;" points="209.791,121.778 223.061,123.223 222.677,117.206 210.971,115.931 
											"/>
					<path id="XMLID_200_" style="fill:#FFFFFF;" d="M223.255,126.258l-14.059-1.531l-0.063,0.31l-8.299,6.288
						c0,0-0.43,0.655-1.04,1.896c8.775,0.956,23.986,2.612,32.084,3.494c-0.171-0.453-0.367-0.876-0.615-1.23
						c-2.562-3.663-7.96-8.482-7.96-8.482L223.255,126.258z"/>
					<path id="XMLID_199_" style="fill:#FFFFFF;" d="M187.867,211.56c-4.682,4.144-6.528,9.442-6.528,9.442l46.871,4.681
						l-3.859-10.15L187.867,211.56z"/>
				</g>
			</g>
		</g>
		<g>
			<g id="XMLID_175_">
				<path id="XMLID_190_" style="fill:#FC5959;" d="M78.324,166.695c0,0-0.151-28.237-1.145-28.037
					c-0.994,0.2-4.574-0.461-6.031,0.866c-1.457,1.327-7.093-0.99-8.55,0.337c-1.457,1.327-6.761,0.667-8.416,2.723
					c-1.656,2.056-2.383,5.304-2.383,5.304l11.416,22.529L78.324,166.695z"/>
				<polygon id="XMLID_188_" style="fill:#00556D;" points="107.193,330.16 98.545,331.896 60.275,168.594 79.495,164.737 				"/>
				<path id="XMLID_185_" style="fill:#E7E7E7;" d="M87.42,212.068l-7.925-47.332l-19.22,3.857l10.939,46.68
					C76.795,214.188,82.675,213.031,87.42,212.068z"/>
				<path id="XMLID_182_" style="fill:#FC5959;" d="M78.324,166.695"/>
				
					<line id="XMLID_181_" style="fill:none;stroke:#F9E1E1;stroke-width:0.94;stroke-linecap:round;stroke-miterlimit:10;" x1="75.139" y1="162.853" x2="73.37" y2="142.87"/>
				
					<line id="XMLID_180_" style="fill:none;stroke:#F9E1E1;stroke-width:0.94;stroke-linecap:round;stroke-miterlimit:10;" x1="67.106" y1="143.437" x2="71.03" y2="162.988"/>
				
					<line id="XMLID_179_" style="fill:none;stroke:#F9E1E1;stroke-width:0.94;stroke-linecap:round;stroke-miterlimit:10;" x1="60.314" y1="145.662" x2="65.927" y2="164.185"/>
				<path id="XMLID_177_" style="fill:#FC5959;" d="M56.106,147.885"/>
				
					<line id="XMLID_176_" style="fill:none;stroke:#F9E1E1;stroke-width:0.94;stroke-linecap:round;stroke-miterlimit:10;" x1="56.14" y1="148.913" x2="62.612" y2="163.988"/>
			</g>
			<g>
				<g id="XMLID_107_">
					<g id="XMLID_173_">
						<path id="XMLID_174_" style="fill:#FC5959;" d="M135.491,201.306c0,0-7.498-16.51,0.241-24.533
							c7.739-8.023,8.135-22.948,8.135-22.948s14.908,15.359,11.553,29.209c-3.354,13.85-8.54,19.452-8.54,19.452L135.491,201.306z"
							/>
					</g>
					<polygon id="XMLID_172_" style="fill:#00556D;" points="123.422,341.648 130.854,342.419 150.036,201.663 133.521,199.951 
											"/>
					<path id="XMLID_171_" style="fill:#E7E7E7;" d="M130.632,240.494l2.889-40.543l16.514,1.712l-5.483,40.235
						C139.761,241.43,134.71,240.926,130.632,240.494z"/>
					<path id="XMLID_170_" style="fill:none;stroke:#F9E1E1;stroke-width:0.94;stroke-linecap:round;stroke-miterlimit:10;" d="
						M137.482,196.908c0,0-4.082-10.592,0.854-15.644c4.937-5.052,5.868-15.892,5.868-15.892"/>
					<g id="XMLID_153_">
						<path id="XMLID_154_" style="fill:#F9E1E1;" d="M141.264,197.444c0.033,0.003,0.067,0.001,0.101-0.007
							c0.153-0.039,0.245-0.195,0.206-0.348c-0.013-0.051-1.318-5.185-0.981-9.795c0.192-2.623,1.1-3.51,2.251-4.632
							c0.846-0.825,1.804-1.759,2.611-3.542c1.874-4.139,1.432-13.134,1.413-13.515c-0.008-0.157-0.141-0.276-0.301-0.271
							c-0.158,0.008-0.279,0.143-0.271,0.301c0.005,0.092,0.454,9.237-1.362,13.249c-0.763,1.685-1.64,2.54-2.489,3.368
							c-1.188,1.159-2.215,2.16-2.423,5c-0.344,4.705,0.985,9.928,0.998,9.98C141.046,197.35,141.148,197.432,141.264,197.444z"/>
					</g>
					<g id="XMLID_112_">
						<path id="XMLID_113_" style="fill:#F9E1E1;" d="M146.477,197.121c0.031,0.003,0.063,0.001,0.096-0.006
							c0.154-0.036,0.249-0.191,0.213-0.344c-0.007-0.029-0.694-2.969-0.708-6.916c-0.008-2.496,0.627-3.152,1.891-4.458
							c0.702-0.724,1.575-1.626,2.6-3.109c2.935-4.245-0.778-12.822-0.938-13.184c-0.064-0.145-0.232-0.211-0.377-0.147
							c-0.145,0.064-0.211,0.233-0.147,0.377c0.038,0.086,3.744,8.646,0.991,12.629c-0.999,1.445-1.854,2.327-2.541,3.036
							c-1.286,1.328-2.062,2.129-2.053,4.858c0.014,4.017,0.716,7.016,0.723,7.046C146.257,197.024,146.36,197.109,146.477,197.121z
							"/>
					</g>
					<g id="XMLID_108_">
						<path id="XMLID_111_" style="fill:#F9E1E1;" d="M148.888,196.076c0.012,0.001,0.025,0.001,0.037,0.002
							c0.158-0.004,0.283-0.136,0.279-0.294c-0.001-0.032-0.056-3.255,2.013-5.934c2.188-2.833,2.838-11.58,2.865-11.951
							c0.012-0.158-0.108-0.304-0.265-0.306c-0.158-0.012-0.295,0.107-0.306,0.265c-0.007,0.089-0.664,8.945-2.747,11.642
							c-2.198,2.846-2.136,6.159-2.132,6.299C148.635,195.944,148.747,196.061,148.888,196.076z"/>
					</g>
				</g>
				<g id="XMLID_64_">
					<g id="XMLID_74_">
						<path id="XMLID_106_" style="fill:#FC5959;" d="M109.919,209.599c0,0-7.921-13.115-2.219-20.612
							c5.703-7.497,4.562-20.06,4.562-20.06s14.026,11.419,12.578,23.372c-1.448,11.954-5.247,17.167-5.247,17.167L109.919,209.599z
							"/>
					</g>
					<polygon id="XMLID_73_" style="fill:#00556D;" points="113.639,328.565 119.951,328.478 122.16,208.463 108.132,208.656 					
						"/>
					<path id="XMLID_72_" style="fill:#E7E7E7;" d="M109.707,242.965l-1.576-34.309l14.028-0.193l-0.631,34.306
						C117.461,242.849,113.172,242.925,109.707,242.965z"/>
					<path id="XMLID_71_" style="fill:none;stroke:#F9E1E1;stroke-width:0.94;stroke-linecap:round;stroke-miterlimit:10;" d="
						M111.156,205.711c0,0-4.471-8.486-0.827-13.213c3.644-4.727,3.357-13.915,3.357-13.915"/>
					<g id="XMLID_69_">
						<path id="XMLID_70_" style="fill:#F9E1E1;" d="M114.382,205.788c0.028,0,0.056-0.006,0.084-0.016
							c0.125-0.048,0.187-0.188,0.138-0.313c-0.016-0.042-1.618-4.221-1.79-8.123c-0.098-2.22,0.577-3.054,1.432-4.109
							c0.628-0.775,1.34-1.654,1.841-3.23c1.164-3.658-0.094-11.164-0.148-11.481c-0.022-0.131-0.146-0.218-0.279-0.198
							c-0.132,0.023-0.22,0.147-0.198,0.279c0.013,0.077,1.292,7.707,0.164,11.253c-0.474,1.489-1.126,2.294-1.756,3.072
							c-0.883,1.09-1.646,2.031-1.54,4.435c0.176,3.983,1.806,8.234,1.822,8.276C114.191,205.73,114.284,205.789,114.382,205.788z"
							/>
					</g>
					<g id="XMLID_67_">
						<path id="XMLID_68_" style="fill:#F9E1E1;" d="M118.726,205.003c0.026,0,0.053-0.005,0.08-0.015
							c0.126-0.046,0.19-0.184,0.144-0.31c-0.009-0.024-0.876-2.423-1.276-5.734c-0.254-2.094,0.215-2.707,1.147-3.928
							c0.517-0.677,1.161-1.52,1.875-2.866c2.044-3.852-1.918-10.683-2.088-10.972c-0.068-0.116-0.215-0.154-0.331-0.086
							c-0.115,0.068-0.154,0.216-0.086,0.331c0.04,0.068,3.995,6.887,2.078,10.5c-0.696,1.311-1.326,2.136-1.832,2.799
							c-0.948,1.241-1.521,1.99-1.243,4.28c0.408,3.37,1.293,5.817,1.302,5.842C118.531,204.943,118.626,205.004,118.726,205.003z"
							/>
					</g>
					<g id="XMLID_65_">
						<path id="XMLID_66_" style="fill:#F9E1E1;" d="M120.645,203.887c0.01,0,0.021-0.001,0.031-0.002
							c0.132-0.019,0.224-0.142,0.205-0.274c-0.004-0.027-0.368-2.726,1.104-5.179c1.557-2.594,1.239-9.998,1.225-10.312
							c-0.006-0.133-0.121-0.245-0.252-0.23c-0.134,0.006-0.237,0.119-0.231,0.252c0.003,0.076,0.326,7.572-1.157,10.041
							c-1.563,2.605-1.185,5.38-1.168,5.497C120.42,203.802,120.525,203.889,120.645,203.887z"/>
					</g>
				</g>
				<path id="XMLID_63_" style="fill:#FF6567;" d="M85.23,356.154c0,2.901,56.565,2.901,56.565,0l8.702-81.04h-73.97L85.23,356.154z
					"/>
				<path id="XMLID_62_" style="opacity:0.28;" d="M111.498,275.114c-8.492,14.611-25.729,53.831,5.082,83.204
					c-15.086,0.113-31.351-0.608-31.351-2.164l-8.702-81.04H111.498z"/>
			</g>
		</g>
		<g>
			<path style="fill:#343456;" d="M147.31,118.655l-6.124,1.869c0,0-3.802,4.005-2.07,11.086c1.732,7.081,3.848,10.161-5.195,12.854
				c-9.043,2.693-15.584,12.698-13.083,21.356c0,0,1.539-10.948,7.504-12.304c0,0-7.311,9.995-5.387,16.922
				c1.924,6.926,8.88,15.457,22.045,14.847c13.164-0.61,21.164-13.147,19.514-25.429c-1.651-12.282-13.182-14.992-9.67-22.022
				S147.31,118.655,147.31,118.655z"/>
			
				<rect x="227.909" y="315.891" transform="matrix(0.9313 -0.3642 0.3642 0.9313 -103.4958 106.8833)" style="fill:#FFCEBF;" width="7.504" height="23.954"/>
			
				<rect x="159.318" y="325.848" transform="matrix(1 0.0028 -0.0028 1 0.9506 -0.4572)" style="fill:#FFCEBF;" width="7.504" height="23.954"/>
			<path style="fill:#4360AA;" d="M154.011,194.31c-0.462,1.545-4.916,143.515-4.916,143.515h37.79L177.47,221.7l33.989,109.886
				c0,0,22.511-4.485,34.632-10.378l-59.615-142.343C186.476,178.865,161.917,167.887,154.011,194.31z"/>
			<path style="fill:#4360AA;" d="M154.011,194.31c-0.462,1.545-4.916,143.515-4.916,143.515h37.79L177.47,221.7l33.989,109.886
				c0,0,22.511-4.485,34.632-10.378l-59.615-142.343C186.476,178.865,161.917,167.887,154.011,194.31z"/>
			<path style="opacity:0.18;" d="M171.439,186.406c7.814-4.395-4.312-1.967-14.217,0.394c-1.239,2.084-2.329,4.563-3.211,7.51
				c-0.128,0.427-0.561,11.602-1.121,27.542C157.064,208.576,163.903,190.645,171.439,186.406z"/>
			<path style="fill:#FFCEBF;" d="M213.416,137.54c0,0,1.424-2.083,0.983-3.298c-0.441-1.215-0.231-1.751,0.301-1.319
				c0.532,0.432,0.959,1.497,0.959,1.497s2.653-2.983,3.234-2.884c0.581,0.099-0.174,0.953-0.174,0.953s1.021-1.046,1.42-0.84
				c0.399,0.205-0.505,1.158-0.505,1.158s0.648-0.475,0.838-0.294c0.178,0.169-0.214,0.843-0.719,1.271c0,0,0.426-0.48,0.754-0.209
				c0.185,0.152-0.248,0.68-0.661,1.225c-1.085,1.433-1.936,3.386-4.014,3.777l-2.077,2.489L213.416,137.54z"/>
			<path style="fill:#1D79B2;" d="M155.933,140.209c0,0,11.471,3.256,15.122,7.99c4.725,6.127,24.113,18.145,24.113,18.145
				l-7.514,7.483c-3.04,3.027-8.019,2.803-10.775-0.484l-14.513-17.314l-4.611-11.356L155.933,140.209z"/>
			<path style="fill:#EFF6F2;" d="M212.802,137.824l0.79-1.208c0,0,2.174,1.662,2.618,3.787l-3.36,3.661L212.802,137.824z"/>
			<path style="fill:#1D79B2;" d="M212.941,137.381l3.234,3.318l-19.418,24.011c-2.088,2.582-5.24,4.07-8.56,4.041l0,0
				c-3.911-0.034-7.503-2.162-9.411-5.576l-0.025-0.045L212.941,137.381z"/>
			<path style="opacity:0.18;" d="M169.438,144.986c-4.158-2.58-8.792,0.135-10.48,2.648l3.408,8.393l14.513,17.314
				c1.191,1.422,2.799,2.268,4.486,2.528C180.234,167.173,178.925,150.872,169.438,144.986z"/>
			<path style="fill:#4496D5;" d="M189.784,186.763c5.947-4.331-13.461-18.25-8.917-33.065
				c-1.549-8.173-26.007-14.197-26.007-14.197l-4.772,0.773l-9.132,8.065l0.347,25.826c3.222,10.709,6.488,21.246,12.709,20.145
				C169.998,192.898,189.784,186.763,189.784,186.763z"/>
			<path style="opacity:0.18;" d="M163.273,193.085c1.853-1.892,3.108-3.846,2.669-5.438c-1.301-4.714-8.355,3.376-15.165-1.049
				c-6.811-4.425-4.38-22.156-4.38-22.156l-5.21,1.062l0.116,8.661c3.222,10.709,6.488,21.246,12.709,20.145
				C157.016,194.045,160.156,193.612,163.273,193.085z"/>
			<path style="fill:#4496D5;" d="M150.088,140.274c0,0-14.474,10.918-17.436,19.731c-2.383,7.089-6.505,24.307-6.505,24.307
				l11.071,3.335l9.177-23.205l2.902-11.487L150.088,140.274z"/>
			<path style="fill:#EFF6F2;" d="M150.656,141.195c0,0-4.392,8.99-0.334,10.291c4.058,1.3,5.61-6.181,5.61-6.181L150.656,141.195z"
				/>
			<path style="fill:#EFF6F2;" d="M154.844,142.1l1.089,3.204c0,0,4.545,4.513,6.93,2.268c2.385-2.245-6.152-6.844-6.152-6.844
				L154.844,142.1z"/>
			<path style="fill:#FFCEBF;" d="M155.844,135.71l2.309,7.637c0,0-1.325,2.272-3.381,2.141c-2.4-0.153-3.804-1.736-3.804-1.736
				l-4.417-15.159l0.902-1.609L155.844,135.71z"/>
			<path style="fill:#E5A495;" d="M148.818,136.115c4.286,6.141,8.26,3.551,8.26,3.551l-0.975-3.914l-9.053-4.887L148.818,136.115z"
				/>
			<path style="fill:#FFCEBF;" d="M159.518,116.535c4.638,8.858,5.206,20.538-2.497,22.128c0,0-6.233,1.173-10.541-6.799
				c-4.082-7.555,0.088-12.758,0.83-13.209C148.052,118.203,159.518,116.535,159.518,116.535z"/>
			<path style="fill:#343456;" d="M158.608,120.524c-2.033,7.05-9.895,7.771-9.895,7.771l-0.284,3.315l-2.62-4.693
				c0,0,4.687-4.686,4.778-5.117C150.678,121.369,158.608,120.524,158.608,120.524z"/>
			<path style="fill:#343456;" d="M158.608,120.524c0,0,1.99,2.945,3.856,3.069c0,0,0.531-4.213-1.592-6.105
				c-2.123-1.891-7.216,0.455-7.357,0.696c-0.141,0.241-3.119,3.666-3.119,3.666l6.212-0.397L158.608,120.524z"/>
			<path style="fill:#343456;" d="M160.963,117.832c0.353,0.886-0.227,0.658-2.98,1.575c-3.046,4.385-8.193,6.585-9.713,7.12
				l-0.431,3.703l1.428,7.602c0,0-1.697-1.748-4.579-4.387c-1.799-1.648-3.63-3.993-4.051-7.122
				c-1.063-7.901,4.147-10.855,8.82-12.074C153.379,113.227,156.749,113.146,160.963,117.832z"/>
			<path style="fill:#FFCEBF;" d="M147.346,128.414c-1.763-2.05-3.13-1.166-2.801,0.694c0.329,1.86,2.501,5.26,3.743,3.478
				C149.53,130.804,147.346,128.414,147.346,128.414z"/>
			<path style="fill:#4360AA;" d="M239.097,336.584l14.641,2.251l-20.058,6.349l-1.658-6.089c0,0,1.37-2.136,4.4-1.27
				c0,0-0.113-3.115,1.747-3.613C240.03,333.712,239.097,336.584,239.097,336.584z"/>
			<path style="fill:#4360AA;" d="M159.298,349.363l-12.977,7.143l21.018-0.927l-0.534-6.288c0,0-2.02-1.535-4.569,0.319
				c0,0-0.963-2.964-2.882-2.794C157.436,346.987,159.298,349.363,159.298,349.363z"/>
			<g id="XMLID_8_">
				<g id="XMLID_51_">
					<path id="XMLID_52_" style="fill:#FC5959;" d="M257.842,111.614c0,0,18.419-5.7,19.331-17.518
						c0.912-11.818,12.496-22.673,12.496-22.673s-22.738-1.003-31.378,11.445c-8.64,12.448-9.431,20.526-9.431,20.526
						L257.842,111.614z"/>
				</g>
				<polygon id="XMLID_50_" style="fill:#00556D;" points="154.808,220.323 148.948,214.96 247.287,100.304 260.311,112.223 				"/>
				<path id="XMLID_46_" style="fill:#E7E7E7;" d="M230.124,143.153l30.187-30.93l-13.024-11.918l-28.11,32.774
					C222.933,136.557,226.901,140.216,230.124,143.153z"/>
				<path id="XMLID_45_" style="fill:none;stroke:#F9E1E1;stroke-width:0.94;stroke-linecap:round;stroke-miterlimit:10;" d="
					M259.932,106.925c0,0,11.302-4.235,11.832-11.728c0.529-7.492,8.488-15.888,8.488-15.888"/>
				<g id="XMLID_35_">
					<path id="XMLID_44_" style="fill:#F9E1E1;" d="M256.836,104.298c-0.026-0.024-0.048-0.052-0.065-0.086
						c-0.077-0.149-0.018-0.333,0.132-0.41c0.05-0.026,5.053-2.614,8.479-6.138c1.95-2.005,2.013-3.354,2.092-5.061
						c0.059-1.254,0.125-2.676,0.972-4.577c1.967-4.413,9.429-10.414,9.745-10.668c0.131-0.105,0.319-0.083,0.428,0.048
						c0.105,0.131,0.084,0.323-0.048,0.428c-0.076,0.061-7.663,6.163-9.57,10.44c-0.8,1.796-0.861,3.098-0.92,4.357
						c-0.082,1.763-0.153,3.286-2.263,5.457c-3.497,3.596-8.587,6.229-8.638,6.255C257.063,104.404,256.927,104.381,256.836,104.298
						z"/>
				</g>
				<g id="XMLID_33_">
					<path id="XMLID_34_" style="fill:#F9E1E1;" d="M253.41,99.925c-0.025-0.022-0.046-0.049-0.063-0.08
						c-0.08-0.148-0.024-0.332,0.124-0.412c0.028-0.015,2.85-1.545,5.997-4.322c1.99-1.756,2.063-2.724,2.208-4.652
						c0.08-1.069,0.18-2.4,0.635-4.263c1.302-5.331,10.742-8.437,11.142-8.566c0.16-0.052,0.332,0.035,0.383,0.196
						c0.052,0.16-0.036,0.332-0.196,0.383c-0.095,0.031-9.517,3.13-10.738,8.131c-0.443,1.814-0.541,3.117-0.619,4.164
						c-0.147,1.96-0.236,3.143-2.412,5.063c-3.203,2.826-6.083,4.386-6.112,4.402C253.643,100.032,253.503,100.01,253.41,99.925z"/>
				</g>
				<g id="XMLID_31_">
					<path id="XMLID_32_" style="fill:#F9E1E1;" d="M252.538,97.271c-0.009-0.009-0.018-0.019-0.028-0.028
						c-0.108-0.129-0.092-0.321,0.036-0.429c0.026-0.022,2.627-2.254,3.295-5.791c0.707-3.741,7.201-10.434,7.477-10.717
						c0.117-0.12,0.318-0.129,0.43-0.005c0.121,0.117,0.123,0.31,0.006,0.43c-0.066,0.068-6.641,6.845-7.314,10.406
						c-0.71,3.757-3.387,6.048-3.501,6.144C252.822,97.379,252.65,97.373,252.538,97.271z"/>
				</g>
			</g>
			<path style="fill:#FFCEBF;" d="M160.715,206.386c0,0,2.159,1.135,3.277,0.575c1.117-0.559,1.656-0.417,1.301,0.142
				c-0.355,0.559-1.331,1.088-1.331,1.088s3.161,2.213,3.131,2.782c-0.03,0.569-0.935-0.061-0.935-0.061s1.118,0.863,0.966,1.27
				c-0.152,0.406-1.169-0.355-1.169-0.355s0.529,0.569,0.376,0.772c-0.142,0.19-0.833-0.111-1.301-0.548
				c0,0,0.508,0.355,0.285,0.701c-0.126,0.195-0.681-0.162-1.25-0.497c-1.498-0.882-3.467-1.48-4.076-3.432l-2.622-1.716
				L160.715,206.386z"/>
			<path style="fill:#EFF6F2;" d="M160.375,205.828l1.248,0.623c0,0-1.352,2.273-3.343,2.938l-3.89-2.817L160.375,205.828z"/>
			<path style="fill:#4496D5;" d="M160.815,205.912l-2.824,3.477l-27.883-17.174c-1.844-1.136-4.16-3.201-4.941-5.221l1.807-6.07
				l5.299-4.951L160.815,205.912z"/>
		</g>
	</g>
	<g>
		<g>
			<polygon style="fill:#F7616C;" points="431.599,285.91 346.317,260.71 410.783,199.454 			"/>
			<polygon style="opacity:0.28;" points="417.768,228.466 378.451,230.176 346.317,260.71 431.6,285.91 			"/>
			<polygon style="fill:#FF7276;" points="419.051,326.531 322.576,295.77 291.336,229.773 482.727,290.797 			"/>
		</g>
		<g>
			<g>
				<path style="fill:#E29744;" d="M430.631,354.098c0,0,35.19-2.865,52.123-20.814c16.933-17.949-14.901-31.495-14.901-31.495
					l14.562-5.418c0,0,19.642,7.945,18.287,31.573c-1.355,23.628-44.029,27.151-44.029,27.151L430.631,354.098z"/>
				<path style="fill:#F4AF5D;" d="M452.36,353.051c-31.387,0-56.83,25.444-56.83,56.83s25.444,56.83,56.83,56.83
					c31.387,0,56.83-25.444,56.83-56.83S483.746,353.051,452.36,353.051z M452.36,449.202c-21.743,0-39.368-17.626-39.368-39.368
					s17.626-39.368,39.368-39.368c21.743,0,39.368,17.626,39.368,39.368S474.102,449.202,452.36,449.202z"/>
				<path style="fill:#FFC19A;" d="M441.523,353.051c-31.386,0-56.83,25.444-56.83,56.83s25.444,56.83,56.83,56.83
					c31.387,0,56.83-25.444,56.83-56.83S472.909,353.051,441.523,353.051z M441.523,449.202c-21.742,0-39.368-17.626-39.368-39.368
					s17.626-39.368,39.368-39.368c21.743,0,39.368,17.626,39.368,39.368S463.265,449.202,441.523,449.202z"/>
			</g>
			<g>
				
					<rect x="295.721" y="419.652" transform="matrix(0.3414 0.9399 -0.9399 0.3414 602.418 2.6218)" style="fill:#FFCEBF;" width="7.233" height="23.091"/>
				<path style="fill:#4360AA;" d="M290.764,438.16l-2.513,14.057l-5.649-19.478l5.907-1.456c0,0,2.026,1.37,1.121,4.27
					c0,0,3.004-0.036,3.441,1.768C293.51,439.126,290.764,438.16,290.764,438.16z"/>
				<path style="fill:#0071BC;" d="M359.133,349.951l-4.655,71.408l-52.303,25.208l-10.872-21.87l44.999-15.951
					c0,0-8.564-67.426-5.024-70.436C334.819,335.3,359.133,349.951,359.133,349.951z"/>
				<path style="opacity:0.18;" d="M356.213,394.752l2.92-44.802c0,0-24.314-14.65-27.854-11.64
					c-1.482,1.26-0.842,13.809,0.402,27.973C339.777,373.147,349.956,383.222,356.213,394.752z"/>
				
					<rect x="384.234" y="440.591" transform="matrix(0.9997 -0.0236 0.0236 0.9997 -10.5557 9.2732)" style="fill:#FFCEBF;" width="7.233" height="23.091"/>
				<path style="fill:#4360AA;" d="M391.713,462.483l12.52,6.868l-20.262-0.864l0.506-6.063c0,0,1.945-1.483,4.405,0.301
					c0,0,0.924-2.859,2.774-2.697C393.505,460.19,391.713,462.483,391.713,462.483z"/>
				<path style="fill:#0071BC;" d="M362.268,348.283l41.916,35.981l-4.322,74.381l-25.353-1.445l6.306-64.776
					c0,0-58.143-38.323-51.328-55.143C336.302,320.463,362.268,348.283,362.268,348.283z"/>
				<path style="fill:#325AA0;" d="M376.655,288.48c0,0,9.606,12.107,12.595,17.784c3.868,7.348,7.117,28.128,7.117,28.128
					l-19.767,2.889l-2.471-26.61l-2.57-12.484L376.655,288.48z"/>
				<g>
					<path style="fill:#FFCEBF;" d="M420.771,321.481c0,0,2.046-1.669,1.829-2.99c-0.217-1.321,0.137-1.794,0.63-1.221
						c0.493,0.572,0.728,1.742,0.728,1.742s3.61-2.222,4.233-1.965c0.622,0.257-0.407,0.894-0.407,0.894s1.366-0.754,1.763-0.442
						c0.397,0.312-0.819,1.007-0.819,1.007s0.825-0.292,0.996-0.061c0.16,0.216-0.426,0.774-1.082,1.059c0,0,0.58-0.357,0.883,0
						c0.171,0.201-0.428,0.604-1.007,1.029c-1.525,1.12-2.906,2.816-5.299,2.634l-2.861,1.891L420.771,321.481z"/>
					<path style="fill:#FCF3F2;" d="M420.026,321.593l1.146-0.977c0,0,2.039,2.237,2.056,4.459l-4.547,2.698L420.026,321.593z"/>
					<path style="fill:#325AA0;" d="M388.315,331.502l31.965-10.308l2.844,4.164l-25.351,22.334
						c-2.707,2.385-6.86,2.936-10.499,1.393l-4.928-2.09c-1.762-0.747-3.119-2.147-3.699-3.817l-2.047-5.896L388.315,331.502z"/>
				</g>
				<path style="fill:#4360AA;" d="M387.744,304.539c0,0-2.891-9.108-9.237-15.398c-6.345-6.29-21.388-7.104-30.755-5.975
					c-9.368,1.129-26.374,45.991-21.44,54.236c4.934,8.244,9.036,8.812,18.123,11.597c9.087,2.785,23.692,9.092,26.424,2.735
					c2.732-6.357,0.973-14.882,2.304-23.016C374.494,320.583,385.897,316.419,387.744,304.539z"/>
				<path style="fill:#FFCEBF;" d="M378.557,285.819l-2.824,4.853c0,0-1.888,1.462-3.167,0.322
					c-1.492-1.331-1.806-3.901-1.806-3.901l5.981-9.422l1.538-0.281L378.557,285.819z"/>
				<path style="fill:#E5A495;" d="M374.318,281.296c-0.778,5.126,2.509,7.497,2.509,7.497l2.011-2.755l-3.099-7.039
					L374.318,281.296z"/>
				<path style="fill:#FFCEBF;" d="M393.467,279.745c-0.997,7.748-8.907,14.138-16.386,7.205c0,0-4.394-3.25-0.917-8.317
					c3.478-5.068,8.255-5.322,8.968-5.082C385.847,273.792,393.467,279.745,393.467,279.745z"/>
				<path style="fill:#343456;" d="M378.28,277.391c0,0,3.987-3.228,6.137-2.416c2.15,0.812,5.443,6.696,9.397,6.4
					c3.954-0.296,7.738-5.711,3.89-7.793c0,0,2.618-8.685-6.857-5.1c0,0-1.329-5.613-7.381-1.048c0,0-3.609-4.9-6.125,1.044
					c0,0-3.371-1.783-2.862,4.024c0,0-3.232,1.493-0.628,4.984c0,0-3.212,4.355,0.98,5.18l1.909-4.993l1.073-1.022L378.28,277.391z"
					/>
				<path style="opacity:0.33;fill:#231F20;" d="M358.187,296.986c2.775-2.041-1.009-8.339-5.478-14.2
					c-1.761,0.066-3.435,0.197-4.957,0.38c-5.444,0.656-13.466,16.081-18.264,30.507
					C338.924,305.095,357.757,297.302,358.187,296.986z"/>
				<path style="fill:#4360AA;" d="M364.582,284.149c0,0-11.705-9.872-28.187-1.35c-16.482,8.522-21.275,5.697-24.51,13.982
					c-3.235,8.285,10.578,12.301,19.394,9.402c8.816-2.899,24.982-1.557,30.879-7.699
					C368.056,292.342,370.658,287.427,364.582,284.149z"/>
				<g>
					
						<rect x="368.637" y="213.243" transform="matrix(0.1933 0.9811 -0.9811 0.1933 634.0009 -121.8986)" style="fill:#B3B3B3;" width="44.977" height="222.674"/>
					<g>
						<defs>
							
								<rect id="SVGID_1_" x="368.637" y="213.243" transform="matrix(0.1933 0.9811 -0.9811 0.1933 634.0009 -121.8986)" width="44.977" height="222.674"/>
						</defs>
						<clipPath id="SVGID_00000125601781840458906100000007279303592608135582_">
							<use xlink:href="#SVGID_1_"  style="overflow:visible;"/>
						</clipPath>
						<g style="clip-path:url(#SVGID_00000125601781840458906100000007279303592608135582_);">
							<g>
								
									<rect x="479.219" y="286.28" transform="matrix(0.1933 0.9811 -0.9811 0.1933 676.3706 -248.3649)" style="fill:#666666;" width="19.99" height="1.663"/>
								
									<rect x="465.713" y="288.94" transform="matrix(0.1932 0.9811 -0.9811 0.1932 668.0872 -232.9663)" style="fill:#666666;" width="19.99" height="1.663"/>
								
									<rect x="474.667" y="279.521" transform="matrix(0.1933 0.9811 -0.9811 0.1933 666.069 -249.3511)" style="fill:#666666;" width="19.99" height="1.663"/>
								
									<rect x="469.853" y="280.469" transform="matrix(0.1933 0.9811 -0.9811 0.1933 663.1155 -243.8627)" style="fill:#666666;" width="19.99" height="1.663"/>
								
									<rect x="472.866" y="283.071" transform="matrix(0.1933 0.9811 -0.9811 0.1933 668.0965 -244.7207)" style="fill:#666666;" width="19.99" height="1.663"/>
								
									<rect x="468.052" y="284.019" transform="matrix(0.1932 0.9811 -0.9811 0.1932 665.1457 -239.2316)" style="fill:#666666;" width="19.99" height="1.663"/>
								
									<rect x="452.122" y="291.617" transform="matrix(0.1933 0.9811 -0.9811 0.1933 659.7468 -217.4731)" style="fill:#666666;" width="19.99" height="1.663"/>
								
									<rect x="461.076" y="282.198" transform="matrix(0.1933 0.9811 -0.9811 0.1933 657.731 -233.8569)" style="fill:#666666;" width="19.99" height="1.663"/>
								
									<rect x="456.262" y="283.146" transform="matrix(0.1933 0.9811 -0.9811 0.1933 654.7751 -228.3695)" style="fill:#666666;" width="19.99" height="1.663"/>
								
									<rect x="459.275" y="285.748" transform="matrix(0.1932 0.9811 -0.9811 0.1932 659.7612 -229.2257)" style="fill:#666666;" width="19.99" height="1.663"/>
								
									<rect x="454.461" y="286.696" transform="matrix(0.1932 0.9811 -0.9811 0.1932 656.8077 -223.7374)" style="fill:#666666;" width="19.99" height="1.663"/>
								
									<rect x="438.531" y="294.294" transform="matrix(0.1932 0.9811 -0.9811 0.1932 651.4114 -201.978)" style="fill:#666666;" width="19.99" height="1.663"/>
								
									<rect x="447.485" y="284.875" transform="matrix(0.1933 0.9811 -0.9811 0.1933 649.3906 -218.3637)" style="fill:#666666;" width="19.99" height="1.663"/>
								
									<rect x="442.671" y="285.823" transform="matrix(0.1933 0.9811 -0.9811 0.1933 646.4397 -212.8745)" style="fill:#666666;" width="19.99" height="1.663"/>
								
									<rect x="445.684" y="288.425" transform="matrix(0.1932 0.9811 -0.9811 0.1932 651.4233 -213.7315)" style="fill:#666666;" width="19.99" height="1.663"/>
								
									<rect x="440.87" y="289.373" transform="matrix(0.1933 0.9811 -0.9811 0.1933 648.4674 -208.2442)" style="fill:#666666;" width="19.99" height="1.663"/>
								
									<rect x="424.94" y="296.971" transform="matrix(0.1933 0.9811 -0.9811 0.1933 643.0711 -186.4849)" style="fill:#666666;" width="19.99" height="1.663"/>
								
									<rect x="433.895" y="287.552" transform="matrix(0.1933 0.9811 -0.9811 0.1933 641.0552 -202.8686)" style="fill:#666666;" width="19.99" height="1.663"/>
								
									<rect x="429.081" y="288.5" transform="matrix(0.1933 0.9811 -0.9811 0.1933 638.0994 -197.3813)" style="fill:#666666;" width="19.99" height="1.663"/>
								
									<rect x="432.093" y="291.102" transform="matrix(0.1933 0.9811 -0.9811 0.1933 643.0829 -198.2383)" style="fill:#666666;" width="19.99" height="1.663"/>
								
									<rect x="427.279" y="292.05" transform="matrix(0.1932 0.9811 -0.9811 0.1932 640.132 -192.7491)" style="fill:#666666;" width="19.99" height="1.663"/>
								
									<rect x="411.35" y="299.648" transform="matrix(0.1932 0.9811 -0.9811 0.1932 634.7356 -170.9897)" style="fill:#666666;" width="19.99" height="1.663"/>
								
									<rect x="420.304" y="290.229" transform="matrix(0.1933 0.9811 -0.9811 0.1933 632.715 -187.3754)" style="fill:#666666;" width="19.99" height="1.663"/>
								
									<rect x="415.49" y="291.177" transform="matrix(0.1933 0.9811 -0.9811 0.1933 629.7639 -181.8862)" style="fill:#666666;" width="19.99" height="1.663"/>
								
									<rect x="418.503" y="293.779" transform="matrix(0.1932 0.9811 -0.9811 0.1932 634.7474 -182.7432)" style="fill:#666666;" width="19.99" height="1.663"/>
								
									<rect x="413.689" y="294.727" transform="matrix(0.1933 0.9811 -0.9811 0.1933 631.7917 -177.256)" style="fill:#666666;" width="19.99" height="1.663"/>
								
									<rect x="397.759" y="302.325" transform="matrix(0.1932 0.9811 -0.9811 0.1932 626.3976 -155.4955)" style="fill:#666666;" width="19.99" height="1.663"/>
								
									<rect x="406.713" y="292.906" transform="matrix(0.1933 0.9811 -0.9811 0.1933 624.3795 -171.8803)" style="fill:#666666;" width="19.99" height="1.663"/>
								
									<rect x="401.899" y="293.854" transform="matrix(0.1933 0.9811 -0.9811 0.1933 621.426 -166.392)" style="fill:#666666;" width="19.99" height="1.663"/>
								
									<rect x="404.912" y="296.455" transform="matrix(0.1933 0.9811 -0.9811 0.1933 626.4073 -167.2501)" style="fill:#666666;" width="19.99" height="1.663"/>
								
									<rect x="400.098" y="297.404" transform="matrix(0.1932 0.9811 -0.9811 0.1932 623.4561 -161.7608)" style="fill:#666666;" width="19.99" height="1.663"/>
								
									<rect x="384.168" y="305.002" transform="matrix(0.1933 0.9811 -0.9811 0.1933 618.0576 -140.0024)" style="fill:#666666;" width="19.99" height="1.663"/>
								
									<rect x="393.122" y="295.583" transform="matrix(0.1933 0.9811 -0.9811 0.1933 616.0393 -156.3872)" style="fill:#666666;" width="19.99" height="1.663"/>
								
									<rect x="388.308" y="296.531" transform="matrix(0.1933 0.9811 -0.9811 0.1933 613.0859 -150.8989)" style="fill:#666666;" width="19.99" height="1.663"/>
								
									<rect x="391.321" y="299.132" transform="matrix(0.1932 0.9811 -0.9811 0.1932 618.0717 -151.7549)" style="fill:#666666;" width="19.99" height="1.663"/>
								
									<rect x="386.507" y="300.081" transform="matrix(0.1932 0.9811 -0.9811 0.1932 615.1182 -146.2666)" style="fill:#666666;" width="19.99" height="1.663"/>
								
									<rect x="370.577" y="307.679" transform="matrix(0.1932 0.9811 -0.9811 0.1932 609.7218 -124.5072)" style="fill:#666666;" width="19.99" height="1.663"/>
								
									<rect x="379.532" y="298.26" transform="matrix(0.1933 0.9811 -0.9811 0.1933 607.7015 -140.893)" style="fill:#666666;" width="19.99" height="1.663"/>
								
									<rect x="374.718" y="299.208" transform="matrix(0.1933 0.9811 -0.9811 0.1933 604.7502 -135.4037)" style="fill:#666666;" width="19.99" height="1.663"/>
								
									<rect x="377.73" y="301.809" transform="matrix(0.1933 0.9811 -0.9811 0.1933 609.7316 -136.2618)" style="fill:#666666;" width="19.99" height="1.663"/>
								
									<rect x="372.916" y="302.757" transform="matrix(0.1933 0.9811 -0.9811 0.1933 606.7781 -130.7735)" style="fill:#666666;" width="19.99" height="1.663"/>
								
									<rect x="356.987" y="310.356" transform="matrix(0.1933 0.9811 -0.9811 0.1933 601.3818 -109.0142)" style="fill:#666666;" width="19.99" height="1.663"/>
								
									<rect x="365.941" y="300.936" transform="matrix(0.1933 0.9811 -0.9811 0.1933 599.3657 -125.3978)" style="fill:#666666;" width="19.99" height="1.663"/>
								
									<rect x="361.127" y="301.885" transform="matrix(0.1933 0.9811 -0.9811 0.1933 596.4102 -119.9106)" style="fill:#666666;" width="19.99" height="1.663"/>
								
									<rect x="364.14" y="304.486" transform="matrix(0.1932 0.9811 -0.9811 0.1932 601.3958 -120.7666)" style="fill:#666666;" width="19.99" height="1.663"/>
								
									<rect x="359.326" y="305.434" transform="matrix(0.1932 0.9811 -0.9811 0.1932 598.4424 -115.2783)" style="fill:#666666;" width="19.99" height="1.663"/>
								
									<rect x="343.396" y="313.033" transform="matrix(0.1932 0.9811 -0.9811 0.1932 593.046 -93.5189)" style="fill:#666666;" width="19.99" height="1.663"/>
								
									<rect x="352.35" y="303.613" transform="matrix(0.1933 0.9811 -0.9811 0.1933 591.0258 -109.9048)" style="fill:#666666;" width="19.99" height="1.663"/>
								
									<rect x="347.536" y="304.562" transform="matrix(0.1933 0.9811 -0.9811 0.1933 588.0744 -104.4154)" style="fill:#666666;" width="19.99" height="1.663"/>
								
									<rect x="350.549" y="307.163" transform="matrix(0.1932 0.9811 -0.9811 0.1932 593.0579 -105.2724)" style="fill:#666666;" width="19.99" height="1.663"/>
								
									<rect x="345.735" y="308.111" transform="matrix(0.1933 0.9811 -0.9811 0.1933 590.1025 -99.7853)" style="fill:#666666;" width="19.99" height="1.663"/>
								
									<rect x="329.805" y="315.71" transform="matrix(0.1933 0.9811 -0.9811 0.1933 584.7062 -78.0259)" style="fill:#666666;" width="19.99" height="1.663"/>
								
									<rect x="338.759" y="306.29" transform="matrix(0.1933 0.9811 -0.9811 0.1933 582.6899 -94.4095)" style="fill:#666666;" width="19.99" height="1.663"/>
								
									<rect x="333.945" y="307.238" transform="matrix(0.1933 0.9811 -0.9811 0.1933 579.7365 -88.9212)" style="fill:#666666;" width="19.99" height="1.663"/>
								
									<rect x="336.958" y="309.84" transform="matrix(0.1933 0.9811 -0.9811 0.1933 584.718 -89.7794)" style="fill:#666666;" width="19.99" height="1.663"/>
								
									<rect x="332.144" y="310.788" transform="matrix(0.1932 0.9811 -0.9811 0.1932 581.7665 -84.29)" style="fill:#666666;" width="19.99" height="1.663"/>
								
									<rect x="316.214" y="318.386" transform="matrix(0.1932 0.9811 -0.9811 0.1932 576.3702 -62.5306)" style="fill:#666666;" width="19.99" height="1.663"/>
								
									<rect x="325.169" y="308.967" transform="matrix(0.1933 0.9811 -0.9811 0.1933 574.3505 -78.9163)" style="fill:#666666;" width="19.99" height="1.663"/>
								
									<rect x="320.355" y="309.915" transform="matrix(0.1933 0.9811 -0.9811 0.1933 571.3967 -73.4282)" style="fill:#666666;" width="19.99" height="1.663"/>
								
									<rect x="323.367" y="312.517" transform="matrix(0.1932 0.9811 -0.9811 0.1932 576.3821 -74.2841)" style="fill:#666666;" width="19.99" height="1.663"/>
								
									<rect x="318.553" y="313.465" transform="matrix(0.1932 0.9811 -0.9811 0.1932 573.4286 -68.7958)" style="fill:#666666;" width="19.99" height="1.663"/>
								
									<rect x="302.624" y="321.063" transform="matrix(0.1932 0.9811 -0.9811 0.1932 568.0322 -47.0364)" style="fill:#666666;" width="19.99" height="1.663"/>
								
									<rect x="311.578" y="311.644" transform="matrix(0.1932 0.9811 -0.9811 0.1932 566.0145 -63.421)" style="fill:#666666;" width="19.99" height="1.663"/>
								
									<rect x="306.764" y="312.592" transform="matrix(0.1933 0.9811 -0.9811 0.1933 563.0607 -57.9329)" style="fill:#666666;" width="19.99" height="1.663"/>
								
									<rect x="309.777" y="315.194" transform="matrix(0.1933 0.9811 -0.9811 0.1933 568.0423 -58.7912)" style="fill:#666666;" width="19.99" height="1.663"/>
								
									<rect x="304.963" y="316.142" transform="matrix(0.1933 0.9811 -0.9811 0.1933 565.0889 -53.3029)" style="fill:#666666;" width="19.99" height="1.663"/>
								
									<rect x="289.033" y="323.74" transform="matrix(0.1933 0.9811 -0.9811 0.1933 559.6926 -31.5435)" style="fill:#666666;" width="19.99" height="1.663"/>
								
									<rect x="297.987" y="314.321" transform="matrix(0.1932 0.9811 -0.9811 0.1932 557.6765 -47.9268)" style="fill:#666666;" width="19.99" height="1.663"/>
								
									<rect x="293.173" y="315.269" transform="matrix(0.1933 0.9811 -0.9811 0.1933 554.7211 -42.44)" style="fill:#666666;" width="19.99" height="1.663"/>
								
									<rect x="296.186" y="317.871" transform="matrix(0.1932 0.9811 -0.9811 0.1932 559.7062 -43.2958)" style="fill:#666666;" width="19.99" height="1.663"/>
								
									<rect x="291.372" y="318.819" transform="matrix(0.1932 0.9811 -0.9811 0.1932 556.7528 -37.8075)" style="fill:#666666;" width="19.99" height="1.663"/>
								
									<rect x="275.442" y="326.417" transform="matrix(0.1932 0.9811 -0.9811 0.1932 551.3564 -16.0481)" style="fill:#666666;" width="19.99" height="1.663"/>
								
									<rect x="284.396" y="316.998" transform="matrix(0.1933 0.9811 -0.9811 0.1933 549.3369 -32.4339)" style="fill:#666666;" width="19.99" height="1.663"/>
								
									<rect x="279.582" y="317.946" transform="matrix(0.1933 0.9811 -0.9811 0.1933 546.3849 -26.9446)" style="fill:#666666;" width="19.99" height="1.663"/>
								
									<rect x="282.595" y="320.548" transform="matrix(0.1932 0.9811 -0.9811 0.1932 551.3683 -27.8016)" style="fill:#666666;" width="19.99" height="1.663"/>
								
									<rect x="277.781" y="321.496" transform="matrix(0.1933 0.9811 -0.9811 0.1933 548.4132 -22.3146)" style="fill:#666666;" width="19.99" height="1.663"/>
							</g>
							<g>
								
									<rect x="486.453" y="323.01" transform="matrix(-0.1933 -0.9811 0.9811 -0.1933 274.6498 873.5138)" style="fill:#666666;" width="19.99" height="1.663"/>
								
									<rect x="472.947" y="325.67" transform="matrix(-0.1933 -0.9811 0.9811 -0.1933 255.9256 863.4375)" style="fill:#666666;" width="19.99" height="1.663"/>
								
									<rect x="484.805" y="330.99" transform="matrix(-0.1933 -0.9811 0.9811 -0.1933 264.8548 881.4197)" style="fill:#666666;" width="19.99" height="1.663"/>
								
									<rect x="479.99" y="331.938" transform="matrix(-0.1932 -0.9811 0.9811 -0.1932 258.1775 877.8267)" style="fill:#666666;" width="19.99" height="1.663"/>
								
									<rect x="481.792" y="328.389" transform="matrix(-0.1932 -0.9811 0.9811 -0.1932 263.8096 875.3582)" style="fill:#666666;" width="19.99" height="1.663"/>
								
									<rect x="476.978" y="329.337" transform="matrix(-0.1933 -0.9811 0.9811 -0.1933 257.1376 871.7675)" style="fill:#666666;" width="19.99" height="1.663"/>
								
									<rect x="459.356" y="328.347" transform="matrix(-0.1932 -0.9811 0.9811 -0.1932 237.0794 853.296)" style="fill:#666666;" width="19.99" height="1.663"/>
								
									<rect x="471.214" y="333.667" transform="matrix(-0.1932 -0.9811 0.9811 -0.1932 246.0085 871.2782)" style="fill:#666666;" width="19.99" height="1.663"/>
								
									<rect x="466.4" y="334.615" transform="matrix(-0.1932 -0.9811 0.9811 -0.1932 239.3338 867.6863)" style="fill:#666666;" width="19.99" height="1.663"/>
								
									<rect x="468.201" y="331.065" transform="matrix(-0.1933 -0.9811 0.9811 -0.1933 244.9686 865.2189)" style="fill:#666666;" width="19.99" height="1.663"/>
								
									<rect x="463.387" y="332.014" transform="matrix(-0.1932 -0.9811 0.9811 -0.1932 238.2913 861.626)" style="fill:#666666;" width="19.99" height="1.663"/>
								
									<rect x="445.766" y="331.024" transform="matrix(-0.1933 -0.9811 0.9811 -0.1933 218.2383 843.1568)" style="fill:#666666;" width="19.99" height="1.663"/>
								
									<rect x="457.623" y="336.344" transform="matrix(-0.1933 -0.9811 0.9811 -0.1933 227.1675 861.139)" style="fill:#666666;" width="19.99" height="1.663"/>
								
									<rect x="452.809" y="337.292" transform="matrix(-0.1933 -0.9811 0.9811 -0.1933 220.4928 857.5471)" style="fill:#666666;" width="19.99" height="1.663"/>
								
									<rect x="454.61" y="333.742" transform="matrix(-0.1932 -0.9811 0.9811 -0.1932 226.1224 855.0775)" style="fill:#666666;" width="19.99" height="1.663"/>
								
									<rect x="449.796" y="334.691" transform="matrix(-0.1933 -0.9811 0.9811 -0.1933 219.4503 851.4868)" style="fill:#666666;" width="19.99" height="1.663"/>
								
									<rect x="432.175" y="333.701" transform="matrix(-0.1933 -0.9811 0.9811 -0.1933 199.3946 833.0165)" style="fill:#666666;" width="19.99" height="1.663"/>
								
									<rect x="444.032" y="339.021" transform="matrix(-0.1933 -0.9811 0.9811 -0.1933 208.3238 850.9987)" style="fill:#666666;" width="19.99" height="1.663"/>
								
									<rect x="439.218" y="339.969" transform="matrix(-0.1932 -0.9811 0.9811 -0.1932 201.6466 847.4056)" style="fill:#666666;" width="19.99" height="1.663"/>
								
									<rect x="441.019" y="336.419" transform="matrix(-0.1933 -0.9811 0.9811 -0.1933 207.2813 844.9383)" style="fill:#666666;" width="19.99" height="1.663"/>
								
									<rect x="436.205" y="337.367" transform="matrix(-0.1933 -0.9811 0.9811 -0.1933 200.6065 841.3464)" style="fill:#666666;" width="19.99" height="1.663"/>
								
									<rect x="418.584" y="336.378" transform="matrix(-0.1932 -0.9811 0.9811 -0.1932 180.5486 822.8749)" style="fill:#666666;" width="19.99" height="1.663"/>
								
									<rect x="430.441" y="341.698" transform="matrix(-0.1932 -0.9811 0.9811 -0.1932 189.4777 840.8571)" style="fill:#666666;" width="19.99" height="1.663"/>
								
									<rect x="425.627" y="342.646" transform="matrix(-0.1933 -0.9811 0.9811 -0.1933 182.8054 837.2665)" style="fill:#666666;" width="19.99" height="1.663"/>
								
									<rect x="427.429" y="339.096" transform="matrix(-0.1932 -0.9811 0.9811 -0.1932 188.4352 834.7968)" style="fill:#666666;" width="19.99" height="1.663"/>
								
									<rect x="422.615" y="340.044" transform="matrix(-0.1932 -0.9811 0.9811 -0.1932 181.7605 831.2048)" style="fill:#666666;" width="19.99" height="1.663"/>
								
									<rect x="404.993" y="339.055" transform="matrix(-0.1933 -0.9811 0.9811 -0.1933 161.7073 812.7358)" style="fill:#666666;" width="19.99" height="1.663"/>
								
									<rect x="416.851" y="344.375" transform="matrix(-0.1933 -0.9811 0.9811 -0.1933 170.6365 830.718)" style="fill:#666666;" width="19.99" height="1.663"/>
								
									<rect x="412.037" y="345.323" transform="matrix(-0.1932 -0.9811 0.9811 -0.1932 163.9594 827.1249)" style="fill:#666666;" width="19.99" height="1.663"/>
								
									<rect x="413.838" y="341.773" transform="matrix(-0.1932 -0.9811 0.9811 -0.1932 169.5916 824.6564)" style="fill:#666666;" width="19.99" height="1.663"/>
								
									<rect x="409.024" y="342.721" transform="matrix(-0.1933 -0.9811 0.9811 -0.1933 162.9192 821.0657)" style="fill:#666666;" width="19.99" height="1.663"/>
								
									<rect x="391.402" y="341.731" transform="matrix(-0.1932 -0.9811 0.9811 -0.1932 142.8614 802.5942)" style="fill:#666666;" width="19.99" height="1.663"/>
								
									<rect x="403.26" y="347.052" transform="matrix(-0.1932 -0.9811 0.9811 -0.1932 151.7905 820.5764)" style="fill:#666666;" width="19.99" height="1.663"/>
								
									<rect x="398.446" y="348" transform="matrix(-0.1932 -0.9811 0.9811 -0.1932 145.1158 816.9845)" style="fill:#666666;" width="19.99" height="1.663"/>
								
									<rect x="400.247" y="344.45" transform="matrix(-0.1933 -0.9811 0.9811 -0.1933 150.7503 814.5173)" style="fill:#666666;" width="19.99" height="1.663"/>
								
									<rect x="395.433" y="345.398" transform="matrix(-0.1932 -0.9811 0.9811 -0.1932 144.0733 810.9241)" style="fill:#666666;" width="19.99" height="1.663"/>
								
									<rect x="377.812" y="344.408" transform="matrix(-0.1933 -0.9811 0.9811 -0.1933 124.02 792.4551)" style="fill:#666666;" width="19.99" height="1.663"/>
								
									<rect x="389.669" y="349.728" transform="matrix(-0.1933 -0.9811 0.9811 -0.1933 132.9492 810.4374)" style="fill:#666666;" width="19.99" height="1.663"/>
								
									<rect x="384.855" y="350.677" transform="matrix(-0.1933 -0.9811 0.9811 -0.1933 126.2744 806.8455)" style="fill:#666666;" width="19.99" height="1.663"/>
								
									<rect x="386.656" y="347.127" transform="matrix(-0.1932 -0.9811 0.9811 -0.1932 131.9044 804.3757)" style="fill:#666666;" width="19.99" height="1.663"/>
								
									<rect x="381.842" y="348.075" transform="matrix(-0.1933 -0.9811 0.9811 -0.1933 125.2319 800.7851)" style="fill:#666666;" width="19.99" height="1.663"/>
								
									<rect x="364.221" y="347.085" transform="matrix(-0.1932 -0.9811 0.9811 -0.1932 105.1742 782.3135)" style="fill:#666666;" width="19.99" height="1.663"/>
								
									<rect x="376.078" y="352.405" transform="matrix(-0.1932 -0.9811 0.9811 -0.1932 114.1033 800.2957)" style="fill:#666666;" width="19.99" height="1.663"/>
								
									<rect x="371.264" y="353.354" transform="matrix(-0.1932 -0.9811 0.9811 -0.1932 107.4286 796.7038)" style="fill:#666666;" width="19.99" height="1.663"/>
								
									<rect x="373.066" y="349.804" transform="matrix(-0.1933 -0.9811 0.9811 -0.1933 113.063 794.2366)" style="fill:#666666;" width="19.99" height="1.663"/>
								
									<rect x="368.252" y="350.752" transform="matrix(-0.1932 -0.9811 0.9811 -0.1932 106.3861 790.6434)" style="fill:#666666;" width="19.99" height="1.663"/>
								
									<rect x="350.63" y="349.762" transform="matrix(-0.1932 -0.9811 0.9811 -0.1932 86.3305 772.1731)" style="fill:#666666;" width="19.99" height="1.663"/>
								
									<rect x="362.488" y="355.082" transform="matrix(-0.1932 -0.9811 0.9811 -0.1932 95.2597 790.1553)" style="fill:#666666;" width="19.99" height="1.663"/>
								
									<rect x="357.674" y="356.03" transform="matrix(-0.1933 -0.9811 0.9811 -0.1933 88.5871 786.5648)" style="fill:#666666;" width="19.99" height="1.663"/>
								
									<rect x="359.475" y="352.481" transform="matrix(-0.1932 -0.9811 0.9811 -0.1932 94.2172 784.095)" style="fill:#666666;" width="19.99" height="1.663"/>
								
									<rect x="354.661" y="353.429" transform="matrix(-0.1932 -0.9811 0.9811 -0.1932 87.5424 780.5031)" style="fill:#666666;" width="19.99" height="1.663"/>
								
									<rect x="337.039" y="352.439" transform="matrix(-0.1933 -0.9811 0.9811 -0.1933 67.489 762.0341)" style="fill:#666666;" width="19.99" height="1.663"/>
								
									<rect x="348.897" y="357.759" transform="matrix(-0.1933 -0.9811 0.9811 -0.1933 76.4182 780.0164)" style="fill:#666666;" width="19.99" height="1.663"/>
								
									<rect x="344.083" y="358.707" transform="matrix(-0.1932 -0.9811 0.9811 -0.1932 69.7414 776.4231)" style="fill:#666666;" width="19.99" height="1.663"/>
								
									<rect x="345.884" y="355.158" transform="matrix(-0.1932 -0.9811 0.9811 -0.1932 75.3735 773.9546)" style="fill:#666666;" width="19.99" height="1.663"/>
								
									<rect x="341.07" y="356.106" transform="matrix(-0.1933 -0.9811 0.9811 -0.1933 68.7009 770.3641)" style="fill:#666666;" width="19.99" height="1.663"/>
								
									<rect x="323.449" y="355.116" transform="matrix(-0.1932 -0.9811 0.9811 -0.1932 48.6433 751.8924)" style="fill:#666666;" width="19.99" height="1.663"/>
								
									<rect x="335.306" y="360.436" transform="matrix(-0.1932 -0.9811 0.9811 -0.1932 57.5725 769.8746)" style="fill:#666666;" width="19.99" height="1.663"/>
								
									<rect x="330.492" y="361.384" transform="matrix(-0.1933 -0.9811 0.9811 -0.1933 50.8998 766.2842)" style="fill:#666666;" width="19.99" height="1.663"/>
								
									<rect x="332.293" y="357.835" transform="matrix(-0.1933 -0.9811 0.9811 -0.1933 56.5319 763.8156)" style="fill:#666666;" width="19.99" height="1.663"/>
								
									<rect x="327.479" y="358.783" transform="matrix(-0.1932 -0.9811 0.9811 -0.1932 49.8553 760.2224)" style="fill:#666666;" width="19.99" height="1.663"/>
								
									<rect x="309.858" y="357.793" transform="matrix(-0.1933 -0.9811 0.9811 -0.1933 29.8016 741.7535)" style="fill:#666666;" width="19.99" height="1.663"/>
								
									<rect x="321.715" y="363.113" transform="matrix(-0.1933 -0.9811 0.9811 -0.1933 38.7308 759.7357)" style="fill:#666666;" width="19.99" height="1.663"/>
								
									<rect x="316.901" y="364.061" transform="matrix(-0.1933 -0.9811 0.9811 -0.1933 32.0561 756.1438)" style="fill:#666666;" width="19.99" height="1.663"/>
								
									<rect x="318.703" y="360.511" transform="matrix(-0.1932 -0.9811 0.9811 -0.1932 37.6863 753.6739)" style="fill:#666666;" width="19.99" height="1.663"/>
								
									<rect x="313.889" y="361.46" transform="matrix(-0.1933 -0.9811 0.9811 -0.1933 31.0136 750.0834)" style="fill:#666666;" width="19.99" height="1.663"/>
								
									<rect x="296.267" y="360.47" transform="matrix(-0.1932 -0.9811 0.9811 -0.1932 10.9562 731.6117)" style="fill:#666666;" width="19.99" height="1.663"/>
								
									<rect x="308.125" y="365.79" transform="matrix(-0.1932 -0.9811 0.9811 -0.1932 19.8853 749.5939)" style="fill:#666666;" width="19.99" height="1.663"/>
								
									<rect x="303.311" y="366.738" transform="matrix(-0.1932 -0.9811 0.9811 -0.1932 13.2106 746.002)" style="fill:#666666;" width="19.99" height="1.663"/>
								
									<rect x="305.112" y="363.188" transform="matrix(-0.1933 -0.9811 0.9811 -0.1933 18.8446 743.535)" style="fill:#666666;" width="19.99" height="1.663"/>
								
									<rect x="300.298" y="364.137" transform="matrix(-0.1932 -0.9811 0.9811 -0.1932 12.1681 739.9417)" style="fill:#666666;" width="19.99" height="1.663"/>
								
									<rect x="282.676" y="363.147" transform="matrix(-0.1932 -0.9811 0.9811 -0.1932 -7.8875 721.4713)" style="fill:#666666;" width="19.99" height="1.663"/>
								
									<rect x="294.534" y="368.467" transform="matrix(-0.1932 -0.9811 0.9811 -0.1932 1.0416 739.4535)" style="fill:#666666;" width="19.99" height="1.663"/>
								
									<rect x="289.72" y="369.415" transform="matrix(-0.1933 -0.9811 0.9811 -0.1933 -5.6312 735.8632)" style="fill:#666666;" width="19.99" height="1.663"/>
								
									<rect x="291.521" y="365.865" transform="matrix(-0.1932 -0.9811 0.9811 -0.1932 -8.393612e-04 733.3932)" style="fill:#666666;" width="19.99" height="1.663"/>
								
									<rect x="286.707" y="366.813" transform="matrix(-0.1932 -0.9811 0.9811 -0.1932 -6.6756 729.8013)" style="fill:#666666;" width="19.99" height="1.663"/>
							</g>
						</g>
					</g>
				</g>
				<path style="fill:#FFCEBF;" d="M284.287,321.993c0,0-1.985,1.913-1.71,3.194c0.274,1.28-0.061,1.793-0.58,1.29
					c-0.52-0.504-0.806-1.631-0.806-1.631s-3.532,2.661-4.168,2.486c-0.636-0.175,0.37-0.937,0.37-0.937s-1.34,0.921-1.753,0.663
					c-0.412-0.258,0.78-1.101,0.78-1.101s-0.816,0.395-0.998,0.188c-0.17-0.193,0.395-0.821,1.042-1.187
					c0,0-0.567,0.428-0.887,0.113c-0.18-0.177,0.404-0.653,0.968-1.148c1.484-1.303,2.799-3.159,5.211-3.285l2.794-2.238
					L284.287,321.993z"/>
				<path style="fill:#FFCEBF;" d="M378.28,277.391c0,0,1.376-5.544-1.058-4.988s-3.199,6.886-1.043,7.79
					C378.335,281.097,378.28,277.391,378.28,277.391z"/>
				<path style="fill:#FCF3F2;" d="M285.789,321.681l-1.11,1.114c0,0-2.144-1.954-2.256-4.151l4.453-3.252L285.789,321.681z"/>
				<path style="fill:#4360AA;" d="M285.784,322.87l-3.002-5.316l32.033-24.619c0.941-0.723,2.072-1.217,3.278-1.433h0
					c5.604-1.002,10.903,2.22,11.812,7.181l1.374,7.5L285.784,322.87z"/>
			</g>
		</g>
	</g>
	<g>
		<text transform="matrix(1 0 0 1 320.6634 179.1421)" style="fill:#616EAD; font-family:'Poppins-Bold'; font-size:18.398px;">WORKSHOP</text>
		
			<text transform="matrix(1 0 0 1 335.2298 162.3931)" style="fill:#616EAD; font-family:'Nickainley-Normal'; font-size:27.0027px;">Creative</text>
		<rect x="339.584" y="184.51" style="fill:#616EAD;" width="69.386" height="0.556"/>
	</g>
</g>
</svg>
