<?xml version="1.0" encoding="utf-8"?>
<!-- Generator: Adobe Illustrator 27.5.0, SVG Export Plug-In . SVG Version: 6.00 Build 0)  -->
<svg version="1.1" xmlns="http://www.w3.org/2000/svg" xmlns:xlink="http://www.w3.org/1999/xlink" x="0px" y="0px"
	 viewBox="0 0 1870 1122" style="enable-background:new 0 0 1870 1122;" xml:space="preserve">
<g id="BG">
	<rect style="fill:#FFFFFF;" width="1870" height="1122"/>
</g>
<g id="Objects">
	<g id="XMLID_3085_">
		<path style="fill:#CFD1D2;" d="M127.721,254.204C90.379,254.204,60,223.824,60,186.483s30.379-67.72,67.721-67.72
			c37.341,0,67.721,30.379,67.721,67.72S165.062,254.204,127.721,254.204z M127.721,125.446c-33.656,0-61.037,27.381-61.037,61.037
			c0,33.656,27.381,61.037,61.037,61.037c33.656,0,61.037-27.381,61.037-61.037C188.758,152.827,161.376,125.446,127.721,125.446z"
			/>
	</g>
	<g id="XMLID_3081_">
		<g id="XMLID_3082_">
			<path id="XMLID_3083_" style="fill:#DFE3E8;" d="M511.271,1025.545H335.867V850.141h175.404V1025.545z"/>
		</g>
	</g>
	<g id="XMLID_3079_">
		<circle id="XMLID_3080_" style="fill:#DFAAAE;" cx="1410.272" cy="251.049" r="53.203"/>
	</g>
	<g id="XMLID_3077_">
		<path id="XMLID_3078_" style="fill:#DFAAAE;" d="M1470.626,247.231c0.079,1.263,0.123,2.535,0.123,3.818
			c0,33.401-27.077,60.478-60.478,60.478s-60.478-27.077-60.478-60.478c0-33.401,27.077-60.478,60.478-60.478v-39.74
			c-55.349,0-100.217,44.869-100.217,100.217s44.869,100.217,100.217,100.217s100.217-44.869,100.217-100.217
			c0-1.279-0.032-2.551-0.08-3.818H1470.626z"/>
	</g>
	<g id="XMLID_3046_">
		<g id="XMLID_3074_">
			<path style="fill:#CFD1D2;" d="M957.348,967.134c-54.612,0-107.592-10.697-157.469-31.793
				c-48.174-20.376-91.437-49.544-128.589-86.696c-37.152-37.152-66.32-80.415-86.696-128.589
				c-21.096-49.876-31.792-102.857-31.792-157.469c0-54.612,10.697-107.592,31.792-157.469
				c20.376-48.173,49.544-91.437,86.696-128.589c37.152-37.152,80.415-66.32,128.589-86.696
				c49.876-21.096,102.857-31.792,157.469-31.792c54.612,0,107.592,10.697,157.469,31.792
				c48.174,20.376,91.437,49.545,128.588,86.696c37.152,37.152,66.321,80.415,86.697,128.589
				c21.096,49.877,31.793,102.857,31.793,157.469c0,54.612-10.697,107.592-31.793,157.469
				c-20.376,48.174-49.544,91.437-86.697,128.589c-37.152,37.152-80.415,66.32-128.588,86.696
				C1064.94,956.437,1011.96,967.134,957.348,967.134z M957.348,165.318c-53.633,0-105.659,10.503-154.634,31.218
				c-47.306,20.009-89.793,48.654-126.278,85.14c-36.486,36.486-65.131,78.972-85.14,126.278
				c-20.714,48.975-31.218,101.002-31.218,154.635s10.503,105.659,31.218,154.634c20.009,47.306,48.654,89.793,85.14,126.278
				c36.486,36.486,78.972,65.131,126.278,85.14c48.975,20.714,101.002,31.218,154.634,31.218
				c53.633,0,105.659-10.504,154.635-31.218c47.306-20.009,89.793-48.654,126.278-85.14c36.486-36.486,65.131-78.972,85.14-126.278
				c20.714-48.975,31.218-101.001,31.218-154.634s-10.504-105.659-31.218-154.635c-20.009-47.306-48.654-89.792-85.14-126.278
				c-36.486-36.486-78.972-65.131-126.278-85.14C1063.008,175.821,1010.981,165.318,957.348,165.318z"/>
		</g>
		<g id="XMLID_3071_">
			<path style="fill:#CFD1D2;" d="M957.348,912.565c-47.245,0-93.079-9.254-136.228-27.504
				c-41.676-17.628-79.104-42.862-111.244-75.002c-32.14-32.14-57.374-69.568-75.002-111.243
				c-18.251-43.149-27.504-88.983-27.504-136.228c0-47.245,9.254-93.079,27.504-136.228c17.628-41.676,42.862-79.103,75.002-111.244
				c32.14-32.14,69.568-57.374,111.244-75.002c43.149-18.251,88.983-27.504,136.228-27.504s93.079,9.254,136.228,27.504
				c41.676,17.628,79.103,42.862,111.244,75.002c32.14,32.141,57.374,69.568,75.002,111.244
				c18.251,43.149,27.504,88.983,27.504,136.228h-7.276c0-46.266-9.06-91.146-26.929-133.394
				c-17.261-40.808-41.971-77.459-73.446-108.933c-31.474-31.474-68.125-56.185-108.933-73.445
				c-42.248-17.869-87.128-26.929-133.394-26.929c-46.266,0-91.146,9.06-133.393,26.929
				c-40.808,17.261-77.459,41.971-108.933,73.445c-31.474,31.474-56.185,68.125-73.445,108.933
				c-17.869,42.248-26.93,87.128-26.93,133.394c0,46.266,9.06,91.146,26.93,133.394c17.261,40.808,41.971,77.458,73.445,108.932
				c31.474,31.474,68.125,56.185,108.933,73.445c42.247,17.869,87.127,26.93,133.393,26.93V912.565z"/>
		</g>
		<g id="XMLID_3068_">
			<path style="fill:#CFD1D2;" d="M957.348,942.33c-51.263,0-100.995-10.041-147.814-29.844
				c-45.219-19.126-85.831-46.507-120.704-81.38c-34.874-34.873-62.254-75.485-81.38-120.704
				c-19.802-46.819-29.843-96.551-29.843-147.814h7.276c0,50.284,9.848,99.063,29.269,144.98
				c18.76,44.352,45.617,84.186,79.824,118.393c34.208,34.208,74.041,61.065,118.393,79.824
				c45.917,19.421,94.695,29.269,144.98,29.269c50.284,0,99.063-9.848,144.98-29.269c44.352-18.76,84.186-45.617,118.394-79.824
				c34.208-34.208,61.065-74.041,79.824-118.393c19.421-45.917,29.269-94.695,29.269-144.98c0-50.284-9.848-99.063-29.269-144.98
				c-18.759-44.352-45.616-84.186-79.824-118.394c-34.208-34.208-74.042-61.065-118.394-79.824
				c-45.917-19.421-94.696-29.269-144.98-29.269v-7.276c51.263,0,100.995,10.041,147.814,29.844
				c45.22,19.126,85.831,46.507,120.705,81.38c34.874,34.874,62.254,75.485,81.38,120.705
				c19.802,46.819,29.843,96.551,29.843,147.814s-10.041,100.995-29.843,147.814c-19.126,45.219-46.507,85.831-81.38,120.704
				c-34.873,34.874-75.485,62.254-120.705,81.38C1058.344,932.289,1008.612,942.33,957.348,942.33z"/>
		</g>
		<g id="XMLID_3065_">
			<path style="fill:#CFD1D2;" d="M943.158,204.311c-9.831,0-17.828-7.997-17.828-17.828c0-9.83,7.997-17.828,17.828-17.828
				c9.831,0,17.828,7.997,17.828,17.828C960.986,196.314,952.989,204.311,943.158,204.311z M943.158,175.931
				c-5.818,0-10.552,4.734-10.552,10.552c0,5.818,4.734,10.552,10.552,10.552s10.552-4.734,10.552-10.552
				C953.71,180.665,948.976,175.931,943.158,175.931z"/>
		</g>
		<g id="XMLID_3062_">
			<path style="fill:#CFD1D2;" d="M1303.688,594.605c-9.831,0-17.828-7.997-17.828-17.828c0-9.831,7.997-17.828,17.828-17.828
				c9.83,0,17.828,7.997,17.828,17.828C1321.516,586.608,1313.519,594.605,1303.688,594.605z M1303.688,566.226
				c-5.818,0-10.552,4.734-10.552,10.552c0,5.818,4.734,10.552,10.552,10.552c5.818,0,10.552-4.734,10.552-10.552
				C1314.24,570.959,1309.506,566.226,1303.688,566.226z"/>
		</g>
		<g id="XMLID_3059_">
			<path style="fill:#CFD1D2;" d="M970.08,924.809c-9.831,0-17.828-7.997-17.828-17.828c0-9.831,7.997-17.828,17.828-17.828
				c9.831,0,17.828,7.997,17.828,17.828C987.908,916.811,979.911,924.809,970.08,924.809z M970.08,896.429
				c-5.818,0-10.552,4.734-10.552,10.552s4.734,10.552,10.552,10.552c5.818,0,10.552-4.734,10.552-10.552
				S975.898,896.429,970.08,896.429z"/>
		</g>
		<g id="XMLID_3056_">
			<path style="fill:#CFD1D2;" d="M581.972,568.279c-9.831,0-17.828-7.997-17.828-17.828c0-9.831,7.997-17.828,17.828-17.828
				s17.828,7.997,17.828,17.828C599.8,560.281,591.802,568.279,581.972,568.279z M581.972,539.899
				c-5.818,0-10.552,4.734-10.552,10.552c0,5.818,4.734,10.552,10.552,10.552c5.818,0,10.552-4.734,10.552-10.552
				C592.524,544.633,587.79,539.899,581.972,539.899z"/>
		</g>
		<g id="XMLID_3050_">
			<g id="XMLID_1011_">
				<path style="fill:#CFD1D2;" d="M1306.208,567.411l-5.093-0.063c0.018-1.443,0.027-2.888,0.027-4.335h5.093
					C1306.235,564.481,1306.226,565.946,1306.208,567.411z"/>
			</g>
			<g id="XMLID_1010_">
				<path style="fill:#CFD1D2;" d="M968.871,913.529l-0.19-5.089c2.899-0.109,5.838-0.256,8.736-0.438l0.318,5.083
					C974.795,913.269,971.813,913.419,968.871,913.529z M986.598,912.418l-0.446-5.073c2.884-0.254,5.816-0.549,8.714-0.877
					l0.574,5.061C992.498,911.862,989.524,912.161,986.598,912.418z M1004.255,910.415l-0.702-5.045
					c2.869-0.399,5.781-0.842,8.658-1.317l0.83,5.025C1010.121,909.561,1007.166,910.01,1004.255,910.415z M1021.789,907.52
					l-0.956-5.002c2.852-0.546,5.739-1.136,8.579-1.756l1.086,4.977C1027.615,906.367,1024.685,906.966,1021.789,907.52z
					 M1039.156,903.735l-1.211-4.947c2.835-0.694,5.688-1.432,8.478-2.191l1.337,4.914
					C1044.93,902.282,1042.034,903.031,1039.156,903.735z M1056.305,899.069l-1.461-4.879c2.771-0.83,5.582-1.712,8.355-2.621
					l1.586,4.84C1061.971,897.333,1059.117,898.227,1056.305,899.069z M1073.195,893.535l-1.708-4.798
					c2.728-0.971,5.49-1.995,8.211-3.043l1.831,4.752C1078.767,891.51,1075.963,892.549,1073.195,893.535z M1089.752,887.157
					l-1.951-4.704c2.677-1.111,5.375-2.27,8.021-3.447l2.07,4.654C1095.207,884.854,1092.469,886.031,1089.752,887.157z
					 M1105.943,879.955l-2.188-4.599c2.623-1.248,5.261-2.544,7.84-3.852l2.304,4.543
					C1111.281,877.374,1108.605,878.688,1105.943,879.955z M1121.753,871.937l-2.417-4.484c2.543-1.371,5.113-2.8,7.638-4.245
					l2.531,4.42C1126.942,869.096,1124.334,870.545,1121.753,871.937z M1137.146,863.124l-2.642-4.354
					c2.469-1.497,4.964-3.055,7.417-4.629l2.751,4.286C1142.183,860.024,1139.651,861.604,1137.146,863.124z M1152.08,853.541
					l-2.859-4.215c2.405-1.631,4.82-3.314,7.177-5l2.963,4.143C1156.971,850.179,1154.521,851.886,1152.08,853.541z
					 M1166.513,843.212l-3.067-4.066c2.321-1.752,4.649-3.554,6.918-5.358l3.169,3.988
					C1171.231,839.606,1168.87,841.435,1166.513,843.212z M1180.416,832.164l-3.269-3.907c2.233-1.868,4.467-3.786,6.642-5.701
					l3.365,3.823C1184.949,828.322,1182.681,830.268,1180.416,832.164z M1193.748,820.426l-3.46-3.737
					c2.122-1.964,4.258-3.993,6.348-6.029l3.554,3.648C1198.069,816.374,1195.901,818.432,1193.748,820.426z M1206.477,808.029
					l-3.644-3.558c2.03-2.079,4.062-4.214,6.038-6.343l3.733,3.465C1210.599,803.754,1208.537,805.919,1206.477,808.029z
					 M1218.569,795.002l-3.819-3.37c1.919-2.175,3.841-4.41,5.713-6.642l3.902,3.273
					C1222.467,790.528,1220.517,792.795,1218.569,795.002z M1229.993,781.378l-3.983-3.173c1.808-2.269,3.615-4.598,5.373-6.923
					l4.063,3.071C1233.663,776.712,1231.828,779.076,1229.993,781.378z M1240.719,767.19l-4.14-2.967
					c1.703-2.376,3.391-4.795,5.018-7.189l4.214,2.862C1244.161,762.326,1242.447,764.78,1240.719,767.19z M1250.718,752.475
					l-4.285-2.754c1.573-2.447,3.137-4.948,4.649-7.436l4.353,2.645C1253.9,747.455,1252.313,749.993,1250.718,752.475z
					 M1259.96,737.264l-4.418-2.534c1.445-2.518,2.88-5.097,4.268-7.665l4.481,2.422
					C1262.883,732.091,1261.426,734.708,1259.96,737.264z M1268.422,721.599l-4.542-2.306c1.323-2.605,2.626-5.255,3.873-7.874
					l4.599,2.188C1271.087,716.267,1269.765,718.955,1268.422,721.599z M1276.08,705.515l-4.654-2.071
					c1.187-2.667,2.353-5.38,3.468-8.066l4.704,1.952C1278.468,700.055,1277.284,702.809,1276.08,705.515z M1282.909,689.054
					l-4.754-1.83c1.052-2.729,2.078-5.5,3.053-8.237l4.798,1.708C1285.017,683.472,1283.975,686.285,1282.909,689.054z
					 M1288.889,672.258l-4.84-1.585c0.907-2.771,1.791-5.592,2.628-8.387l4.879,1.461
					C1290.706,666.583,1289.809,669.446,1288.889,672.258z M1293.995,655.2l-4.916-1.334c0.762-2.804,1.498-5.657,2.187-8.48
					l4.948,1.209C1295.515,649.46,1294.768,652.355,1293.995,655.2z M1298.215,637.935l-4.977-1.081
					c0.621-2.858,1.211-5.745,1.752-8.58l5.002,0.955C1299.444,632.105,1298.846,635.034,1298.215,637.935z M1301.551,620.478
					l-5.025-0.828c0.471-2.859,0.914-5.773,1.314-8.658l5.045,0.701C1302.478,614.62,1302.03,617.576,1301.551,620.478z
					 M1303.995,602.876l-5.061-0.574c0.325-2.871,0.62-5.802,0.875-8.714l5.073,0.445
					C1304.623,596.987,1304.325,599.962,1303.995,602.876z M1305.546,585.171l-5.083-0.317c0.181-2.9,0.328-5.842,0.435-8.746
					l5.09,0.189C1305.879,579.243,1305.73,582.229,1305.546,585.171z"/>
			</g>
			<g id="XMLID_1009_">
				<path style="fill:#CFD1D2;" d="M955.467,913.781v-5.093c1.448,0,2.893-0.009,4.336-0.026l0.06,5.093
					C958.4,913.772,956.935,913.781,955.467,913.781z"/>
			</g>
		</g>
		<g id="XMLID_3047_">
			<path style="fill:#CFD1D2;" d="M583.791,562.588h-5.093c0-2.903,0.033-5.858,0.1-8.785l5.092,0.115
				C583.824,556.806,583.791,559.723,583.791,562.588z M584.186,545.251l-5.088-0.232c0.132-2.91,0.301-5.861,0.501-8.773
				l5.082,0.35C584.484,539.469,584.317,542.381,584.186,545.251z M585.375,527.953l-5.072-0.466c0.267-2.9,0.571-5.84,0.905-8.741
				l5.06,0.583C585.938,522.19,585.638,525.092,585.375,527.953z M587.361,510.728l-5.045-0.701
				c0.397-2.861,0.838-5.785,1.309-8.689l5.028,0.816C588.188,505.02,587.753,507.904,587.361,510.728z M590.145,493.614
				l-5.007-0.935c0.536-2.876,1.113-5.775,1.712-8.619l4.984,1.05C591.243,487.915,590.675,490.776,590.145,493.614z
				 M593.724,476.648l-4.958-1.167c0.669-2.844,1.381-5.714,2.115-8.532l4.928,1.283
				C595.085,471.012,594.384,473.843,593.724,476.648z M598.091,459.867l-4.899-1.397c0.799-2.802,1.644-5.636,2.511-8.424
				l4.863,1.512C599.712,454.308,598.879,457.103,598.091,459.867z M603.248,443.28l-4.828-1.626
				c0.939-2.788,1.92-5.589,2.914-8.325l4.786,1.739C605.141,437.767,604.174,440.529,603.248,443.28z M609.185,426.928l-4.745-1.85
				c1.06-2.719,2.17-5.469,3.298-8.174l4.701,1.96C611.326,421.532,610.232,424.245,609.185,426.928z M615.88,410.88l-4.653-2.071
				c1.186-2.665,2.422-5.358,3.675-8.007l4.604,2.179C618.271,405.593,617.051,408.251,615.88,410.88z M623.316,395.169
				l-4.552-2.285c1.305-2.598,2.665-5.23,4.043-7.823l4.498,2.39C625.945,390.01,624.602,392.607,623.316,395.169z M631.473,379.829
				l-4.44-2.495c1.424-2.534,2.905-5.098,4.401-7.623l4.381,2.596C634.339,374.799,632.878,377.329,631.473,379.829z
				 M640.332,364.891l-4.319-2.699c1.538-2.463,3.136-4.956,4.749-7.408l4.256,2.798
				C643.427,360.002,641.851,362.461,640.332,364.891z M649.873,350.386l-4.19-2.896c1.653-2.391,3.365-4.806,5.086-7.177
				l4.121,2.993C653.192,345.645,651.504,348.027,649.873,350.386z M660.071,336.342l-4.05-3.088
				c1.764-2.314,3.585-4.646,5.412-6.932l3.978,3.181C663.609,331.757,661.812,334.058,660.071,336.342z M670.906,322.79
				l-3.904-3.271c1.864-2.224,3.79-4.469,5.724-6.671l3.827,3.359C674.645,318.381,672.745,320.597,670.906,322.79z
				 M682.351,309.756l-3.749-3.449c1.985-2.157,4.012-4.31,6.025-6.399l3.668,3.534
				C686.308,305.504,684.309,307.628,682.351,309.756z M694.382,297.269l-3.586-3.618c2.076-2.057,4.199-4.113,6.31-6.112
				l3.502,3.699C698.526,293.21,696.431,295.239,694.382,297.269z M706.971,285.353l-3.415-3.779
				c2.162-1.954,4.377-3.909,6.584-5.814l3.327,3.857C711.289,281.495,709.104,283.425,706.971,285.353z M720.093,274.034
				l-3.237-3.932c2.256-1.857,4.559-3.708,6.843-5.502l3.145,4.008C724.59,270.376,722.319,272.201,720.093,274.034z
				 M733.718,263.336l-3.053-4.077c2.328-1.742,4.712-3.485,7.087-5.178l2.957,4.147
				C738.367,259.898,736.014,261.617,733.718,263.336z M747.817,253.282l-2.861-4.214c2.414-1.639,4.876-3.269,7.317-4.843
				l2.761,4.279C752.628,250.058,750.199,251.665,747.817,253.282z M762.359,243.894l-2.662-4.341
				c2.478-1.52,5.011-3.033,7.529-4.498l2.561,4.403C767.303,240.902,764.804,242.395,762.359,243.894z M777.315,235.195
				l-2.458-4.461c2.546-1.403,5.145-2.796,7.726-4.142l2.355,4.516C782.391,232.437,779.826,233.811,777.315,235.195z
				 M792.651,227.202l-2.248-4.57c2.614-1.286,5.275-2.557,7.906-3.777l2.142,4.622C797.854,224.68,795.23,225.933,792.651,227.202z
				 M808.333,219.934l-2.034-4.67c2.675-1.165,5.39-2.31,8.07-3.403l1.923,4.717C813.65,217.655,810.972,218.784,808.333,219.934z
				 M824.359,213.395l-1.813-4.759c2.736-1.043,5.512-2.063,8.25-3.033l1.701,4.8C829.796,211.359,827.059,212.366,824.359,213.395z
				 M840.701,207.602l-1.589-4.839c2.761-0.907,5.581-1.796,8.381-2.644l1.477,4.874
				C846.207,205.829,843.425,206.707,840.701,207.602z M857.297,202.579l-1.362-4.908c2.801-0.777,5.66-1.533,8.495-2.249
				l1.246,4.938C862.879,201.066,860.059,201.813,857.297,202.579z M874.108,198.338l-1.13-4.967
				c2.832-0.645,5.722-1.267,8.591-1.85l1.015,4.991C879.753,197.088,876.901,197.702,874.108,198.338z M891.099,194.886
				l-0.897-5.014c2.883-0.516,5.799-1.003,8.667-1.447l0.78,5.034C896.82,193.897,893.944,194.377,891.099,194.886z
				 M908.234,192.229l-0.664-5.05c2.884-0.378,5.82-0.729,8.726-1.042l0.546,5.063C913.976,191.509,911.079,191.855,908.234,192.229
				z M925.473,190.37l-0.429-5.075c2.909-0.246,5.858-0.461,8.765-0.639l0.311,5.083
				C931.252,189.916,928.343,190.127,925.473,190.37z M942.782,189.309l-0.195-5.089c2.901-0.111,5.852-0.19,8.769-0.237l0.08,5.093
				C948.556,189.121,945.645,189.199,942.782,189.309z"/>
		</g>
	</g>
	<g id="XMLID_3045_">
		<path style="fill:#A5A6A9;" d="M1657.918,1066.032c-47.126,0-85.467-38.34-85.467-85.467c0-47.127,38.34-85.467,85.467-85.467
			c47.126,0,85.467,38.34,85.467,85.467C1743.384,1027.692,1705.044,1066.032,1657.918,1066.032z M1657.918,903.534
			c-42.475,0-77.031,34.556-77.031,77.031s34.556,77.031,77.031,77.031s77.031-34.556,77.031-77.031
			S1700.393,903.534,1657.918,903.534z"/>
	</g>
	<g id="XMLID_3044_">
		<path style="fill:#E5E5E6;" d="M1739.167,1002.384c-25.486,0-46.219-20.734-46.219-46.22c0-25.486,20.733-46.219,46.219-46.219
			c25.486,0,46.219,20.733,46.219,46.219C1785.386,981.65,1764.652,1002.384,1739.167,1002.384z M1739.167,917.062
			c-21.561,0-39.102,17.541-39.102,39.102c0,21.561,17.541,39.103,39.102,39.103c21.561,0,39.102-17.542,39.102-39.103
			C1778.269,934.603,1760.728,917.062,1739.167,917.062z"/>
	</g>
	<path id="XMLID_3043_" style="fill:#333C8B;" d="M1400.867,938.646c13.389,0,24.586,9.339,27.466,21.844
		c2.179-0.647,4.494-1.001,6.884-1.001c13.345,0,24.158,10.819,24.158,24.167c0,13.337-10.813,24.164-24.158,24.164h-0.05h-64.057
		v-0.003c-10.397-0.082-18.801-8.539-18.801-18.956c0-10.467,8.485-18.95,18.95-18.95c0.54,0,1.074,0.032,1.601,0.077
		c-0.112-1.035-0.18-2.084-0.18-3.147C1372.681,951.266,1385.3,938.646,1400.867,938.646z"/>
	<path id="XMLID_3042_" style="fill:#CFD1D2;" d="M1435.217,951.474c-0.509,0-1.024,0.019-1.527,0.042
		c-5.828-12.591-18.441-20.882-32.823-20.882c-18.553,0-33.884,14.022-35.957,32.025c-1.192,0.283-2.328,0.711-3.457,1.153
		c-1.21-4.703-1.924-9.61-1.924-14.695c0-32.411,26.274-58.686,58.694-58.686c5.81,0,11.421,0.86,16.715,2.431
		c7.002-30.397,34.201-53.07,66.72-53.07c37.813,0,68.476,30.658,68.476,68.471c0,2.59-0.161,5.146-0.441,7.663
		c1.291-0.109,2.582-0.182,3.898-0.182c25.418,0,46.025,20.611,46.025,46.036c0,25.303-20.415,45.833-45.671,46.028v0.011h-117.555
		c6.722-5.904,10.999-14.538,10.999-24.164C1467.388,965.914,1452.957,951.474,1435.217,951.474z"/>
	<path id="XMLID_3041_" style="fill:#CFD1D2;" d="M1548.222,818.099l-0.795-0.115c-1.521,0-2.756,1.235-2.756,2.753V830.8
		c0,1.13,0.72,2.146,1.788,2.532c15.965,5.723,28.795,18.029,35.207,33.763c0.422,1.016,1.396,1.667,2.489,1.667h10.254
		c0.882,0,1.719-0.432,2.235-1.153c0.515-0.725,0.645-1.645,0.36-2.48C1589.219,842.652,1570.977,825.069,1548.222,818.099z"/>
	<path id="XMLID_3040_" style="fill:#A5A6A9;" d="M1551.437,789.163l-0.602-0.056c-1.508,0-2.743,1.227-2.743,2.744v9.906
		c0,1.234,0.838,2.308,2.048,2.615c29.285,7.294,52.549,29.896,60.724,59.001c0.323,1.165,1.384,1.978,2.588,1.978h9.931
		c0.857,0,1.645-0.391,2.166-1.066c0.521-0.671,0.708-1.533,0.503-2.348C1617.002,825.813,1587.717,797.248,1551.437,789.163z"/>
	<g id="XMLID_3039_">
		<path style="fill:#A5A6A9;" d="M1747.594,141.971c-17.696,0-32.092-14.396-32.092-32.092c0-17.696,14.396-32.092,32.092-32.092
			s32.092,14.396,32.092,32.092C1779.686,127.575,1765.29,141.971,1747.594,141.971z M1747.594,85.063
			c-13.683,0-24.816,11.132-24.816,24.816c0,13.683,11.132,24.816,24.816,24.816s24.816-11.132,24.816-24.816
			C1772.41,96.196,1761.278,85.063,1747.594,85.063z"/>
	</g>
	<circle id="XMLID_3038_" style="fill:#DFAAAE;" cx="115.577" cy="865.352" r="23.714"/>
	<circle id="XMLID_3037_" style="fill:#E5E5E6;" cx="1574.296" cy="186.818" r="76.939"/>
	<circle id="XMLID_3036_" style="fill:#DFAAAE;" cx="1768.64" cy="622.308" r="23.714"/>
	<circle id="XMLID_3035_" style="fill:#DFAAAE;" cx="1360.996" cy="817.984" r="23.714"/>
	<circle id="XMLID_3034_" style="fill:#DFAAAE;" cx="1606.984" cy="408.092" r="15.037"/>
	
		<ellipse id="XMLID_3033_" transform="matrix(0.2298 -0.9732 0.9732 0.2298 -245.2807 1015.0803)" style="fill:#DFAAAE;" cx="518.664" cy="662.503" rx="15.037" ry="15.037"/>
	
		<ellipse id="XMLID_3032_" transform="matrix(0.7071 -0.7071 0.7071 0.7071 -273.206 286.1198)" style="fill:#DFAAAE;" cx="208.774" cy="472.849" rx="35.159" ry="35.159"/>
	
		<ellipse id="XMLID_3031_" transform="matrix(0.2298 -0.9732 0.9732 0.2298 -65.0084 688.8766)" style="fill:#DFAAAE;" cx="402.713" cy="385.509" rx="15.037" ry="15.037"/>
	<g id="XMLID_2955_">
		<g id="XMLID_3029_">
			<rect id="XMLID_3030_" x="444.593" y="291.383" style="fill:#CFD1D2;" width="37.095" height="3.864"/>
		</g>
		<g id="XMLID_3027_">
			
				<rect id="XMLID_3028_" x="147.554" y="296.629" transform="matrix(0.726 -0.6877 0.6877 0.726 -158.637 198.96)" style="fill:#CFD1D2;" width="45.622" height="3.864"/>
		</g>
		<g id="XMLID_3025_">
			
				<rect id="XMLID_3026_" x="231.118" y="271.778" transform="matrix(0.7139 -0.7003 0.7003 0.7139 -140.9918 248.0625)" style="fill:#CFD1D2;" width="3.865" height="49.559"/>
		</g>
		<g id="XMLID_3023_">
			
				<rect id="XMLID_3024_" x="385.515" y="73.887" transform="matrix(0.9828 -0.1845 0.1845 0.9828 -11.6806 73.1933)" style="fill:#CFD1D2;" width="3.864" height="50.945"/>
		</g>
		<g id="XMLID_3021_">
			
				<rect id="XMLID_3022_" x="413.318" y="114.019" transform="matrix(0.8539 -0.5204 0.5204 0.8539 3.7372 245.2143)" style="fill:#CFD1D2;" width="50.591" height="3.864"/>
		</g>
		<g id="XMLID_3019_">
			
				<rect id="XMLID_3020_" x="164.814" y="199.481" transform="matrix(0.6012 -0.7991 0.7991 0.6012 -118.8903 225.7801)" style="fill:#CFD1D2;" width="3.865" height="65.032"/>
		</g>
		<g id="XMLID_3012_">
			<g id="XMLID_3017_">
				<polygon id="XMLID_3018_" style="fill:#6D6E70;" points="426.037,124.395 397.177,139.647 368.317,124.395 397.177,109.142 				
					"/>
			</g>
			<g id="XMLID_3015_">
				<polygon id="XMLID_3016_" style="fill:#D0D6DB;" points="368.317,124.395 368.317,155.608 397.177,170.861 397.177,139.647 				
					"/>
			</g>
			<g id="XMLID_3013_">
				<polygon id="XMLID_3014_" style="fill:#A2A6AC;" points="425.947,124.395 425.947,155.608 397.087,170.861 397.087,139.647 				
					"/>
			</g>
		</g>
		<g id="XMLID_3005_">
			<g id="XMLID_3010_">
				<polygon id="XMLID_3011_" style="fill:#6D6E70;" points="447.048,274.953 418.188,290.206 389.328,274.953 418.188,259.701 				
					"/>
			</g>
			<g id="XMLID_3008_">
				<polygon id="XMLID_3009_" style="fill:#D0D6DB;" points="389.328,274.953 389.328,306.166 418.188,321.419 418.188,290.206 				
					"/>
			</g>
			<g id="XMLID_3006_">
				<polygon id="XMLID_3007_" style="fill:#A2A6AC;" points="446.958,274.953 446.958,306.166 418.098,321.419 418.098,290.206 				
					"/>
			</g>
		</g>
		<g id="XMLID_2998_">
			<g id="XMLID_3003_">
				<polygon id="XMLID_3004_" style="fill:#6D6E70;" points="230.217,251.544 201.357,266.797 172.497,251.544 201.357,236.292 				
					"/>
			</g>
			<g id="XMLID_3001_">
				<polygon id="XMLID_3002_" style="fill:#D0D6DB;" points="172.497,251.544 172.497,282.758 201.357,298.01 201.357,266.797 				
					"/>
			</g>
			<g id="XMLID_2999_">
				<polygon id="XMLID_3000_" style="fill:#A2A6AC;" points="230.127,251.544 230.127,282.758 201.267,298.01 201.267,266.797 				
					"/>
			</g>
		</g>
		<g id="XMLID_2996_">
			<rect id="XMLID_2997_" x="244.1" y="306.34" style="fill:#4A4A4B;" width="26.083" height="26.083"/>
		</g>
		<g id="XMLID_2994_">
			<rect id="XMLID_2995_" x="369.705" y="55.968" style="fill:#4A4A4B;" width="26.083" height="26.083"/>
		</g>
		<g id="XMLID_2992_">
			<rect id="XMLID_2993_" x="444.807" y="87.946" style="fill:#4A4A4B;" width="26.083" height="26.083"/>
		</g>
		<g id="XMLID_2990_">
			<rect id="XMLID_2991_" x="481.687" y="280.273" style="fill:#4A4A4B;" width="26.083" height="26.083"/>
		</g>
		<g id="XMLID_2988_">
			<rect id="XMLID_2989_" x="133.372" y="306.34" style="fill:#4A4A4B;" width="26.083" height="26.083"/>
		</g>
		<g id="XMLID_2986_">
			<rect id="XMLID_2987_" x="127.72" y="194.882" style="fill:#4A4A4B;" width="26.083" height="26.083"/>
		</g>
		<g id="XMLID_2978_">
			<path id="XMLID_2979_" style="fill:#4A4A4B;" d="M227.143,255.298l-1.95-3.337l6.673-3.9l1.95,3.337L227.143,255.298z
				 M237.152,249.449l-1.95-3.337l6.673-3.9l1.95,3.337L237.152,249.449z M247.162,243.6l-1.95-3.337l6.673-3.899l1.95,3.337
				L247.162,243.6z M257.171,237.751l-1.95-3.337l6.673-3.899l1.949,3.337L257.171,237.751z M267.181,231.902l-1.95-3.337l6.673-3.9
				l1.95,3.337L267.181,231.902z M277.19,226.053l-1.95-3.337l6.673-3.9l1.95,3.337L277.19,226.053z"/>
		</g>
		<g id="XMLID_2969_">
			<path id="XMLID_2970_" style="fill:#4A4A4B;" d="M403.098,267.909l-1.18-0.577l1.698-3.471l1.18,0.577L403.098,267.909z
				 M398.447,265.633l-6.942-3.396l1.698-3.471l6.942,3.397L398.447,265.633z M388.034,260.538l-6.942-3.397l1.698-3.471
				l6.942,3.397L388.034,260.538z M377.62,255.443l-6.942-3.397l1.698-3.471l6.942,3.397L377.62,255.443z M367.207,250.348
				l-6.942-3.397l1.698-3.471l6.942,3.397L367.207,250.348z M356.793,245.253l-6.942-3.397l1.698-3.471l6.942,3.397L356.793,245.253
				z M346.38,240.158l-6.942-3.397l1.698-3.471l6.942,3.397L346.38,240.158z"/>
		</g>
		<g id="XMLID_2963_">
			<path id="XMLID_2964_" style="fill:#4A4A4B;" d="M349.011,192.018l-2.378-3.046l6.092-4.755l2.378,3.046L349.011,192.018z
				 M358.15,184.885l-2.378-3.046l6.092-4.755l2.378,3.046L358.15,184.885z M367.288,177.751l-2.378-3.046l6.093-4.755l2.378,3.046
				L367.288,177.751z M376.427,170.618l-2.378-3.046l6.092-4.755l2.378,3.046L376.427,170.618z"/>
		</g>
		<g id="XMLID_2956_">
			<g id="XMLID_2961_">
				<polygon id="XMLID_2962_" style="fill:#333C8B;" points="360.03,185.779 311.353,211.505 262.676,185.779 311.353,160.053 				
					"/>
			</g>
			<g id="XMLID_2959_">
				<polygon id="XMLID_2960_" style="fill:#D0D6DB;" points="262.676,185.779 262.676,238.425 311.353,264.151 311.353,211.505 				
					"/>
			</g>
			<g id="XMLID_2957_">
				<polygon id="XMLID_2958_" style="fill:#A2A6AC;" points="359.879,185.779 359.879,238.425 311.202,264.151 311.202,211.505 				
					"/>
			</g>
		</g>
	</g>
	<g id="XMLID_2954_">
		<polygon style="fill:#333C8B;" points="1606.984,703.06 1423.825,703.06 1407.817,670.482 1273.933,670.482 1273.933,663.255 
			1412.319,663.255 1428.327,695.832 1606.984,695.832 		"/>
	</g>
	<g id="XMLID_2953_">
		<polygon style="fill:#A5A6A9;" points="1726.796,740.762 1406.402,740.762 1383.556,696.757 1390.013,693.404 1410.823,733.486 
			1726.796,733.486 		"/>
	</g>
	<g id="XMLID_2952_">
		<polygon style="fill:#A5A6A9;" points="1808.8,706.887 1642.487,706.887 1613.383,666.141 1466.822,666.141 1466.822,658.865 
			1617.127,658.865 1646.232,699.611 1808.8,699.611 		"/>
	</g>
	<g id="XMLID_2946_">
		<g id="XMLID_2951_">
			<polygon style="fill:#A5A6A9;" points="843.029,148.18 724.145,148.18 698.571,98.483 602.43,98.483 602.43,91.255 
				702.981,91.255 728.555,140.952 843.029,140.952 			"/>
		</g>
		<g id="XMLID_2950_">
			<polygon style="fill:#333C8B;" points="929.582,192.295 697.529,192.295 673.029,137.348 535.09,137.348 535.09,130.58 
				677.42,130.58 701.92,185.528 929.582,185.528 			"/>
		</g>
		<g id="XMLID_2949_">
			<polygon style="fill:#A5A6A9;" points="988.823,148.18 876.954,148.18 846.964,98.483 741.775,98.483 741.775,91.255 
				851.044,91.255 881.034,140.952 988.823,140.952 			"/>
		</g>
		<g id="XMLID_2948_">
			<path style="fill:#333C8B;" d="M943.822,207.764c-11.365,0-20.612-9.247-20.612-20.612s9.247-20.612,20.612-20.612
				c11.365,0,20.612,9.246,20.612,20.612S955.187,207.764,943.822,207.764z M943.822,173.307c-7.634,0-13.845,6.21-13.845,13.845
				c0,7.634,6.21,13.844,13.845,13.844c7.634,0,13.844-6.21,13.844-13.844C957.667,179.517,951.456,173.307,943.822,173.307z"/>
		</g>
		<g id="XMLID_2947_">
			<path style="fill:#333C8B;" d="M517.862,154.576c-11.365,0-20.612-9.247-20.612-20.612s9.246-20.612,20.612-20.612
				c11.365,0,20.612,9.246,20.612,20.612S529.227,154.576,517.862,154.576z M517.862,120.119c-7.634,0-13.844,6.21-13.844,13.845
				c0,7.634,6.21,13.844,13.844,13.844c7.634,0,13.845-6.21,13.845-13.844C531.706,126.33,525.496,120.119,517.862,120.119z"/>
		</g>
	</g>
	<g id="XMLID_2941_">
		<path id="XMLID_2945_" style="fill:#808083;" d="M1226.047,1060.168c3.559,3.48,10.944,1.7,16.65-3.935
			c0.104-0.105,0.212-0.203,0.319-0.304c5.745-5.885,7.469-13.519,3.851-17.059l-7.024-6.863l-2.97-2.898l-45.031-44.003
			l-20.505,21.607l44.96,43.935l2.973,2.9L1226.047,1060.168z"/>
		<path id="XMLID_2942_" style="fill:#808083;" d="M1182.971,884.637c-28.636-28.072-72.841-30.488-104.178-7.568
			c-0.091,0.067-0.185,0.13-0.276,0.197c-1.575,1.162-3.113,2.395-4.618,3.685c-0.282,0.241-0.559,0.489-0.838,0.734
			c-1.485,1.308-2.945,2.658-4.353,4.094c-19.525,19.915-26.647,47.369-21.462,72.785c2.592,12.708,8.262,24.907,16.996,35.4
			c1.747,2.099,3.616,4.129,5.608,6.081c1.128,1.106,2.287,2.162,3.462,3.188c0.367,0.321,0.743,0.625,1.115,0.938
			c0.832,0.701,1.671,1.387,2.524,2.049c0.424,0.329,0.851,0.652,1.28,0.971c0.856,0.638,1.722,1.253,2.596,1.852
			c0.4,0.274,0.797,0.553,1.201,0.82c1.114,0.734,2.241,1.437,3.382,2.11c0.159,0.094,0.313,0.196,0.473,0.289
			c1.336,0.776,2.69,1.505,4.059,2.197c0.277,0.14,0.558,0.266,0.836,0.403c1.091,0.536,2.189,1.049,3.298,1.533
			c0.383,0.167,0.768,0.327,1.153,0.487c1.061,0.443,2.129,0.863,3.204,1.259c0.35,0.129,0.698,0.26,1.049,0.384
			c1.301,0.459,2.609,0.886,3.927,1.276c0.105,0.031,0.208,0.067,0.313,0.097c2.992,0.872,6.024,1.56,9.08,2.079
			c0.201,0.034,0.403,0.063,0.605,0.096c1.336,0.217,2.675,0.399,4.019,0.549c0.206,0.023,0.411,0.047,0.617,0.068
			c6.205,0.642,12.465,0.566,18.654-0.224c0.101-0.013,0.203-0.026,0.304-0.039c17.284-2.273,33.964-10.109,47.113-23.524
			C1215.355,967.035,1214.841,915.877,1182.971,884.637z M1167.647,982.264c-8.516,8.688-19.136,14.036-30.254,16.104v0.001
			c-1.135,0.211-2.275,0.385-3.418,0.527c-0.855,0.106-1.71,0.18-2.568,0.247c-0.669,0.053-1.337,0.087-2.007,0.116
			c-1.25,0.054-2.498,0.069-3.75,0.042c-0.773-0.016-1.546-0.04-2.318-0.087c-0.773-0.048-1.543-0.103-2.314-0.183
			c-1.261-0.129-2.518-0.292-3.77-0.505c-0.647-0.111-1.286-0.251-1.93-0.384c-0.974-0.2-1.942-0.427-2.906-0.679
			c-0.541-0.142-1.084-0.266-1.622-0.424c-1.364-0.399-2.712-0.868-4.049-1.371c-0.5-0.189-0.995-0.384-1.491-0.588
			c-1.389-0.568-2.765-1.177-4.116-1.86c-0.287-0.145-0.565-0.31-0.85-0.461c-1.235-0.651-2.449-1.355-3.644-2.104
			c-0.314-0.197-0.632-0.385-0.943-0.589c-1.351-0.884-2.669-1.838-3.958-2.849c-0.288-0.226-0.57-0.461-0.854-0.694
			c-1.333-1.089-2.643-2.224-3.897-3.453c-2.812-2.756-5.278-5.732-7.397-8.873c-14.838-21.991-12.705-52.1,6.59-71.786
			c1.249-1.275,2.555-2.457,3.89-3.587c0.469-0.398,0.953-0.763,1.432-1.144c0.868-0.688,1.745-1.354,2.643-1.984
			c0.622-0.438,1.248-0.861,1.883-1.271c0.751-0.482,1.513-0.935,2.281-1.378c0.755-0.439,1.505-0.885,2.276-1.286
			c0.419-0.217,0.849-0.401,1.272-0.606c2.227-1.09,4.503-2.036,6.828-2.818c0.058-0.019,0.114-0.043,0.172-0.062
			c1.277-0.425,2.566-0.787,3.865-1.12c0.177-0.045,0.354-0.092,0.531-0.135c18.547-4.56,38.945,0.235,53.586,14.59
			C1189.337,923.653,1189.701,959.767,1167.647,982.264z"/>
	</g>
	<g id="XMLID_2926_">
		<g id="XMLID_2940_" style="opacity:0.8;">
			<path style="fill:#808083;" d="M234.605,855.231c-0.855,0-1.705-0.296-2.39-0.873l-46.51-39.268
				c-1.165-0.984-1.608-2.581-1.116-4.024c0.491-1.443,1.817-2.438,3.34-2.506l122.79-5.517c1.712-0.092,3.234,1.016,3.718,2.648
				c0.483,1.632-0.208,3.384-1.676,4.246l-76.281,44.785C235.898,855.064,235.249,855.231,234.605,855.231z M197.715,815.535
				l37.275,31.472l61.136-35.893L197.715,815.535z"/>
		</g>
		<g id="XMLID_2939_" style="opacity:0.8;">
			<path style="fill:#808083;" d="M184.482,737.506c-1.455,0-2.783-0.854-3.381-2.193c-0.622-1.392-0.327-3.023,0.743-4.109
				l42.705-43.375c1.103-1.119,2.793-1.42,4.213-0.754l80.073,37.586c1.54,0.723,2.39,2.404,2.059,4.073
				c-0.332,1.67-1.759,2.899-3.459,2.979l-122.778,5.789C184.599,737.505,184.54,737.506,184.482,737.506z M227.987,694.894
				l-34.225,34.763l98.4-4.639L227.987,694.894z"/>
		</g>
		<g id="XMLID_2938_" style="opacity:0.8;">
			<path style="fill:#808083;" d="M223.775,814.293l-3.952-85.824l150.954-6.95c11.754-0.533,27.909,3.419,41.19,10.087
				c16.192,8.129,25.39,18.722,25.902,29.827c0.511,11.105-7.675,22.498-23.051,32.081c-12.613,7.86-28.349,13.288-40.089,13.829
				L223.775,814.293z M227.564,735.527l3.27,71.025l143.554-6.609c10.403-0.479,25.076-5.589,36.512-12.715
				c12.814-7.986,19.947-17.264,19.57-25.454c-0.376-8.191-8.332-16.773-21.826-23.549c-12.042-6.046-27.121-9.792-37.526-9.307
				L227.564,735.527z"/>
		</g>
		<g id="XMLID_2937_" style="opacity:0.8;">
			<path style="fill:#808083;" d="M368.806,792.479c-10.375,0-20.326-5.891-24.988-15.898c-6.406-13.755-0.428-30.158,13.327-36.564
				c13.756-6.407,30.158-0.428,36.564,13.327c6.406,13.755,0.428,30.158-13.327,36.564l0,0
				C376.634,791.653,372.689,792.479,368.806,792.479z M368.732,744.852c-2.839,0-5.721,0.604-8.46,1.879
				c-10.052,4.682-14.422,16.669-9.74,26.721c4.682,10.053,16.669,14.419,26.721,9.74l0,0c10.052-4.682,14.422-16.669,9.74-26.721
				C383.587,749.158,376.314,744.852,368.732,744.852z"/>
		</g>
		<g id="XMLID_2934_" style="opacity:0.69;">
			<polygon id="XMLID_1008_" style="fill:#808083;" points="209.144,759.568 84.877,760.167 208.876,751.983 			"/>
		</g>
		<g id="XMLID_2931_" style="opacity:0.69;">
			<polygon id="XMLID_1007_" style="fill:#808083;" points="210.488,792.172 86.221,792.77 210.219,784.587 			"/>
		</g>
		<g id="XMLID_2928_" style="opacity:0.69;">
			<polygon id="XMLID_1006_" style="fill:#808083;" points="209.905,776.045 109.705,775.43 209.664,768.459 			"/>
		</g>
		<g id="XMLID_2927_">
			<path style="fill:#808083;" d="M210.269,794.883c-2.387,0-4.363-1.89-4.45-4.295l-1.262-34.65
				c-0.043-1.181,0.384-2.331,1.189-3.196c0.804-0.866,1.921-1.376,3.102-1.419l14.558-0.53c2.438-0.091,4.525,1.832,4.615,4.291
				l1.262,34.65c0.043,1.181-0.384,2.331-1.189,3.196c-0.804,0.866-1.921,1.376-3.102,1.419l-14.558,0.53
				C210.379,794.881,210.324,794.883,210.269,794.883z M213.626,760.067l0.937,25.743l5.651-0.205l-0.937-25.744L213.626,760.067z"
				/>
		</g>
	</g>
	<g id="XMLID_2912_">
		<path id="XMLID_2925_" style="fill:#A5A6A9;" d="M1770.38,277.287c-9.406-2.358-21.611-2.705-34.366-0.975
			c-12.755,1.73-24.426,5.315-32.864,10.093c-7.254,4.108-11.291,8.727-10.799,12.356c0.492,3.628,5.613,7.005,13.7,9.033
			c9.406,2.358,21.611,2.704,34.365,0.974c12.755-1.73,24.426-5.315,32.865-10.093c7.254-4.108,11.29-8.728,10.798-12.356
			C1783.588,282.691,1778.466,279.315,1770.38,277.287z"/>
		<path id="XMLID_2924_" style="fill:#A5A6A9;" d="M1741.374,315.826c-13.631,1.849-26.791,1.449-37.055-1.125
			c-4.053-1.016-7.517-2.35-10.342-3.954l15.506,114.327c2.296-2.299,5.279-4.507,8.915-6.566
			c9.207-5.215,21.786-9.105,35.416-10.953c13.631-1.849,26.791-1.449,37.055,1.124c4.053,1.017,7.517,2.35,10.342,3.955
			l-15.506-114.327c-2.296,2.299-5.279,4.507-8.915,6.566C1767.583,310.086,1755.005,313.977,1741.374,315.826z"/>
		<path id="XMLID_2923_" style="fill:#A5A6A9;" d="M1789.138,415.584c-9.406-2.359-21.611-2.705-34.366-0.975
			c-12.755,1.73-24.427,5.314-32.864,10.094c-7.254,4.108-11.291,8.727-10.799,12.356c0.492,3.628,5.614,7.006,13.7,9.034
			c9.406,2.358,21.611,2.704,34.365,0.974c12.755-1.73,24.426-5.314,32.865-10.093c7.254-4.109,11.29-8.728,10.798-12.357
			C1802.345,420.989,1797.224,417.612,1789.138,415.584z"/>
		
			<linearGradient id="XMLID_00000145770770053624280910000012000700066170314634_" gradientUnits="userSpaceOnUse" x1="1577.6425" y1="486.0861" x2="1916.5682" y2="486.0861" gradientTransform="matrix(0.9909 -0.1344 0.1344 0.9909 65.1917 99.3571)">
			<stop  offset="0" style="stop-color:#E9B656"/>
			<stop  offset="0.0931" style="stop-color:#E2B053"/>
			<stop  offset="0.2303" style="stop-color:#CEA14C"/>
			<stop  offset="0.3949" style="stop-color:#AD8740"/>
			<stop  offset="0.5806" style="stop-color:#80642F"/>
			<stop  offset="0.784" style="stop-color:#46371A"/>
			<stop  offset="1" style="stop-color:#000000"/>
		</linearGradient>
		<path id="XMLID_2918_" style="fill:url(#XMLID_00000145770770053624280910000012000700066170314634_);" d="M1772.113,270.38
			c-10.264-2.574-23.424-2.973-37.055-1.124c-13.631,1.849-26.209,5.739-35.416,10.954c-10.175,5.763-15.27,12.692-14.345,19.509
			l18.757,138.297c0.925,6.817,7.681,12.139,19.023,14.983c10.264,2.574,23.424,2.973,37.055,1.125
			c13.631-1.849,26.209-5.739,35.417-10.954c10.176-5.763,15.27-12.691,14.345-19.509l-18.757-138.297
			C1790.211,278.546,1783.455,273.224,1772.113,270.38z M1792.039,436.974c-8.438,4.778-20.11,8.363-32.865,10.093
			c-12.755,1.73-24.96,1.384-34.365-0.974c-8.086-2.028-13.208-5.405-13.7-9.034c-0.492-3.629,3.545-8.248,10.799-12.356
			c8.438-4.779,20.109-8.364,32.864-10.094c12.755-1.73,24.959-1.384,34.366,0.975c8.086,2.027,13.207,5.405,13.699,9.033
			C1803.329,428.246,1799.292,432.865,1792.039,436.974z M1801.212,412.632c-2.825-1.604-6.289-2.938-10.342-3.955
			c-10.264-2.574-23.424-2.973-37.055-1.124c-13.631,1.849-26.209,5.739-35.416,10.953c-3.636,2.06-6.619,4.267-8.915,6.566
			l-15.506-114.327c2.825,1.604,6.289,2.938,10.342,3.954c10.264,2.574,23.424,2.974,37.055,1.125
			c13.631-1.849,26.209-5.739,35.417-10.954c3.636-2.059,6.619-4.267,8.915-6.566L1801.212,412.632z M1773.282,298.676
			c-8.438,4.778-20.11,8.363-32.865,10.093c-12.755,1.73-24.96,1.383-34.365-0.974c-8.086-2.028-13.208-5.405-13.7-9.033
			c-0.492-3.629,3.545-8.248,10.799-12.356c8.438-4.778,20.11-8.363,32.864-10.093c12.755-1.73,24.96-1.383,34.366,0.975
			c8.086,2.028,13.207,5.405,13.699,9.034C1784.572,289.948,1780.535,294.568,1773.282,298.676z"/>
		<path id="XMLID_2913_" style="fill:#CFD1D2;" d="M1772.113,270.38c-10.264-2.574-23.424-2.973-37.055-1.124
			c-13.631,1.849-26.209,5.739-35.416,10.954c-10.175,5.763-15.27,12.692-14.345,19.509l18.757,138.297
			c0.925,6.817,7.681,12.139,19.023,14.983c10.264,2.574,23.424,2.973,37.055,1.125c13.631-1.849,26.209-5.739,35.417-10.954
			c10.176-5.763,15.27-12.691,14.345-19.509l-18.757-138.297C1790.211,278.546,1783.455,273.224,1772.113,270.38z M1792.039,436.974
			c-8.438,4.778-20.11,8.363-32.865,10.093c-12.755,1.73-24.96,1.384-34.365-0.974c-8.086-2.028-13.208-5.405-13.7-9.034
			c-0.492-3.629,3.545-8.248,10.799-12.356c8.438-4.779,20.109-8.364,32.864-10.094c12.755-1.73,24.959-1.384,34.366,0.975
			c8.086,2.027,13.207,5.405,13.699,9.033C1803.329,428.246,1799.292,432.865,1792.039,436.974z M1801.212,412.632
			c-2.825-1.604-6.289-2.938-10.342-3.955c-10.264-2.574-23.424-2.973-37.055-1.124c-13.631,1.849-26.209,5.739-35.416,10.953
			c-3.636,2.06-6.619,4.267-8.915,6.566l-15.506-114.327c2.825,1.604,6.289,2.938,10.342,3.954
			c10.264,2.574,23.424,2.974,37.055,1.125c13.631-1.849,26.209-5.739,35.417-10.954c3.636-2.059,6.619-4.267,8.915-6.566
			L1801.212,412.632z M1773.282,298.676c-8.438,4.778-20.11,8.363-32.865,10.093c-12.755,1.73-24.96,1.383-34.365-0.974
			c-8.086-2.028-13.208-5.405-13.7-9.033c-0.492-3.629,3.545-8.248,10.799-12.356c8.438-4.778,20.11-8.363,32.864-10.093
			c12.755-1.73,24.96-1.383,34.366,0.975c8.086,2.028,13.207,5.405,13.699,9.034
			C1784.572,289.948,1780.535,294.568,1773.282,298.676z"/>
	</g>
	<path id="XMLID_2911_" style="fill:#333C8B;" d="M1803.028,426.025l-11.025-81.287l-91.728,12.441l11.025,81.287
		c1.11,8.185,22.544,12.036,47.874,8.6C1784.504,443.631,1804.138,434.211,1803.028,426.025z"/>
	<g id="XMLID_2910_">
		
			<ellipse transform="matrix(0.9909 -0.1344 0.1344 0.9909 -31.3263 237.8635)" style="fill:#333C8B;" cx="1746.139" cy="350.959" rx="46.284" ry="14.956"/>
		<path style="fill:#CFD1D2;" d="M1730.241,369.527c-5.671,0-10.944-0.414-15.551-1.241c-10.339-1.857-16.177-5.582-16.881-10.772
			c-0.704-5.19,3.93-10.336,13.401-14.88c8.511-4.084,20.083-7.266,32.584-8.962c12.501-1.695,24.503-1.71,33.794-0.04
			c10.339,1.857,16.177,5.582,16.881,10.772l0,0c1.522,11.229-22.557,20.665-45.985,23.842
			C1742.182,369.099,1736.006,369.527,1730.241,369.527z M1762.046,337.364c-5.535,0-11.488,0.414-17.582,1.241
			c-12.001,1.627-23.045,4.652-31.1,8.517c-8.266,3.966-10.906,7.624-10.621,9.723c0.284,2.1,3.804,4.922,12.828,6.543
			c8.793,1.58,20.245,1.554,32.245-0.075c26.887-3.646,42.422-13.081,41.722-18.24l0,0c-0.284-2.1-3.804-4.922-12.828-6.543
			C1772.381,337.753,1767.409,337.364,1762.046,337.364z"/>
	</g>
	<g id="XMLID_2906_">
		<path id="XMLID_2907_" style="fill:#4A4A4B;" d="M1410.272,396.086l-125.606-72.518V178.531l125.606-72.519l125.606,72.519
			v145.037l-1.177,0.68L1410.272,396.086z M1289.375,320.85l120.897,69.8l120.897-69.8V181.249l-120.897-69.8l-120.897,69.8V320.85z
			"/>
	</g>
	<g id="XMLID_2865_">
		<path id="XMLID_2866_" style="fill:#4A4A4B;" d="M1289.321,322.016l-2.15-2.373l6.054-10.485l2.912,1.681l-6.054,10.485
			l-1.08-0.623l0.548,1.21L1289.321,322.016z M1528.415,320.746l-11.032-4.988l1.385-3.064l9.078,4.105l-5.262-9.115l2.912-1.682
			l6.054,10.485l-1.929,1.114l0.179,0.081L1528.415,320.746z M1295.68,319.141l-1.385-3.064l11.032-4.988l1.385,3.064
			L1295.68,319.141z M1511.255,312.988L1500.223,308l1.385-3.064l11.032,4.988L1511.255,312.988z M1312.84,311.382l-1.385-3.064
			l11.032-4.988l1.385,3.064L1312.84,311.382z M1494.094,305.229l-11.032-4.988l1.385-3.064l11.032,4.988L1494.094,305.229z
			 M1299.5,305.015l-2.912-1.681l6.053-10.485l2.912,1.681L1299.5,305.015z M1330.001,303.624l-1.385-3.064l11.032-4.988
			l1.385,3.064L1330.001,303.624z M1519.222,301.859l-6.054-10.485l2.913-1.682l6.053,10.485L1519.222,301.859z M1476.933,297.47
			l-11.032-4.988l1.385-3.064l11.032,4.988L1476.933,297.47z M1347.162,295.865l-1.385-3.064l11.032-4.988l1.385,3.064
			L1347.162,295.865z M1459.772,289.712l-11.032-4.988l1.385-3.064l11.032,4.988L1459.772,289.712z M1308.917,288.705l-2.912-1.682
			l6.053-10.485l2.913,1.682L1308.917,288.705z M1364.323,288.106l-1.385-3.064l11.032-4.988l1.385,3.064L1364.323,288.106z
			 M1509.806,285.549l-6.054-10.485l2.913-1.681l6.053,10.485L1509.806,285.549z M1442.612,281.953l-11.032-4.987l1.385-3.064
			l11.032,4.987L1442.612,281.953z M1381.483,280.348l-1.385-3.064l11.032-4.988l1.385,3.064L1381.483,280.348z M1425.451,274.194
			l-11.032-4.987l1.385-3.064l11.032,4.987L1425.451,274.194z M1398.644,272.589l-1.385-3.064l11.032-4.988l1.385,3.064
			L1398.644,272.589z M1318.333,272.395l-2.912-1.682l6.053-10.485l2.912,1.682L1318.333,272.395z M1500.389,269.239l-6.053-10.485
			l2.912-1.681l6.053,10.485L1500.389,269.239z M1327.75,256.085l-2.912-1.682l6.053-10.485l2.912,1.682L1327.75,256.085z
			 M1490.972,252.929l-6.053-10.485l2.912-1.682l6.053,10.485L1490.972,252.929z M1337.167,239.775l-2.912-1.682l6.053-10.485
			l2.912,1.682L1337.167,239.775z M1481.556,236.619l-6.053-10.485l2.912-1.682l6.053,10.485L1481.556,236.619z M1346.583,223.465
			l-2.912-1.682l6.053-10.485l2.912,1.682L1346.583,223.465z M1472.139,220.31l-6.053-10.485l2.912-1.681l6.053,10.485
			L1472.139,220.31z M1356,207.155l-2.912-1.682l6.054-10.485l2.912,1.682L1356,207.155z M1462.723,204l-6.053-10.485l2.912-1.682
			l6.054,10.485L1462.723,204z M1365.416,190.845l-2.913-1.681l6.054-10.485l2.912,1.682L1365.416,190.845z M1453.306,187.69
			l-6.053-10.485l2.912-1.682l6.054,10.485L1453.306,187.69z M1374.833,174.535l-2.912-1.682l6.053-10.485l2.912,1.682
			L1374.833,174.535z M1443.89,171.38l-6.054-10.485l2.912-1.682l6.054,10.485L1443.89,171.38z M1384.249,158.225l-2.912-1.682
			l6.053-10.485l2.912,1.682L1384.249,158.225z M1434.473,155.07l-6.053-10.485l2.912-1.682l6.053,10.485L1434.473,155.07z
			 M1393.666,141.915l-2.912-1.682l6.053-10.485l2.912,1.682L1393.666,141.915z M1425.057,138.76l-6.053-10.485l2.912-1.682
			l6.053,10.485L1425.057,138.76z M1403.082,125.605l-2.912-1.681l6.053-10.485l2.912,1.681L1403.082,125.605z M1415.64,122.45
			l-6.053-10.485l2.912-1.681l6.053,10.485L1415.64,122.45z"/>
	</g>
	<g id="XMLID_2824_">
		<path id="XMLID_2825_" style="fill:#4A4A4B;" d="M1412.499,392.874l-2.912-1.681l6.053-10.485l2.912,1.682L1412.499,392.874z
			 M1406.223,389.718l-6.053-10.485l2.912-1.681l6.053,10.485L1406.223,389.718z M1421.915,376.564l-2.912-1.681l6.053-10.485
			l2.912,1.681L1421.915,376.564z M1396.807,373.408l-6.053-10.485l2.912-1.681l6.054,10.485L1396.807,373.408z M1431.332,360.254
			l-2.912-1.682l6.053-10.485l2.912,1.682L1431.332,360.254z M1387.39,357.099l-6.053-10.485l2.912-1.682l6.054,10.485
			L1387.39,357.099z M1440.749,343.944l-2.912-1.681l6.054-10.485l2.912,1.681L1440.749,343.944z M1377.974,340.789l-6.053-10.485
			l2.912-1.682l6.054,10.485L1377.974,340.789z M1450.165,327.634l-2.912-1.682l6.053-10.485l2.913,1.682L1450.165,327.634z
			 M1368.557,324.478l-6.054-10.485l2.913-1.681l6.053,10.485L1368.557,324.478z M1459.582,311.324l-2.912-1.681l6.053-10.485
			l2.912,1.682L1459.582,311.324z M1359.141,308.169l-6.054-10.485l2.912-1.682l6.053,10.485L1359.141,308.169z M1468.998,295.014
			l-2.912-1.682l6.053-10.485l2.912,1.681L1468.998,295.014z M1349.724,291.859l-6.053-10.485l2.912-1.681l6.053,10.485
			L1349.724,291.859z M1478.415,278.704l-2.912-1.681l6.053-10.485l2.912,1.681L1478.415,278.704z M1340.308,275.549l-6.053-10.485
			l2.912-1.682l6.053,10.485L1340.308,275.549z M1487.831,262.394l-2.912-1.682l6.053-10.485l2.912,1.682L1487.831,262.394z
			 M1330.891,259.239l-6.053-10.485l2.912-1.682l6.053,10.485L1330.891,259.239z M1497.248,246.085l-2.912-1.682l6.053-10.485
			l2.912,1.681L1497.248,246.085z M1321.474,242.929l-6.053-10.485l2.912-1.682l6.053,10.485L1321.474,242.929z M1408.29,238.62
			l-11.032-4.988l1.385-3.064l11.032,4.988L1408.29,238.62z M1415.805,237.015l-1.385-3.064l11.032-4.988l1.385,3.064
			L1415.805,237.015z M1391.13,230.862l-11.032-4.988l1.385-3.065l11.032,4.988L1391.13,230.862z M1506.665,229.775l-2.913-1.682
			l6.054-10.485l2.912,1.682L1506.665,229.775z M1432.965,229.256l-1.385-3.064l11.032-4.988l1.385,3.064L1432.965,229.256z
			 M1312.058,226.619l-6.053-10.485l2.912-1.682l6.054,10.485L1312.058,226.619z M1373.969,223.103l-11.032-4.988l1.385-3.064
			l11.032,4.988L1373.969,223.103z M1450.126,221.498l-1.385-3.064l11.032-4.988l1.385,3.065L1450.126,221.498z M1356.808,215.344
			l-11.032-4.988l1.385-3.064l11.032,4.988L1356.808,215.344z M1467.287,213.739l-1.385-3.064l11.032-4.988l1.385,3.064
			L1467.287,213.739z M1516.081,213.465l-2.913-1.682l6.054-10.485l2.912,1.682L1516.081,213.465z M1302.641,210.309l-6.053-10.485
			l2.912-1.682l6.054,10.485L1302.641,210.309z M1339.648,207.586l-11.032-4.988l1.385-3.064l11.032,4.988L1339.648,207.586z
			 M1484.448,205.98l-1.385-3.064l11.032-4.988l1.385,3.064L1484.448,205.98z M1322.487,199.827l-11.032-4.988l1.385-3.064
			l11.032,4.988L1322.487,199.827z M1501.608,198.222l-1.385-3.064l11.032-4.988l1.385,3.065L1501.608,198.222z M1525.498,197.155
			l-2.912-1.682l5.262-9.115l-9.078,4.105l-1.385-3.065l11.032-4.988l1.385,3.065l-0.178,0.081l1.929,1.114L1525.498,197.155z
			 M1293.225,193.999l-6.054-10.485l2.149-2.373l0.231,0.104l-0.547,1.211l1.08-0.624l6.054,10.485L1293.225,193.999z
			 M1305.326,192.069l-11.032-4.988l1.385-3.064l11.032,4.988L1305.326,192.069z"/>
	</g>
	<g id="XMLID_2819_">
		<g id="XMLID_2822_">
			
				<ellipse id="XMLID_2823_" transform="matrix(0.7071 -0.7071 0.7071 0.7071 336.175 1029.0594)" style="fill:#333C8B;" cx="1410.272" cy="108.731" rx="21.771" ry="21.771"/>
		</g>
		<g id="XMLID_2820_" style="opacity:0.5;">
			<path id="XMLID_2821_" style="fill:#333C8B;" d="M1410.272,130.502c-12.024,0-21.771-9.747-21.771-21.771
				c0-12.024,9.747-21.771,21.771-21.771V130.502z"/>
		</g>
	</g>
	<g id="XMLID_2817_">
		<circle id="XMLID_2818_" style="fill:#333C8B;" cx="1410.272" cy="393.368" r="24.288"/>
	</g>
	<g id="XMLID_2815_" style="opacity:0.5;">
		<path id="XMLID_2816_" style="fill:#333C8B;" d="M1410.272,417.656c-13.414,0-24.288-10.874-24.288-24.288
			c0-13.414,10.874-24.288,24.288-24.288V417.656z"/>
	</g>
	<g id="XMLID_2813_">
		
			<ellipse id="XMLID_2814_" transform="matrix(0.7071 -0.7071 0.7071 0.7071 247.7899 963.5648)" style="fill:#333C8B;" cx="1287.021" cy="182.673" rx="24.288" ry="24.288"/>
	</g>
	<g id="XMLID_2808_">
		<g id="XMLID_2811_">
			<circle id="XMLID_2812_" style="fill:#333C8B;" cx="1534.187" cy="181.244" r="27.251"/>
		</g>
		<g id="XMLID_2809_" style="opacity:0.5;">
			<path id="XMLID_2810_" style="fill:#333C8B;" d="M1534.187,208.494c-15.05,0-27.251-12.201-27.251-27.251
				c0-15.05,12.2-27.251,27.251-27.251V208.494z"/>
		</g>
	</g>
	<g id="XMLID_2803_">
		<g id="XMLID_2806_">
			<circle id="XMLID_2807_" style="fill:#333C8B;" cx="1533.524" cy="320.484" r="16.624"/>
		</g>
		<g id="XMLID_2804_" style="opacity:0.5;">
			<path id="XMLID_2805_" style="fill:#333C8B;" d="M1533.524,337.108c-9.181,0-16.624-7.443-16.624-16.624
				c0-9.181,7.443-16.624,16.624-16.624V337.108z"/>
		</g>
	</g>
	<g id="XMLID_2796_">
		<g id="XMLID_2799_">
			<path id="XMLID_2800_" style="fill:#333C8B;" d="M1287.021,283.71c-20.309,0-36.774,16.464-36.774,36.774
				c0,20.31,16.464,36.774,36.774,36.774s36.774-16.464,36.774-36.774C1323.794,300.174,1307.33,283.71,1287.021,283.71z
				 M1287.021,339.124c-10.295,0-18.64-8.346-18.64-18.64c0-10.295,8.346-18.64,18.64-18.64s18.64,8.346,18.64,18.64
				C1305.661,330.779,1297.315,339.124,1287.021,339.124z"/>
		</g>
		<g id="XMLID_2797_" style="opacity:0.5;">
			<path id="XMLID_2798_" style="fill:#333C8B;" d="M1287.021,345.09c-13.59,0-24.606-11.017-24.606-24.606
				c0-13.59,11.017-24.606,24.606-24.606V283.71c-20.309,0-36.774,16.464-36.774,36.774c0,20.31,16.464,36.774,36.774,36.774V345.09
				z"/>
		</g>
	</g>
	<g id="XMLID_2783_">
		<g id="XMLID_2784_">
			<path id="XMLID_2785_" style="fill:#4A4A4B;" d="M1446.369,248.684c-1.17-18.097-15.635-32.562-33.732-33.732v-4.274h-4.73v4.274
				c-18.098,1.17-32.563,15.635-33.733,33.732h-4.273v4.731h4.273c1.17,18.097,15.635,32.563,33.733,33.731v4.275h4.73v-4.275
				c18.097-1.17,32.562-15.634,33.732-33.731h4.274v-4.731H1446.369z M1412.637,230.745v-3.384
				c5.469,0.539,10.386,2.931,14.135,6.538l-4.294,4.294c-3.181-3.022-7.47-4.888-12.204-4.888c-4.716,0-8.99,1.852-12.168,4.853
				l-4.296-4.297c3.745-3.586,8.646-5.963,14.097-6.501v3.384H1412.637z M1433.96,253.415c-0.538,5.45-2.915,10.352-6.501,14.096
				l-4.295-4.295c2.999-3.177,4.851-7.451,4.852-12.165h0c0-4.735-1.865-9.025-4.886-12.205l4.294-4.295
				c3.606,3.749,5.996,8.664,6.535,14.133h-3.383v4.731H1433.96z M1386.584,248.684c0.538-5.451,2.915-10.353,6.502-14.097
				l4.296,4.297c-3,3.178-4.853,7.452-4.853,12.168c0,4.733,1.866,9.021,4.887,12.203l-4.294,4.295
				c-3.607-3.749-5.999-8.665-6.538-14.135h3.385v-4.731H1386.584z M1395.089,251.051c0-4.198,1.698-7.986,4.448-10.738
				c2.752-2.751,6.54-4.447,10.738-4.448c4.196,0.001,7.983,1.697,10.735,4.448c2.75,2.753,4.447,6.54,4.448,10.738h0
				c0,4.195-1.698,7.983-4.447,10.735c-2.752,2.749-6.539,4.447-10.735,4.447c-4.198,0-7.986-1.698-10.738-4.447
				C1396.786,259.035,1395.089,255.246,1395.089,251.051z M1387.788,228.565c5.239-5.235,12.278-8.64,20.119-9.217v5.894
				c-12.426,1.125-22.316,11.016-23.441,23.442h-5.895C1379.149,240.843,1382.552,233.803,1387.788,228.565z M1407.907,282.749
				c-7.841-0.577-14.88-3.98-20.119-9.216c-5.236-5.239-8.64-12.279-9.217-20.119h5.895c1.125,12.426,11.015,22.316,23.442,23.441
				V282.749z M1407.907,271.354v3.384c-5.469-0.539-10.384-2.93-14.133-6.535l4.295-4.295c3.182,3.02,7.47,4.885,12.204,4.885
				c4.715,0,8.988-1.852,12.165-4.852l4.295,4.295c-3.745,3.587-8.646,5.963-14.097,6.5v-3.382H1407.907z M1432.756,273.534
				c-5.239,5.236-12.278,8.639-20.119,9.216v-5.893c12.427-1.125,22.317-11.017,23.441-23.441h5.894
				C1441.396,261.255,1437.992,268.294,1432.756,273.534z M1436.079,248.684c-1.126-12.426-11.015-22.316-23.441-23.442v-5.894
				c7.84,0.577,14.88,3.982,20.119,9.217c5.236,5.238,8.639,12.278,9.217,20.119H1436.079z"/>
		</g>
	</g>
	<g id="XMLID_2781_" style="opacity:0.5;">
		<path id="XMLID_2782_" style="fill:#69AFB2;" d="M1287.021,206.962c-13.414,0-24.288-10.874-24.288-24.288
			c0-13.414,10.874-24.288,24.288-24.288V206.962z"/>
	</g>
	<g id="XMLID_2733_">
		<g id="XMLID_2746_">
			<path id="XMLID_2747_" style="fill:#4A4A4B;" d="M380.084,1051.026l-4.75-4.311l8.623-9.5l4.75,4.311L380.084,1051.026z
				 M393.018,1036.777l-4.75-4.311l8.623-9.499l4.75,4.311L393.018,1036.777z M405.952,1022.528l-4.75-4.311l8.622-9.499l4.75,4.311
				L405.952,1022.528z M418.885,1008.279l-4.75-4.311l8.622-9.5l4.75,4.311L418.885,1008.279z M569.929,1001.622l-10.613-7.207
				l3.603-5.307l10.614,7.207L569.929,1001.622z M578.522,997.261l-4.75-4.311l8.622-9.5l4.75,4.311L578.522,997.261z
				 M431.819,994.03l-4.75-4.311l8.622-9.5l4.75,4.311L431.819,994.03z M554.009,990.811l-10.613-7.207l3.603-5.307l10.614,7.207
				L554.009,990.811z M591.455,983.011l-4.75-4.311l8.622-9.5l4.75,4.311L591.455,983.011z M538.089,980.001l-10.613-7.207
				l3.603-5.307l10.614,7.207L538.089,980.001z M444.753,979.781l-4.75-4.311l8.622-9.5l4.75,4.311L444.753,979.781z
				 M522.169,969.19l-10.613-7.207l3.603-5.307l10.613,7.207L522.169,969.19z M604.388,968.761l-4.75-4.311l8.622-9.5l4.75,4.311
				L604.388,968.761z M457.687,965.531l-4.75-4.311l8.622-9.499l4.75,4.311L457.687,965.531z M506.249,958.38l-10.613-7.207
				l3.603-5.307l10.613,7.207L506.249,958.38z M750.137,957.033l-4.029-4.991l9.983-8.058l4.029,4.991L750.137,957.033z
				 M741.316,954.62l-7.448-10.445l5.223-3.725l7.448,10.446L741.316,954.62z M617.32,954.511l-4.75-4.311l8.622-9.5l4.75,4.311
				L617.32,954.511z M470.62,951.282l-4.75-4.311l8.622-9.499l4.75,4.311L470.62,951.282z M490.328,947.569l-10.613-7.208
				l3.604-5.307l10.613,7.208L490.328,947.569z M765.112,944.947l-4.029-4.991l9.983-8.058l4.029,4.991L765.112,944.947z
				 M630.253,940.26l-4.75-4.311l8.622-9.5l4.75,4.311L630.253,940.26z M730.143,938.952l-7.448-10.446l5.223-3.725l7.448,10.446
				L730.143,938.952z M780.086,932.86l-4.029-4.991l9.983-8.058l4.029,4.991L780.086,932.86z M643.185,926.011l-4.75-4.311
				l8.622-9.5l4.75,4.311L643.185,926.011z M718.971,923.284l-7.448-10.445l5.223-3.725l7.448,10.445L718.971,923.284z
				 M795.061,920.774l-4.029-4.991l9.983-8.058l4.029,4.991L795.061,920.774z M656.118,911.761l-4.75-4.311l8.622-9.5l4.75,4.311
				L656.118,911.761z M810.035,908.687l-4.029-4.991l9.983-8.058l4.029,4.991L810.035,908.687z M707.798,907.615l-7.448-10.445
				l5.223-3.725l7.448,10.445L707.798,907.615z M669.05,897.51l-4.75-4.311l8.622-9.5l4.75,4.311L669.05,897.51z M696.625,891.947
				l-7.448-10.445l5.223-3.725l7.448,10.446L696.625,891.947z M681.983,883.26l-4.75-4.311l7.406-8.161l4.986,0.293l1.05,1.473
				l-2.291,1.634l1.004,0.911L681.983,883.26z"/>
		</g>
		<g id="XMLID_2744_">
			
				<ellipse id="XMLID_2745_" transform="matrix(0.2298 -0.9732 0.9732 0.2298 -729.8826 1175.4938)" style="fill:#333C8B;" cx="377.709" cy="1048.87" rx="13.318" ry="13.318"/>
		</g>
		<g id="XMLID_2742_">
			
				<ellipse id="XMLID_2743_" transform="matrix(0.2298 -0.9732 0.9732 0.2298 -544.0263 1186.7054)" style="fill:#333C8B;" cx="477.721" cy="937.056" rx="13.318" ry="13.318"/>
		</g>
		<g id="XMLID_2740_">
			
				<ellipse id="XMLID_2741_" transform="matrix(0.2298 -0.9732 0.9732 0.2298 -530.8588 1325.4369)" style="fill:#333C8B;" cx="571.951" cy="998.103" rx="13.318" ry="13.318"/>
		</g>
		<g id="XMLID_2738_">
			<circle id="XMLID_2739_" style="fill:#8E1428;" cx="687.014" cy="872.944" r="13.318"/>
		</g>
		<g id="XMLID_2736_">
			<circle id="XMLID_2737_" style="fill:#333C8B;" cx="746.266" cy="954.52" r="13.318"/>
		</g>
		<g id="XMLID_2734_">
			
				<ellipse id="XMLID_2735_" transform="matrix(0.2298 -0.9732 0.9732 0.2298 -237.0656 1489.5945)" style="fill:#333C8B;" cx="822.56" cy="894.57" rx="13.318" ry="13.318"/>
		</g>
	</g>
	
		<ellipse id="XMLID_2732_" transform="matrix(0.2298 -0.9732 0.9732 0.2298 818.0345 1197.7325)" style="fill:#DFAAAE;" cx="1165.717" cy="82.051" rx="15.037" ry="15.037"/>
	<g id="XMLID_3149_">
		<g id="XMLID_3154_">
			<path id="XMLID_3155_" style="fill:#808083;" d="M1490.519,477.947c-0.139,0-0.278,0.008-0.416,0.02l-0.182,0.009
				c-18.006,0.32-32.655,15.259-32.655,33.293c0,18.033,14.648,32.97,32.655,33.294l0.174,0.009c0.141,0.01,0.281,0.016,0.424,0.016
				c18.34,0,33.257-14.947,33.257-33.318C1523.776,492.9,1508.859,477.947,1490.519,477.947z M1490.519,541.096l-0.186-0.012
				c-0.113-0.008-0.233-0.016-0.352-0.017c-16.115-0.287-29.23-13.656-29.23-29.797c0-16.143,13.114-29.511,29.216-29.8
				c0.127-0.002,0.254-0.008,0.381-0.016l0.17-0.011c16.415,0,29.768,13.38,29.768,29.827
				C1520.287,527.715,1506.934,541.096,1490.519,541.096z"/>
		</g>
		<g id="XMLID_3150_">
			<path id="XMLID_3151_" style="fill:#808083;" d="M1553.03,494.703l-17.389-3.895l9.553-15.074
				c0.438-0.692,0.336-1.595-0.242-2.173l-18.532-18.565c-0.58-0.581-1.482-0.68-2.168-0.237l-15.042,9.566l-3.887-17.423
				c-0.178-0.8-0.885-1.366-1.703-1.366h-26.202c-0.818,0-1.525,0.565-1.701,1.366l-3.888,17.426l-15.044-9.569
				c-0.688-0.443-1.589-0.344-2.169,0.237l-18.528,18.57c-0.575,0.577-0.676,1.478-0.238,2.17l9.551,15.072l-17.393,3.897
				c-0.798,0.178-1.364,0.887-1.364,1.706l0.006,26.255c0,0.822,0.567,1.53,1.363,1.706l17.388,3.893l-9.551,15.077
				c-0.437,0.69-0.337,1.594,0.238,2.171l18.534,18.562c0.581,0.586,1.481,0.679,2.167,0.24l15.044-9.567l3.887,17.424
				c0.179,0.799,0.887,1.372,1.702,1.372l26.202-0.006c0.819,0,1.526-0.566,1.701-1.366l3.886-17.424l15.045,9.567
				c0.69,0.439,1.59,0.345,2.171-0.24l18.525-18.567c0.578-0.575,0.676-1.483,0.242-2.17l-9.551-15.073l17.391-3.899
				c0.798-0.177,1.365-0.886,1.365-1.704l-0.005-26.254C1554.394,495.587,1553.827,494.879,1553.03,494.703z M1532.46,525.393
				c-0.557,0.125-1.013,0.514-1.232,1.036c-0.219,0.526-0.167,1.128,0.136,1.606l10.133,15.991l-16.55,16.59l-15.961-10.151
				c-0.483-0.306-1.079-0.356-1.604-0.14c-0.525,0.223-0.912,0.677-1.033,1.235l-4.124,18.48l-23.407,0.003l-4.124-18.484
				c-0.123-0.558-0.509-1.02-1.034-1.236c-0.214-0.091-0.441-0.133-0.666-0.133c-0.328,0-0.653,0.09-0.937,0.268l-15.957,10.157
				l-16.554-16.584l10.131-15.997c0.304-0.478,0.358-1.08,0.14-1.606c-0.22-0.522-0.677-0.911-1.233-1.036l-18.447-4.128
				l-0.005-23.457l18.452-4.129c0.556-0.124,1.013-0.512,1.233-1.033c0.218-0.528,0.164-1.129-0.14-1.611l-10.134-15.992
				l16.553-16.587l15.959,10.154c0.483,0.31,1.08,0.362,1.602,0.145c0.526-0.222,0.911-0.677,1.034-1.235l4.122-18.492h23.409
				l4.122,18.488c0.123,0.557,0.51,1.018,1.033,1.234c0.526,0.216,1.124,0.17,1.603-0.14l15.962-10.154l16.554,16.586
				l-10.133,15.993c-0.304,0.482-0.357,1.079-0.14,1.605c0.219,0.528,0.676,0.915,1.234,1.039l18.446,4.127l0.003,23.458
				L1532.46,525.393z"/>
		</g>
	</g>
	<g id="XMLID_3140_">
		<g id="XMLID_3145_">
			<path id="XMLID_3146_" style="fill:#333C8B;" d="M1596.481,547.42c-0.106,0-0.211,0.006-0.316,0.015l-0.139,0.007
				c-13.708,0.244-24.86,11.617-24.86,25.346c0,13.728,11.152,25.1,24.86,25.346l0.132,0.007c0.108,0.007,0.214,0.012,0.323,0.012
				c13.962,0,25.318-11.379,25.318-25.365C1621.799,558.804,1610.443,547.42,1596.481,547.42z M1596.481,595.495l-0.141-0.009
				c-0.086-0.006-0.177-0.012-0.268-0.013c-12.269-0.219-22.252-10.396-22.252-22.684c0-12.29,9.984-22.466,22.242-22.686
				c0.097-0.001,0.193-0.006,0.29-0.012l0.13-0.009c12.496,0,22.662,10.186,22.662,22.707
				C1619.143,585.309,1608.977,595.495,1596.481,595.495z"/>
		</g>
		<g id="XMLID_3141_">
			<path id="XMLID_3142_" style="fill:#333C8B;" d="M1644.07,560.176l-13.238-2.965l7.272-11.475
				c0.333-0.527,0.256-1.214-0.184-1.654l-14.108-14.133c-0.442-0.443-1.128-0.518-1.65-0.181l-11.451,7.282l-2.959-13.264
				c-0.135-0.609-0.674-1.04-1.296-1.04h-19.948c-0.622,0-1.161,0.43-1.295,1.04l-2.96,13.267l-11.453-7.285
				c-0.523-0.337-1.21-0.262-1.651,0.181l-14.106,14.137c-0.438,0.439-0.514,1.125-0.181,1.652l7.271,11.474l-13.241,2.966
				c-0.607,0.135-1.038,0.675-1.038,1.299l0.005,19.987c0,0.626,0.432,1.165,1.038,1.299l13.237,2.964l-7.271,11.478
				c-0.333,0.526-0.256,1.213,0.181,1.653l14.11,14.132c0.443,0.446,1.127,0.517,1.65,0.183l11.453-7.284l2.959,13.265
				c0.136,0.609,0.675,1.044,1.296,1.044l19.948-0.005c0.623,0,1.161-0.431,1.295-1.04l2.959-13.265l11.453,7.284
				c0.525,0.334,1.211,0.263,1.652-0.183l14.103-14.135c0.44-0.438,0.515-1.129,0.184-1.652l-7.271-11.475l13.24-2.969
				c0.607-0.135,1.039-0.674,1.039-1.298l-0.004-19.987C1645.108,560.849,1644.677,560.311,1644.07,560.176z M1628.41,583.541
				c-0.424,0.095-0.771,0.391-0.938,0.789c-0.167,0.401-0.127,0.858,0.104,1.223l7.714,12.173l-12.599,12.63l-12.151-7.728
				c-0.368-0.233-0.822-0.271-1.221-0.106c-0.4,0.169-0.694,0.516-0.787,0.94l-3.139,14.069l-17.82,0.003l-3.14-14.072
				c-0.094-0.425-0.387-0.777-0.787-0.941c-0.163-0.069-0.335-0.102-0.507-0.102c-0.25,0-0.497,0.068-0.714,0.204l-12.148,7.732
				l-12.603-12.625l7.713-12.178c0.231-0.364,0.272-0.822,0.106-1.223c-0.167-0.397-0.516-0.694-0.939-0.789l-14.044-3.142
				l-0.004-17.858l14.048-3.143c0.423-0.094,0.771-0.389,0.939-0.787c0.166-0.402,0.125-0.86-0.106-1.226l-7.715-12.174
				l12.602-12.628l12.15,7.73c0.367,0.236,0.822,0.276,1.22,0.11c0.401-0.169,0.694-0.515,0.787-0.94l3.138-14.078h17.821
				l3.138,14.075c0.094,0.424,0.389,0.775,0.787,0.939c0.401,0.165,0.856,0.129,1.221-0.106l12.151-7.73l12.603,12.627
				l-7.714,12.176c-0.232,0.367-0.272,0.822-0.106,1.222c0.167,0.402,0.515,0.697,0.939,0.791l14.043,3.142l0.003,17.858
				L1628.41,583.541z"/>
		</g>
	</g>
	<g id="XMLID_3182_">
		<path id="XMLID_3188_" style="opacity:0.8;fill:#BABCBE;" d="M382.948,642.75c1.118-0.037,2.231-0.091,3.34-0.169
			c25.723-1.74,48.737-13.494,65.148-31.416c1.413-1.544,2.766-3.144,4.08-4.774c10.376-12.903,17.514-28.493,20.229-45.543
			c-2.054,0.779-4.27,1.224-6.595,1.224c-2.16,0-4.226-0.388-6.158-1.065c-2.635,14.194-8.81,27.154-17.584,37.927
			c-3.063-2.026-6.231-3.907-9.48-5.654c-0.204,2.216-0.81,4.313-1.724,6.238c2.383,1.323,4.73,2.701,7.006,4.183
			c-11.028,11.652-25.307,20.185-41.378,24.128c5.187-5.519,9.836-11.543,13.917-17.956c-2.142-0.419-4.147-1.216-5.957-2.302
			c-5.315,8.173-11.636,15.63-18.81,22.177c-2.042,0.224-4.106,0.37-6.19,0.445v-44.845c5.585,0.18,11.064,0.787,16.421,1.743
			c0.526-2.141,1.404-4.144,2.599-5.925c-6.186-1.183-12.538-1.901-19.021-2.097v-32.538h43.417
			c-0.085,9.356-1.323,18.43-3.54,27.118c2.093,0.625,4.024,1.615,5.74,2.886c2.563-9.59,3.993-19.638,4.08-30.004h18.263
			c-0.173-1.023-0.285-2.065-0.285-3.138c0-1.073,0.112-2.118,0.286-3.141h-18.371c-0.367-8.585-1.647-16.935-3.732-24.959
			c-1.828,1.003-3.84,1.69-5.97,2.034c1.886,7.384,3.064,15.049,3.421,22.925h-43.31v-30.442c6.932-0.208,13.693-1.065,20.285-2.401
			c-0.948-1.852-1.595-3.873-1.88-6.011c-5.986,1.177-12.123,1.932-18.405,2.13v-42.748c2.083,0.076,4.147,0.219,6.19,0.443
			c7.394,6.748,13.865,14.478,19.277,22.946c1.634-1.273,3.481-2.276,5.482-2.953c-4.093-6.446-8.704-12.528-13.911-18.07
			c15.473,3.795,29.292,11.837,40.138,22.829c-1.516,0.961-3.06,1.883-4.624,2.774c1.138,1.745,1.983,3.693,2.486,5.777
			c2.181-1.227,4.337-2.49,6.433-3.847c8.551,10.061,14.781,22.141,17.897,35.408c2.162-0.878,4.519-1.37,6.989-1.37
			c2.012,0,3.948,0.325,5.765,0.922c-3.3-15.856-10.43-30.322-20.434-42.337c-1.341-1.612-2.746-3.167-4.188-4.688
			c-16.329-17.239-38.868-28.519-64.006-30.223c-1.11-0.073-2.222-0.13-3.34-0.169c-0.052-0.036-0.106-0.068-0.155-0.109v0.107
			c-1.044-0.034-2.088-0.078-3.144-0.078c-1.051,0-2.091,0.044-3.138,0.078c-0.409,0.013-0.823,0.013-1.235,0.031
			c-1.068,0.049-2.13,0.133-3.192,0.213c-19.307,1.492-37.035,8.652-51.557,19.797c3.735,2.117,6.663,5.48,8.234,9.525
			c8.655-6.53,18.573-11.47,29.35-14.304c-8.741,9.376-15.997,20.138-21.413,31.923c-2.765-1.112-5.468-2.341-8.122-3.659
			c-0.829,1.966-1.999,3.748-3.414,5.308c2.958,1.49,5.976,2.878,9.068,4.128c-3.12,7.85-5.428,16.101-6.842,24.654
			c0.496-0.039,0.992-0.075,1.499-0.075c1.65,0,3.241,0.237,4.766,0.641c1.356-7.985,3.537-15.692,6.462-23.027
			c11.457,3.941,23.685,6.186,36.397,6.459v30.418h-29.435c0.31,1.349,0.49,2.748,0.49,4.19c0,0.703-0.048,1.404-0.125,2.089h29.07
			v32.512c-12.981,0.281-25.459,2.615-37.126,6.709c-2.801-7.394-4.835-15.158-6.048-23.186c-1.428,0.346-2.916,0.555-4.451,0.555
			c-0.619,0-1.231-0.034-1.835-0.094c1.268,8.65,3.451,16.997,6.463,24.954c-7.013,2.881-13.688,6.415-19.967,10.509
			c-11.469-14.275-18.414-32.319-18.655-51.96h15.439c-0.076-0.685-0.122-1.385-0.122-2.089c0-1.443,0.178-2.841,0.487-4.19h-15.652
			c0.837-13.697,4.963-26.509,11.561-37.693c-4.234-1.117-7.879-3.675-10.378-7.128c-7.97,13.236-12.906,28.491-13.776,44.821
			c-0.094,1.737-0.148,3.477-0.148,5.235c0,0.352,0.025,0.696,0.027,1.044c0.241,22.399,8.079,42.995,21.062,59.354
			c1.302,1.638,2.637,3.248,4.042,4.8c16.239,17.971,39.078,29.848,64.65,31.827c1.062,0.078,2.124,0.162,3.192,0.211
			c0.411,0.018,0.826,0.018,1.235,0.031c1.047,0.031,2.087,0.078,3.138,0.078c1.056,0,2.099-0.047,3.144-0.078v0.107
			C382.843,642.826,382.896,642.786,382.948,642.75z M317.7,603.284c5.739-3.683,11.82-6.873,18.197-9.496
			c5.492,12.486,13.037,23.86,22.215,33.705C342.401,623.362,328.47,614.819,317.7,603.284z M376.511,630.194
			c-2.493-0.094-4.958-0.295-7.393-0.596c-11.551-10.587-20.902-23.519-27.337-38.029c10.923-3.797,22.594-5.967,34.73-6.243
			V630.194z M376.511,503.552c-11.831-0.266-23.219-2.341-33.908-5.962c6.399-13.773,15.449-26.071,26.515-36.211
			c2.435-0.305,4.9-0.505,7.393-0.599V503.552z"/>
		<path id="XMLID_3187_" style="fill:#333C8B;" d="M469.151,531.722c-2.046,0-3.942,0.573-5.617,1.5
			c-2.697,1.495-4.725,4.003-5.576,7.03c-0.284,1.005-0.485,2.044-0.485,3.141c0,1.096,0.201,2.133,0.485,3.138
			c0.901,3.206,3.116,5.837,6.052,7.293c1.557,0.771,3.289,1.245,5.141,1.245c2.905,0,5.533-1.107,7.579-2.87
			c2.485-2.138,4.097-5.274,4.097-8.806c0-3.74-1.798-7.035-4.543-9.173C474.305,532.675,471.849,531.722,469.151,531.722z"/>
		<path id="XMLID_3186_" style="fill:#333C8B;" d="M420.729,580.432c-1.08-0.331-2.205-0.565-3.393-0.565
			c-3.005,0-5.722,1.174-7.795,3.047c-1.653,1.495-2.864,3.44-3.451,5.662c-0.254,0.951-0.432,1.935-0.432,2.969
			c0,4.274,2.338,7.983,5.774,10.014c1.74,1.031,3.743,1.662,5.904,1.662c0.137,0,0.263-0.036,0.396-0.042
			c4.57-0.156,8.471-2.93,10.246-6.881c0.653-1.459,1.034-3.06,1.034-4.753c0-0.607-0.09-1.185-0.178-1.768
			c-0.339-2.195-1.285-4.173-2.671-5.79C424.739,582.325,422.873,581.088,420.729,580.432z"/>
		<path id="XMLID_3185_" style="fill:#333C8B;" d="M332.695,533.454c-1.199-0.414-2.468-0.69-3.809-0.69
			c-0.841,0-1.662,0.102-2.454,0.268c-3.87,0.836-7.01,3.594-8.411,7.22c-0.505,1.302-0.81,2.709-0.81,4.19
			c0,0.714,0.089,1.409,0.208,2.089c0.835,4.571,4.324,8.199,8.807,9.251c0.86,0.201,1.742,0.336,2.659,0.336
			c1.271,0,2.471-0.258,3.616-0.63c4.015-1.323,7.075-4.722,7.847-8.957c0.125-0.679,0.21-1.375,0.21-2.089
			c0-1.482-0.304-2.888-0.807-4.19C338.519,537.067,335.934,534.587,332.695,533.454z"/>
		<path id="XMLID_3184_" style="fill:#333C8B;" d="M419.693,487.229c-0.749,0-1.475,0.086-2.186,0.224
			c-2.14,0.409-4.051,1.417-5.609,2.823c-2.365,2.136-3.883,5.196-3.883,8.631c0,0.318,0.07,0.622,0.095,0.938
			c0.18,2.198,0.939,4.225,2.172,5.912c2.125,2.909,5.537,4.829,9.411,4.829c0.341,0,0.664-0.073,0.997-0.107
			c2.192-0.185,4.206-0.956,5.885-2.19c2.891-2.125,4.793-5.527,4.793-9.382c0-0.331-0.074-0.643-0.101-0.966
			c-0.181-2.201-0.95-4.225-2.188-5.912C426.953,489.138,423.551,487.229,419.693,487.229z"/>
		<path id="XMLID_3183_" style="fill:#333C8B;" d="M314.451,473.306c-0.992-0.271-2.017-0.464-3.097-0.464
			c-6.441,0-11.677,5.238-11.677,11.671c0,1.55,0.318,3.024,0.869,4.378c1.666,4.1,5.593,7.009,10.232,7.238
			c0.195,0.013,0.382,0.062,0.577,0.062c2.786,0,5.312-1.023,7.323-2.656c1.647-1.344,2.914-3.102,3.64-5.139
			c0.434-1.221,0.714-2.516,0.714-3.884c0-0.641-0.09-1.258-0.19-1.87C322.104,478.129,318.79,474.512,314.451,473.306z"/>
	</g>
	<g id="XMLID_3207_">
		<g id="XMLID_3210_">
			<g id="XMLID_3419_">
				<polygon id="XMLID_3420_" style="fill:#A2A6AC;" points="1145.21,544.583 1083.085,544.583 1083.085,536.184 1142.411,536.184 
					1179.13,508.65 1238.254,508.65 1238.254,517.049 1181.93,517.049 				"/>
			</g>
			<g id="XMLID_3417_">
				<polygon id="XMLID_3418_" style="fill:#A2A6AC;" points="943.442,432.299 935.042,432.299 935.042,320.533 971.587,235.745 
					979.3,239.07 943.442,322.267 				"/>
			</g>
			<g id="XMLID_3415_">
				<polygon id="XMLID_3416_" style="fill:#A2A6AC;" points="1194.85,483.634 1083.085,483.634 1083.085,475.235 1193.117,475.235 
					1276.313,439.376 1279.638,447.089 				"/>
			</g>
			<g id="XMLID_3413_">
				<polygon id="XMLID_3414_" style="fill:#A2A6AC;" points="1003.508,432.299 995.109,432.299 995.109,365.427 966.457,325.214 
					973.298,320.34 1003.508,362.741 				"/>
			</g>
			<g id="XMLID_3411_">
				<circle id="XMLID_3412_" style="fill:#A2A6AC;" cx="939.242" cy="432.299" r="12.738"/>
			</g>
			<g id="XMLID_3409_">
				<circle id="XMLID_3410_" style="fill:#A2A6AC;" cx="999.308" cy="432.299" r="12.738"/>
			</g>
			<g id="XMLID_3407_">
				<circle id="XMLID_3408_" style="fill:#A2A6AC;" cx="1083.085" cy="540.383" r="12.738"/>
			</g>
			<g id="XMLID_3405_">
				
					<ellipse id="XMLID_3406_" transform="matrix(0.9239 -0.3827 0.3827 0.9239 -72.3377 522.7985)" style="fill:#A2A6AC;" cx="1277.976" cy="443.233" rx="12.738" ry="12.738"/>
			</g>
			<g id="XMLID_3403_">
				<circle id="XMLID_3404_" style="fill:#A2A6AC;" cx="1238.254" cy="512.849" r="12.738"/>
			</g>
			<g id="XMLID_3401_">
				<circle id="XMLID_3402_" style="fill:#A2A6AC;" cx="1083.085" cy="479.434" r="12.738"/>
			</g>
			<g id="XMLID_3399_">
				<polygon id="XMLID_3400_" style="fill:#A2A6AC;" points="874.883,432.299 866.484,432.299 866.484,364.157 811.066,265.628 
					818.386,261.51 874.883,361.957 				"/>
			</g>
			<g id="XMLID_3397_">
				<circle id="XMLID_3398_" style="fill:#A2A6AC;" cx="870.683" cy="432.299" r="12.738"/>
			</g>
			<g id="XMLID_3395_">
				<circle id="XMLID_3396_" style="fill:#A2A6AC;" cx="814.726" cy="263.569" r="12.738"/>
			</g>
			<g id="XMLID_3393_">
				
					<ellipse id="XMLID_3394_" transform="matrix(0.7071 -0.7071 0.7071 0.7071 55.8329 780.3461)" style="fill:#A2A6AC;" cx="969.878" cy="322.777" rx="12.738" ry="12.738"/>
			</g>
			<g id="XMLID_3386_">
				<g id="XMLID_3391_">
					<polygon id="XMLID_3392_" style="fill:#A2A6AC;" points="1050.191,432.299 1041.792,432.299 1041.792,321.094 
						1099.465,260.669 1105.541,266.469 1050.191,324.459 					"/>
				</g>
				<g id="XMLID_3389_">
					<circle id="XMLID_3390_" style="fill:#A2A6AC;" cx="1045.991" cy="432.299" r="12.738"/>
				</g>
				<g id="XMLID_3387_">
					
						<ellipse id="XMLID_3388_" transform="matrix(0.1602 -0.9871 0.9871 0.1602 659.1777 1307.4171)" style="fill:#A2A6AC;" cx="1097.931" cy="266.323" rx="12.738" ry="12.738"/>
				</g>
			</g>
			<g id="XMLID_3379_">
				<g id="XMLID_3384_">
					<polygon id="XMLID_3385_" style="fill:#A2A6AC;" points="1250.846,653.559 1192.856,598.209 1085.016,598.209 1085.016,589.81 
						1196.221,589.81 1256.646,647.483 					"/>
				</g>
				<g id="XMLID_3382_">
					<circle id="XMLID_3383_" style="fill:#A2A6AC;" cx="1085.016" cy="594.009" r="12.738"/>
				</g>
				<g id="XMLID_3380_">
					
						<ellipse id="XMLID_3381_" transform="matrix(0.7071 -0.7071 0.7071 0.7071 -90.348 1073.7791)" style="fill:#A2A6AC;" cx="1250.992" cy="645.949" rx="12.738" ry="12.738"/>
				</g>
			</g>
			<g id="XMLID_3377_">
				<polygon id="XMLID_3378_" style="fill:#A2A6AC;" points="941.071,890.927 933.357,887.603 969.216,804.406 969.216,694.374 
					977.615,694.374 977.615,806.139 				"/>
			</g>
			<g id="XMLID_3375_">
				<polygon id="XMLID_3376_" style="fill:#A2A6AC;" points="939.36,806.333 909.15,763.931 909.15,694.374 917.549,694.374 
					917.549,761.245 946.201,801.459 				"/>
			</g>
			<g id="XMLID_3373_">
				<polygon id="XMLID_3374_" style="fill:#A2A6AC;" points="813.193,866.003 807.117,860.204 862.466,802.213 862.466,694.374 
					870.866,694.374 870.866,805.578 				"/>
			</g>
			<g id="XMLID_3371_">
				<circle id="XMLID_3372_" style="fill:#A2A6AC;" cx="973.416" cy="694.374" r="12.738"/>
			</g>
			<g id="XMLID_3369_">
				<circle id="XMLID_3370_" style="fill:#A2A6AC;" cx="913.349" cy="694.374" r="12.738"/>
			</g>
			<g id="XMLID_3367_">
				<circle id="XMLID_3368_" style="fill:#A2A6AC;" cx="866.666" cy="694.374" r="12.738"/>
			</g>
			<g id="XMLID_3365_">
				<polygon id="XMLID_3366_" style="fill:#A2A6AC;" points="1094.271,865.162 1037.775,764.716 1037.775,694.374 1046.174,694.374 
					1046.174,762.516 1101.592,861.045 				"/>
			</g>
			<g id="XMLID_3363_">
				<circle id="XMLID_3364_" style="fill:#A2A6AC;" cx="1041.974" cy="694.374" r="12.738"/>
			</g>
			<g id="XMLID_3361_">
				
					<ellipse id="XMLID_3362_" transform="matrix(0.1602 -0.9871 0.9871 0.1602 70.1034 1808.6036)" style="fill:#A2A6AC;" cx="1097.931" cy="863.103" rx="12.738" ry="12.738"/>
			</g>
			<g id="XMLID_3359_">
				<circle id="XMLID_3360_" style="fill:#A2A6AC;" cx="937.214" cy="889.265" r="12.738"/>
			</g>
			<g id="XMLID_3357_">
				<circle id="XMLID_3358_" style="fill:#A2A6AC;" cx="942.78" cy="803.896" r="12.738"/>
			</g>
			<g id="XMLID_3350_">
				<g id="XMLID_3355_">
					<polygon id="XMLID_3356_" style="fill:#A2A6AC;" points="1192.101,680.958 1151.887,652.306 1085.016,652.306 
						1085.016,643.907 1154.574,643.907 1196.975,674.117 					"/>
				</g>
				<g id="XMLID_3353_">
					<circle id="XMLID_3354_" style="fill:#A2A6AC;" cx="1085.016" cy="648.107" r="12.738"/>
				</g>
				<g id="XMLID_3351_">
					
						<ellipse id="XMLID_3352_" transform="matrix(0.9732 -0.2298 0.2298 0.9732 -123.7109 292.5724)" style="fill:#A2A6AC;" cx="1194.538" cy="677.538" rx="12.738" ry="12.738"/>
				</g>
			</g>
			<g id="XMLID_3343_">
				<g id="XMLID_3348_">
					<polygon id="XMLID_3349_" style="fill:#A2A6AC;" points="831.612,479.3 769.486,479.3 732.767,451.766 676.443,451.766 
						676.443,443.366 735.566,443.366 772.286,470.901 831.612,470.901 					"/>
				</g>
				<g id="XMLID_3346_">
					<circle id="XMLID_3347_" style="fill:#A2A6AC;" cx="831.612" cy="475.1" r="12.738"/>
				</g>
				<g id="XMLID_3344_">
					<circle id="XMLID_3345_" style="fill:#A2A6AC;" cx="676.442" cy="447.566" r="12.738"/>
				</g>
			</g>
			<g id="XMLID_3336_">
				<g id="XMLID_3341_">
					<polygon id="XMLID_3342_" style="fill:#A2A6AC;" points="831.612,543.297 719.847,543.297 635.059,506.753 638.383,499.039 
						721.58,534.898 831.612,534.898 					"/>
				</g>
				<g id="XMLID_3339_">
					<circle id="XMLID_3340_" style="fill:#A2A6AC;" cx="636.721" cy="502.896" r="12.738"/>
				</g>
				<g id="XMLID_3337_">
					<circle id="XMLID_3338_" style="fill:#A2A6AC;" cx="831.612" cy="539.098" r="12.738"/>
				</g>
			</g>
			<g id="XMLID_3329_">
				<g id="XMLID_3334_">
					<polygon id="XMLID_3335_" style="fill:#A2A6AC;" points="666.604,713.574 660.805,707.498 721.23,649.825 832.434,649.825 
						832.434,658.224 724.595,658.224 					"/>
				</g>
				<g id="XMLID_3332_">
					<circle id="XMLID_3333_" style="fill:#A2A6AC;" cx="832.434" cy="654.025" r="12.738"/>
				</g>
				<g id="XMLID_3330_">
					
						<ellipse id="XMLID_3331_" transform="matrix(0.7071 -0.7071 0.7071 0.7071 -303.991 678.0297)" style="fill:#A2A6AC;" cx="666.459" cy="705.964" rx="12.738" ry="12.738"/>
				</g>
			</g>
			<g id="XMLID_3322_">
				<g id="XMLID_3327_">
					<polygon id="XMLID_3328_" style="fill:#A2A6AC;" points="725.349,624.883 720.475,618.042 762.877,587.832 832.434,587.832 
						832.434,596.231 765.563,596.231 					"/>
				</g>
				<g id="XMLID_3325_">
					<circle id="XMLID_3326_" style="fill:#A2A6AC;" cx="832.434" cy="592.032" r="12.738"/>
				</g>
				<g id="XMLID_3323_">
					<circle id="XMLID_3324_" style="fill:#A2A6AC;" cx="722.912" cy="621.463" r="12.738"/>
				</g>
			</g>
			<g id="XMLID_3320_">
				<circle id="XMLID_3321_" style="fill:#A2A6AC;" cx="814.726" cy="860.349" r="12.738"/>
			</g>
			<g id="XMLID_3318_">
				<rect id="XMLID_3319_" x="833.39" y="431.394" style="fill:#DFAAAE;" width="249.695" height="266.731"/>
			</g>
			<g id="XMLID_3316_">
				<rect id="XMLID_3317_" x="866.438" y="466.697" style="fill:#333C8B;" width="183.599" height="196.126"/>
			</g>
			<g id="XMLID_3211_">
				<g id="XMLID_3314_">
					<rect id="XMLID_3315_" x="883.421" y="479.965" style="fill:#D0D6DB;" width="14.4" height="12.745"/>
				</g>
				<g id="XMLID_3312_">
					<rect id="XMLID_3313_" x="904.132" y="479.965" style="fill:#D0D6DB;" width="14.4" height="12.745"/>
				</g>
				<g id="XMLID_3310_">
					<rect id="XMLID_3311_" x="924.842" y="479.965" style="fill:#D0D6DB;" width="14.4" height="12.745"/>
				</g>
				<g id="XMLID_3308_">
					<rect id="XMLID_3309_" x="945.553" y="479.965" style="fill:#D0D6DB;" width="14.4" height="12.745"/>
				</g>
				<g id="XMLID_3306_">
					<rect id="XMLID_3307_" x="966.264" y="479.965" style="fill:#D0D6DB;" width="14.4" height="12.745"/>
				</g>
				<g id="XMLID_3304_">
					<rect id="XMLID_3305_" x="996.154" y="479.965" style="fill:#D0D6DB;" width="14.4" height="12.745"/>
				</g>
				<g id="XMLID_3302_">
					<rect id="XMLID_3303_" x="883.421" y="593.878" style="fill:#D0D6DB;" width="14.4" height="12.744"/>
				</g>
				<g id="XMLID_3300_">
					<rect id="XMLID_3301_" x="904.132" y="593.878" style="fill:#D0D6DB;" width="14.4" height="12.744"/>
				</g>
				<g id="XMLID_3298_">
					<rect id="XMLID_3299_" x="883.421" y="613.607" style="fill:#D0D6DB;" width="14.4" height="12.744"/>
				</g>
				<g id="XMLID_3296_">
					<rect id="XMLID_3297_" x="904.132" y="613.607" style="fill:#D0D6DB;" width="14.4" height="12.744"/>
				</g>
				<g id="XMLID_3294_">
					<rect id="XMLID_3295_" x="924.842" y="593.878" style="fill:#D0D6DB;" width="14.4" height="12.744"/>
				</g>
				<g id="XMLID_3292_">
					<rect id="XMLID_3293_" x="945.553" y="593.878" style="fill:#D0D6DB;" width="14.4" height="12.744"/>
				</g>
				<g id="XMLID_3290_">
					<rect id="XMLID_3291_" x="975.444" y="593.878" style="fill:#D0D6DB;" width="14.4" height="12.744"/>
				</g>
				<g id="XMLID_3288_">
					<rect id="XMLID_3289_" x="996.154" y="593.878" style="fill:#D0D6DB;" width="14.4" height="12.744"/>
				</g>
				<g id="XMLID_3286_">
					<rect id="XMLID_3287_" x="883.421" y="500.105" style="fill:#D0D6DB;" width="14.4" height="12.744"/>
				</g>
				<g id="XMLID_3284_">
					<rect id="XMLID_3285_" x="904.132" y="500.105" style="fill:#D0D6DB;" width="14.4" height="12.744"/>
				</g>
				<g id="XMLID_3282_">
					<rect id="XMLID_3283_" x="924.842" y="500.105" style="fill:#D0D6DB;" width="14.4" height="12.744"/>
				</g>
				<g id="XMLID_3280_">
					<rect id="XMLID_3281_" x="945.553" y="500.105" style="fill:#D0D6DB;" width="14.4" height="12.744"/>
				</g>
				<g id="XMLID_3278_">
					<rect id="XMLID_3279_" x="966.264" y="500.105" style="fill:#D0D6DB;" width="14.4" height="12.744"/>
				</g>
				<g id="XMLID_3276_">
					<rect id="XMLID_3277_" x="986.974" y="500.105" style="fill:#D0D6DB;" width="14.4" height="12.744"/>
				</g>
				<g id="XMLID_3274_">
					<rect id="XMLID_3275_" x="883.421" y="638.563" style="fill:#D0D6DB;" width="14.4" height="12.745"/>
				</g>
				<g id="XMLID_3272_">
					<rect id="XMLID_3273_" x="904.132" y="638.563" style="fill:#D0D6DB;" width="14.4" height="12.745"/>
				</g>
				<g id="XMLID_3270_">
					<rect id="XMLID_3271_" x="924.842" y="638.563" style="fill:#D0D6DB;" width="14.4" height="12.745"/>
				</g>
				<g id="XMLID_3268_">
					<rect id="XMLID_3269_" x="954.733" y="638.563" style="fill:#D0D6DB;" width="14.4" height="12.745"/>
				</g>
				<g id="XMLID_3266_">
					<rect id="XMLID_3267_" x="975.444" y="638.563" style="fill:#D0D6DB;" width="14.4" height="12.745"/>
				</g>
				<g id="XMLID_3264_">
					<rect id="XMLID_3265_" x="996.154" y="638.563" style="fill:#D0D6DB;" width="14.4" height="12.745"/>
				</g>
				<g id="XMLID_3262_">
					<rect id="XMLID_3263_" x="883.421" y="520.244" style="fill:#D0D6DB;" width="14.4" height="12.744"/>
				</g>
				<g id="XMLID_3260_">
					<rect id="XMLID_3261_" x="883.421" y="540.383" style="fill:#D0D6DB;" width="20.711" height="18.33"/>
				</g>
				<g id="XMLID_3258_">
					<rect id="XMLID_3259_" x="883.421" y="567.165" style="fill:#D0D6DB;" width="20.711" height="18.33"/>
				</g>
				<g id="XMLID_3256_">
					<rect id="XMLID_3257_" x="1017.133" y="479.965" style="fill:#D0D6DB;" width="14.4" height="12.745"/>
				</g>
				<g id="XMLID_3254_">
					<rect id="XMLID_3255_" x="1017.133" y="593.878" style="fill:#D0D6DB;" width="14.4" height="12.744"/>
				</g>
				<g id="XMLID_3252_">
					<rect id="XMLID_3253_" x="1017.133" y="613.607" style="fill:#D0D6DB;" width="14.4" height="12.744"/>
				</g>
				<g id="XMLID_3250_">
					<rect id="XMLID_3251_" x="1017.133" y="500.105" style="fill:#D0D6DB;" width="14.4" height="12.744"/>
				</g>
				<g id="XMLID_3248_">
					<rect id="XMLID_3249_" x="1017.133" y="638.563" style="fill:#D0D6DB;" width="14.4" height="12.745"/>
				</g>
				<g id="XMLID_3246_">
					<rect id="XMLID_3247_" x="1017.133" y="520.244" style="fill:#D0D6DB;" width="14.4" height="12.744"/>
				</g>
				<g id="XMLID_3244_">
					<rect id="XMLID_3245_" x="1012.543" y="540.383" style="fill:#D0D6DB;" width="20.711" height="18.33"/>
				</g>
				<g id="XMLID_3242_">
					<rect id="XMLID_3243_" x="1010.707" y="567.165" style="fill:#D0D6DB;" width="20.711" height="18.33"/>
				</g>
				<g id="XMLID_3240_">
					<rect id="XMLID_3241_" x="923.751" y="567.165" style="fill:#D0D6DB;" width="20.711" height="18.33"/>
				</g>
				<g id="XMLID_3238_">
					<rect id="XMLID_3239_" x="959.522" y="567.165" style="fill:#D0D6DB;" width="20.711" height="18.33"/>
				</g>
				<g id="XMLID_3236_">
					<rect id="XMLID_3237_" x="924.842" y="613.607" style="fill:#D0D6DB;" width="20.711" height="18.33"/>
				</g>
				<g id="XMLID_3234_">
					<rect id="XMLID_3235_" x="958.777" y="613.607" style="fill:#D0D6DB;" width="20.711" height="18.33"/>
				</g>
				<g id="XMLID_3232_">
					<rect id="XMLID_3233_" x="992.712" y="613.607" style="fill:#D0D6DB;" width="20.711" height="18.33"/>
				</g>
				<g id="XMLID_3230_">
					<rect id="XMLID_3231_" x="913.312" y="520.244" style="fill:#D0D6DB;" width="14.4" height="12.744"/>
				</g>
				<g id="XMLID_3228_">
					<rect id="XMLID_3229_" x="934.022" y="520.244" style="fill:#D0D6DB;" width="14.4" height="12.744"/>
				</g>
				<g id="XMLID_3226_">
					<rect id="XMLID_3227_" x="973.093" y="520.244" style="fill:#D0D6DB;" width="14.4" height="12.744"/>
				</g>
				<g id="XMLID_3224_">
					<rect id="XMLID_3225_" x="993.804" y="520.244" style="fill:#D0D6DB;" width="14.4" height="12.744"/>
				</g>
				<g id="XMLID_3222_">
					<rect id="XMLID_3223_" x="911.331" y="543.176" style="fill:#D0D6DB;" width="14.4" height="12.744"/>
				</g>
				<g id="XMLID_3220_">
					<rect id="XMLID_3221_" x="932.042" y="543.176" style="fill:#D0D6DB;" width="14.4" height="12.744"/>
				</g>
				<g id="XMLID_3218_">
					<rect id="XMLID_3219_" x="952.753" y="543.176" style="fill:#D0D6DB;" width="14.4" height="12.744"/>
				</g>
				<g id="XMLID_3216_">
					<rect id="XMLID_3217_" x="973.464" y="543.176" style="fill:#D0D6DB;" width="14.4" height="12.744"/>
				</g>
				<g id="XMLID_3214_">
					<rect id="XMLID_3215_" x="992.338" y="543.176" style="fill:#D0D6DB;" width="14.4" height="12.744"/>
				</g>
				<g id="XMLID_3212_">
					<rect id="XMLID_3213_" x="983.508" y="569.957" style="fill:#D0D6DB;" width="14.4" height="12.745"/>
				</g>
			</g>
		</g>
		<g id="XMLID_3208_">
			<circle id="XMLID_3209_" style="fill:#A2A6AC;" cx="976.401" cy="236.451" r="13.278"/>
		</g>
	</g>
</g>
</svg>
